<svg width="217" height="217" viewBox="0 0 217 217" fill="none" xmlns="http://www.w3.org/2000/svg">
<path d="M77.489 64.1508V97.4753C77.489 100.693 80.072 103.276 83.2901 103.276H191.394C194.612 103.276 197.195 100.693 197.195 97.4753V64.1508C197.195 60.9327 194.612 58.3497 191.394 58.3497H83.2901C80.072 58.3497 77.489 60.9327 77.489 64.1508ZM101.117 81.4694C101.075 81.6811 100.99 81.8928 100.905 82.1045C100.82 82.3163 100.736 82.4856 100.609 82.6974C100.482 82.8667 100.355 83.0784 100.185 83.2055C100.016 83.3749 99.8465 83.5019 99.6772 83.6289C99.5078 83.7559 99.2961 83.8406 99.0844 83.9253C98.8726 84.01 98.6609 84.0947 98.4492 84.137C98.2375 84.1794 98.0258 84.1794 97.7717 84.1794C97.56 84.1794 97.3483 84.1794 97.0942 84.137C96.8825 84.0947 96.6708 84.01 96.459 83.9253C96.2473 83.8406 96.0779 83.7136 95.8662 83.6289C95.6969 83.5019 95.5275 83.3749 95.3581 83.2055C94.7229 82.5703 94.3842 81.6811 94.3842 80.7919C94.3842 80.5802 94.3842 80.3684 94.4265 80.1144C94.4689 79.9027 94.5536 79.6909 94.6383 79.4792C94.723 79.2675 94.85 79.0981 94.9347 78.8864C95.0194 78.6747 95.1887 78.5477 95.3581 78.3783C95.5275 78.2089 95.6969 78.0819 95.8662 77.9549C96.0356 77.8278 96.2473 77.7431 96.459 77.6584C96.6708 77.5738 96.8825 77.4891 97.0942 77.4467C97.5176 77.362 97.9834 77.362 98.4069 77.4467C98.6186 77.4891 98.8303 77.5738 99.042 77.6584C99.2537 77.7431 99.4231 77.8278 99.6348 77.9549C99.8042 78.0819 99.9736 78.2089 100.143 78.3783C100.312 78.5477 100.439 78.717 100.566 78.8864C100.693 79.0558 100.778 79.2675 100.863 79.4792C100.947 79.6909 101.032 79.9027 101.075 80.1144C101.117 80.3261 101.159 80.5378 101.159 80.7919C101.159 81.046 101.159 81.2577 101.117 81.4694ZM119.96 83.2055C119.325 83.8406 118.478 84.1794 117.589 84.1794C117.377 84.1794 117.123 84.1794 116.911 84.137C116.699 84.0947 116.488 84.01 116.276 83.9253C116.064 83.8406 115.852 83.7136 115.683 83.6289C115.514 83.5019 115.344 83.3749 115.175 83.2055C114.54 82.5703 114.201 81.6811 114.201 80.7919C114.201 80.5802 114.201 80.3684 114.243 80.1144C114.286 79.9027 114.37 79.6909 114.455 79.4792C114.54 79.2675 114.667 79.0981 114.752 78.8864C114.836 78.6747 115.006 78.5053 115.175 78.3783C115.344 78.2089 115.514 78.0819 115.683 77.9549C115.852 77.8278 116.064 77.7431 116.276 77.6584C116.488 77.5738 116.699 77.4891 116.911 77.4467C118.012 77.235 119.198 77.5738 119.96 78.3783C120.129 78.5477 120.256 78.717 120.383 78.8864C120.51 79.0558 120.595 79.2675 120.68 79.4792C120.764 79.6909 120.807 79.9027 120.891 80.1144C120.934 80.3261 120.976 80.5378 120.976 80.7919C120.934 81.6811 120.595 82.5703 119.96 83.2055ZM140.666 81.4694C140.624 81.6811 140.539 81.8928 140.454 82.1045C140.37 82.3163 140.242 82.4856 140.158 82.6974C140.031 82.8667 139.904 83.0784 139.734 83.2055C139.565 83.3749 139.396 83.5019 139.226 83.6289C139.057 83.7559 138.845 83.8406 138.633 83.9253C138.422 84.01 138.21 84.0947 137.998 84.137C137.787 84.1794 137.575 84.1794 137.321 84.1794C136.432 84.1794 135.542 83.7983 134.907 83.2055C134.738 83.0361 134.611 82.8667 134.484 82.6974C134.357 82.528 134.272 82.3163 134.187 82.1045C134.103 81.8928 134.06 81.6811 133.976 81.4694C133.933 81.2577 133.891 81.046 133.891 80.7919C133.891 80.5378 133.933 80.3684 133.976 80.1144C134.018 79.9027 134.103 79.6909 134.187 79.4792C134.272 79.2675 134.399 79.0981 134.484 78.8864C134.568 78.6747 134.738 78.5053 134.907 78.3783C135.712 77.5738 136.855 77.235 137.956 77.4467C138.168 77.4891 138.379 77.5738 138.591 77.6584C138.803 77.7431 139.015 77.8278 139.184 77.9549C139.353 78.0819 139.523 78.2089 139.692 78.3783C139.861 78.5477 139.988 78.717 140.115 78.8864C140.242 79.0558 140.327 79.2675 140.412 79.4792C140.497 79.6909 140.539 79.9027 140.624 80.1144C140.666 80.3261 140.708 80.5378 140.708 80.7919C140.708 81.046 140.708 81.2577 140.666 81.4694ZM160.44 81.4694C160.398 81.6811 160.313 81.8928 160.229 82.1045C160.144 82.3163 160.017 82.4856 159.932 82.6974C159.805 82.8667 159.678 83.0784 159.509 83.2055C159.34 83.3749 159.17 83.5019 159.001 83.6289C158.831 83.7559 158.62 83.8406 158.408 83.9253C158.196 84.01 157.985 84.0947 157.773 84.137C157.561 84.1794 157.349 84.1794 157.095 84.1794C156.884 84.1794 156.672 84.1794 156.418 84.137C156.206 84.0947 155.994 84.01 155.783 83.9253C155.571 83.8406 155.402 83.7136 155.19 83.6289C155.02 83.5019 154.809 83.3749 154.682 83.2055C154.512 83.0361 154.385 82.8667 154.258 82.6974C154.131 82.528 154.047 82.3163 153.962 82.1045C153.877 81.8928 153.792 81.6811 153.75 81.4694C153.708 81.2577 153.665 81.046 153.665 80.7919C153.665 80.5378 153.708 80.3684 153.75 80.1144C153.792 79.9027 153.877 79.6909 153.962 79.4792C154.047 79.2675 154.131 79.0981 154.258 78.8864C154.385 78.6747 154.512 78.5477 154.682 78.3783C154.851 78.2089 155.02 78.0819 155.19 77.9549C155.359 77.8278 155.571 77.7431 155.783 77.6584C155.994 77.5738 156.206 77.4891 156.418 77.4467C156.841 77.362 157.307 77.362 157.73 77.4467C157.942 77.4891 158.154 77.5738 158.366 77.6584C158.577 77.7431 158.747 77.8278 158.958 77.9549C159.128 78.0819 159.297 78.2089 159.467 78.3783C159.636 78.5477 159.763 78.717 159.89 78.8864C160.017 79.0558 160.102 79.2675 160.186 79.4792C160.271 79.6909 160.313 79.9027 160.398 80.1144C160.44 80.3261 160.44 80.5378 160.44 80.7919C160.44 81.046 160.483 81.2577 160.44 81.4694ZM180.215 81.4694C180.173 81.6811 180.088 81.8928 180.003 82.1045C179.919 82.3163 179.834 82.4856 179.707 82.6974C179.58 82.8667 179.453 83.0784 179.283 83.2055C179.114 83.3749 178.945 83.5019 178.775 83.6289C178.606 83.7559 178.394 83.8406 178.182 83.9253C177.971 84.01 177.759 84.0947 177.547 84.137C177.336 84.1794 177.124 84.1794 176.87 84.1794C176.658 84.1794 176.446 84.1794 176.192 84.137C175.981 84.0947 175.769 84.01 175.557 83.9253C175.345 83.8406 175.176 83.7136 174.964 83.6289C174.795 83.5019 174.626 83.3749 174.456 83.2055C174.287 83.0361 174.16 82.8667 174.033 82.6974C173.906 82.528 173.821 82.3163 173.736 82.1045C173.652 81.8928 173.567 81.6811 173.525 81.4694C173.482 81.2577 173.44 81.046 173.44 80.7919C173.44 80.5378 173.482 80.3684 173.525 80.1144C173.567 79.9027 173.652 79.6909 173.736 79.4792C173.821 79.2675 173.948 79.0981 174.033 78.8864C174.16 78.717 174.287 78.5053 174.456 78.3783C174.626 78.2089 174.795 78.0819 174.964 77.9549C175.134 77.8278 175.345 77.7431 175.557 77.6584C175.769 77.5738 175.981 77.4891 176.192 77.4467C176.616 77.362 177.082 77.362 177.505 77.4467C177.717 77.4891 177.928 77.5738 178.14 77.6584C178.352 77.7431 178.521 77.8278 178.733 77.9549C178.902 78.0819 179.072 78.2089 179.241 78.3783C179.41 78.5477 179.537 78.717 179.665 78.8864C179.792 79.0558 179.876 79.2675 179.961 79.4792C180.046 79.6909 180.13 79.9027 180.173 80.1144C180.215 80.3261 180.257 80.5378 180.257 80.7919C180.257 81.046 180.257 81.2577 180.215 81.4694Z" fill="#F46262"/>
<path d="M70.7141 110.051V51.5747H138.718C136.262 46.6628 133.044 42.1744 129.191 38.3211C119.875 29.0055 104.377 22.2728 84.01 23.4584C56.1478 25.1098 33.8327 46.9592 33.8327 74.8638V98.2375L20.4097 111.66C18.7159 113.354 19.9016 116.276 22.3151 116.276H33.8327V141.555C33.8327 153.411 43.4447 162.981 55.2586 162.981H86.3812V186.905C86.3812 190.505 89.303 193.469 92.9445 193.469H134.992C138.591 193.469 141.555 190.547 141.555 186.905V110.051H70.7141ZM119.663 122.289H77.4891C75.6259 122.289 74.1016 120.764 74.1016 118.901C74.1016 117.038 75.6259 115.514 77.4891 115.514H119.663C121.527 115.514 123.051 117.038 123.051 118.901C123.051 120.764 121.527 122.289 119.663 122.289Z" fill="#3B4652"/>
</svg>
