<svg width="212" height="211" viewBox="0 0 212 211" fill="none" xmlns="http://www.w3.org/2000/svg">
<path d="M67.1059 194.106C67.1059 199.782 71.6716 204.348 77.348 204.348H134.852C140.528 204.348 145.094 199.741 145.094 194.106V187.401H67.1059V194.106Z" fill="#3B4652"/>
<path d="M106.1 146.145L74.3041 106.986H67.1059V181.642H145.094V106.986H137.895L106.1 146.145Z" fill="#3B4652"/>
<path d="M68.381 90.5333L81.708 106.986L106.059 137.013L130.409 106.986L143.736 90.5333C143.86 90.4099 143.942 90.2865 144.065 90.1631C151.881 81.2784 156.611 69.5967 156.611 56.8044C156.611 28.8752 133.988 6.21105 106.059 6.21105C78.1295 6.21105 55.5064 28.8752 55.5064 56.8044C55.5064 69.5967 60.2367 81.2373 68.052 90.1631C68.1754 90.2865 68.2988 90.4099 68.381 90.5333ZM106.1 35.3742C117.946 35.3742 127.53 44.9582 127.53 56.8044C127.53 68.6507 117.946 78.2346 106.1 78.2346C94.2536 78.2346 84.6696 68.6507 84.6696 56.8044C84.6696 44.9993 94.2536 35.3742 106.1 35.3742Z" fill="#F46262"/>
</svg>
