<svg width="218" height="218" viewBox="0 0 218 218" fill="none" xmlns="http://www.w3.org/2000/svg">
<path d="M132.193 29.8596V73.0079C132.193 75.8026 129.948 78.0468 127.154 78.0468H91.2462C88.4516 78.0468 86.2073 75.8026 86.2073 73.0079V29.8596C86.2073 27.0649 88.4516 24.8207 91.2462 24.8207H127.154C129.948 24.8207 132.193 27.0649 132.193 29.8596Z" fill="#F46262"/>
<path d="M193.252 53.4451H138.968V72.4574H152.856V92.3167H65.5436V72.4574H79.4323V53.4451H25.1476C17.5258 53.4451 11.3859 59.6273 11.3859 67.2068V179.418C11.3859 187.04 17.5681 193.179 25.1476 193.179H193.21C200.832 193.179 206.972 186.997 206.972 179.418V67.2068C207.014 59.5849 200.832 53.4451 193.252 53.4451ZM101.282 118.612C101.282 116.199 103.23 114.251 105.643 114.251H178.347C180.761 114.251 182.709 116.199 182.709 118.612V129.325C182.709 131.739 180.761 133.686 178.347 133.686H105.643C103.23 133.686 101.282 131.739 101.282 129.325V118.612V118.612ZM81.3378 174.633H36.1147V160.787L49.453 148.38C44.8375 144.272 41.8311 137.413 41.8311 130.511C41.8311 119.628 49.4106 114.251 58.7686 114.251C68.1265 114.251 75.7061 119.671 75.7061 130.511C75.7061 137.413 72.6573 144.23 68.0842 148.38L81.4225 160.787V174.633H81.3378ZM182.751 174.633H101.282C99.4186 174.633 97.8942 173.109 97.8942 171.245C97.8942 169.382 99.4186 167.858 101.282 167.858H182.751C184.614 167.858 186.139 169.382 186.139 171.245C186.139 173.109 184.614 174.633 182.751 174.633ZM182.751 155.875H101.282C99.4186 155.875 97.8942 154.35 97.8942 152.487C97.8942 150.624 99.4186 149.1 101.282 149.1H182.751C184.614 149.1 186.139 150.624 186.139 152.487C186.139 154.35 184.614 155.875 182.751 155.875Z" fill="#3B4652"/>
</svg>
