<svg width="24" height="24" viewBox="0 0 24 24" fill="none" xmlns="http://www.w3.org/2000/svg">
<path fill-rule="evenodd" clip-rule="evenodd" d="M9.70703 3.293C9.8945 3.48053 9.99982 3.73484 9.99982 4C9.99982 4.26516 9.8945 4.51947 9.70703 4.707L6.41403 8H12C14.1218 8 16.1566 8.84285 17.6569 10.3431C19.1572 11.8434 20 13.8783 20 16V20C20 20.2652 19.8947 20.5196 19.7071 20.7071C19.5196 20.8946 19.2652 21 19 21C18.7348 21 18.4805 20.8946 18.2929 20.7071C18.1054 20.5196 18 20.2652 18 20V16C18 14.4087 17.3679 12.8826 16.2427 11.7574C15.1175 10.6321 13.5913 10 12 10H6.41403L9.70703 13.293C9.88919 13.4816 9.98998 13.7342 9.9877 13.9964C9.98543 14.2586 9.88026 14.5094 9.69485 14.6948C9.50944 14.8802 9.25863 14.9854 8.99643 14.9877C8.73423 14.99 8.48163 14.8892 8.29303 14.707L3.29303 9.707C3.10556 9.51947 3.00024 9.26516 3.00024 9C3.00024 8.73484 3.10556 8.48053 3.29303 8.293L8.29303 3.293C8.48056 3.10553 8.73487 3.00021 9.00003 3.00021C9.26519 3.00021 9.5195 3.10553 9.70703 3.293Z" fill="#0038FF"/>
</svg>
