<svg width="200" height="200" viewBox="0 0 200 200" fill="none" xmlns="http://www.w3.org/2000/svg">
<path d="M69.0834 94.0833C68.3247 94.8759 67.73 95.8104 67.3334 96.8333C66.4999 98.8622 66.4999 101.138 67.3334 103.167C67.73 104.19 68.3247 105.124 69.0834 105.917L94.0834 130.917C95.6525 132.486 97.7808 133.367 100 133.367C102.219 133.367 104.347 132.486 105.917 130.917C107.486 129.347 108.367 127.219 108.367 125C108.367 122.781 107.486 120.653 105.917 119.083L95.0833 108.333H125C127.21 108.333 129.33 107.455 130.893 105.893C132.455 104.33 133.333 102.21 133.333 100C133.333 97.7899 132.455 95.6702 130.893 94.1074C129.33 92.5446 127.21 91.6667 125 91.6667H95.0833L105.917 80.9167C106.698 80.142 107.318 79.2203 107.741 78.2048C108.164 77.1893 108.382 76.1001 108.382 75C108.382 73.8999 108.164 72.8107 107.741 71.7952C107.318 70.7797 106.698 69.858 105.917 69.0833C105.142 68.3023 104.22 67.6823 103.205 67.2592C102.189 66.8362 101.1 66.6183 100 66.6183C98.8999 66.6183 97.8107 66.8362 96.7952 67.2592C95.7797 67.6823 94.858 68.3023 94.0834 69.0833L69.0834 94.0833ZM16.6667 100C16.6667 116.482 21.5541 132.593 30.7109 146.298C39.8677 160.002 52.8826 170.683 68.1097 176.99C83.3369 183.297 100.092 184.948 116.258 181.732C132.423 178.517 147.271 170.58 158.926 158.926C170.58 147.271 178.517 132.423 181.732 116.258C184.948 100.092 183.297 83.3369 176.99 68.1097C170.683 52.8825 160.002 39.8677 146.298 30.7109C132.593 21.5541 116.482 16.6667 100 16.6667C89.0565 16.6667 78.2202 18.8221 68.1097 23.01C57.9993 27.1979 48.8127 33.3362 41.0745 41.0744C25.4464 56.7025 16.6667 77.8986 16.6667 100V100ZM166.667 100C166.667 113.185 162.757 126.075 155.431 137.038C148.106 148.001 137.694 156.546 125.512 161.592C113.331 166.638 99.9261 167.958 86.994 165.386C74.0619 162.813 62.1831 156.464 52.8596 147.14C43.5361 137.817 37.1867 125.938 34.6143 113.006C32.042 100.074 33.3622 86.6695 38.4081 74.4878C43.4539 62.306 51.9987 51.8941 62.962 44.5687C73.9253 37.2433 86.8146 33.3333 100 33.3333C117.681 33.3333 134.638 40.3571 147.14 52.8595C159.643 65.362 166.667 82.3189 166.667 100Z" fill="#000AFF"/>
</svg>
