<svg width="200" height="200" viewBox="0 0 200 200" fill="none" xmlns="http://www.w3.org/2000/svg">
<path d="M69.2503 25.1569C35.0792 25.1569 7.36756 58.6408 7.36756 99.9295C7.36756 112.142 9.81074 123.708 14.1281 133.899L0.707386 164.107C-1.73579 169.607 2.54814 175.915 7.46796 174.136L36.6522 163.541C46.1237 170.658 57.2687 174.743 69.2503 174.743C103.421 174.743 131.133 141.259 131.133 99.9699C131.133 58.6408 103.421 25.1569 69.2503 25.1569Z" fill="url(#paint0_linear_844_176)"/>
<g filter="url(#filter0_b_844_176)">
<path d="M137.109 175.953C171.843 162.672 191.087 117.9 180.092 75.9527C169.098 34.0052 132.028 10.7664 97.294 24.0473C62.5604 37.3283 43.3162 82.0999 54.3109 124.047C65.3056 165.995 102.376 189.234 137.109 175.953Z" fill="url(#paint1_linear_844_176)"/>
<path d="M176.287 77.4077C186.866 117.769 168.181 159.736 136.076 172.012C103.972 184.287 68.6951 162.953 58.1162 122.592C47.5374 82.2313 66.2227 40.2638 98.3269 27.9882C130.431 15.7126 165.708 37.0466 176.287 77.4077Z" stroke="url(#paint2_linear_844_176)" stroke-opacity="0.4" stroke-width="8.14803"/>
</g>
<ellipse cx="88.0223" cy="99.9998" rx="8.22031" ry="9.92864" fill="url(#paint3_linear_844_176)"/>
<ellipse cx="117.201" cy="99.9998" rx="8.22031" ry="9.92864" fill="url(#paint4_linear_844_176)"/>
<ellipse cx="146.38" cy="99.9998" rx="8.22031" ry="9.92864" fill="url(#paint5_linear_844_176)"/>
<defs>
<filter id="filter0_b_844_176" x="-41.1267" y="-72.0342" width="316.657" height="344.068" filterUnits="userSpaceOnUse" color-interpolation-filters="sRGB">
<feFlood flood-opacity="0" result="BackgroundImageFix"/>
<feGaussianBlur in="BackgroundImage" stdDeviation="46.1721"/>
<feComposite in2="SourceAlpha" operator="in" result="effect1_backgroundBlur_844_176"/>
<feBlend mode="normal" in="SourceGraphic" in2="effect1_backgroundBlur_844_176" result="shape"/>
</filter>
<linearGradient id="paint0_linear_844_176" x1="15.4883" y1="59.1333" x2="119.371" y2="145.108" gradientUnits="userSpaceOnUse">
<stop stop-color="#8FFF00"/>
<stop offset="1" stop-color="#04AA5A"/>
</linearGradient>
<linearGradient id="paint1_linear_844_176" x1="103.983" y1="79.6053" x2="149.182" y2="154.449" gradientUnits="userSpaceOnUse">
<stop stop-color="white" stop-opacity="0.15"/>
<stop offset="1" stop-color="white" stop-opacity="0.12"/>
</linearGradient>
<linearGradient id="paint2_linear_844_176" x1="97.294" y1="24.0473" x2="153.047" y2="169.858" gradientUnits="userSpaceOnUse">
<stop stop-color="white"/>
<stop offset="1" stop-color="white" stop-opacity="0"/>
</linearGradient>
<linearGradient id="paint3_linear_844_176" x1="88.0223" y1="90.0711" x2="99.3306" y2="114.104" gradientUnits="userSpaceOnUse">
<stop stop-color="white" stop-opacity="0.27"/>
<stop offset="1" stop-color="white" stop-opacity="0.49"/>
</linearGradient>
<linearGradient id="paint4_linear_844_176" x1="117.201" y1="90.0711" x2="128.509" y2="114.104" gradientUnits="userSpaceOnUse">
<stop stop-color="white" stop-opacity="0.27"/>
<stop offset="1" stop-color="white" stop-opacity="0.49"/>
</linearGradient>
<linearGradient id="paint5_linear_844_176" x1="146.38" y1="90.0711" x2="157.688" y2="114.104" gradientUnits="userSpaceOnUse">
<stop stop-color="white" stop-opacity="0.27"/>
<stop offset="1" stop-color="white" stop-opacity="0.49"/>
</linearGradient>
</defs>
</svg>
