<svg width="24" height="24" viewBox="0 0 24 24" fill="none" xmlns="http://www.w3.org/2000/svg">
<path fill-rule="evenodd" clip-rule="evenodd" d="M8.70703 4.707C8.88919 4.5184 8.98998 4.26579 8.9877 4.0036C8.98543 3.7414 8.88026 3.49059 8.69485 3.30518C8.50944 3.11977 8.25863 3.0146 7.99643 3.01232C7.73423 3.01005 7.48163 3.11084 7.29303 3.293L2.29303 8.293C2.10556 8.48053 2.00024 8.73483 2.00024 9C2.00024 9.26516 2.10556 9.51947 2.29303 9.707L7.29303 14.707C7.48163 14.8892 7.73423 14.99 7.99643 14.9877C8.25863 14.9854 8.50944 14.8802 8.69485 14.6948C8.88026 14.5094 8.98543 14.2586 8.9877 13.9964C8.98998 13.7342 8.88919 13.4816 8.70703 13.293L4.41403 9L8.70703 4.707ZM13.707 4.707C13.8892 4.5184 13.99 4.26579 13.9877 4.0036C13.9854 3.7414 13.8803 3.49059 13.6948 3.30518C13.5094 3.11977 13.2586 3.0146 12.9964 3.01232C12.7342 3.01005 12.4816 3.11084 12.293 3.293L7.29303 8.293C7.10556 8.48053 7.00024 8.73483 7.00024 9C7.00024 9.26516 7.10556 9.51947 7.29303 9.707L12.293 14.707C12.4816 14.8892 12.7342 14.99 12.9964 14.9877C13.2586 14.9854 13.5094 14.8802 13.6948 14.6948C13.8803 14.5094 13.9854 14.2586 13.9877 13.9964C13.99 13.7342 13.8892 13.4816 13.707 13.293L10.414 10H14C15.5913 10 17.1175 10.6321 18.2427 11.7574C19.3679 12.8826 20 14.4087 20 16V20C20 20.2652 20.1054 20.5196 20.2929 20.7071C20.4805 20.8946 20.7348 21 21 21C21.2652 21 21.5196 20.8946 21.7071 20.7071C21.8947 20.5196 22 20.2652 22 20V16C22 13.8783 21.1572 11.8434 19.6569 10.3431C18.1566 8.84285 16.1218 8 14 8H10.414L13.707 4.707Z" fill="#FF0000"/>
</svg>
