<svg width="150" height="151" viewBox="0 0 150 151" fill="none" xmlns="http://www.w3.org/2000/svg">
<path fill-rule="evenodd" clip-rule="evenodd" d="M23.4365 40.8311C23.4365 31.7701 30.7819 24.4248 39.8428 24.4248L74.999 24.4248C84.0599 24.4248 91.4053 31.7701 91.4053 40.8311V51.3779C91.4053 52.6723 90.3559 53.7217 89.0615 53.7217C87.7671 53.7217 86.7178 52.6723 86.7178 51.3779L86.7178 40.8311C86.7178 34.359 81.4711 29.1123 74.999 29.1123L39.8428 29.1123C33.3707 29.1123 28.124 34.359 28.124 40.8311L28.124 111.144C28.124 117.616 33.3707 122.862 39.8428 122.862L74.999 122.862C81.4711 122.862 86.7178 117.616 86.7178 111.144V100.597C86.7178 99.3023 87.7671 98.2529 89.0615 98.2529C90.3559 98.2529 91.4053 99.3023 91.4053 100.597V111.144C91.4053 120.204 84.0599 127.55 74.999 127.55L39.8428 127.55C30.7819 127.55 23.4365 120.204 23.4365 111.144L23.4365 40.8311ZM75.1915 101.082C74.2762 101.997 72.7922 101.997 71.8769 101.082L50.9254 80.1305C48.6371 77.8422 48.6371 74.1323 50.9254 71.8441L71.8769 50.8926C72.7922 49.9773 74.2761 49.9773 75.1914 50.8926C76.1067 51.8078 76.1067 53.2918 75.1914 54.2071L55.7551 73.6434L124.218 73.6434C125.512 73.6434 126.562 74.6927 126.562 75.9872C126.562 77.2816 125.512 78.3309 124.218 78.3309L55.7549 78.3309L75.1915 97.7675C76.1068 98.6827 76.1068 100.167 75.1915 101.082Z" fill="#3210FF"/>
</svg>
