<svg width="200" height="200" viewBox="0 0 200 200" fill="none" xmlns="http://www.w3.org/2000/svg">
<g clip-path="url(#clip0_844_184)">
<path d="M197.454 163.185L170.814 130.796C178.073 119.06 182.405 104.505 182.405 88.7029C182.405 50.0757 156.525 18.6102 124.717 18.6102C92.9089 18.6102 67.0672 50.0757 67.0672 88.7029C67.0672 127.33 92.9469 158.796 124.717 158.796C137.22 158.796 148.773 153.944 158.235 145.673L185.027 178.248C186.737 180.327 188.979 181.39 191.221 181.39C193.464 181.39 195.706 180.327 197.416 178.248C200.874 174.089 200.874 167.344 197.454 163.185ZM84.6244 88.7029C84.6244 61.8117 102.638 39.9106 124.755 39.9106C146.872 39.9106 164.886 61.8117 164.886 88.7029C164.886 115.594 146.872 137.495 124.755 137.495C102.6 137.495 84.6244 115.64 84.6244 88.7029Z" fill="url(#paint0_linear_844_184)"/>
</g>
<g filter="url(#filter0_b_844_184)">
<path d="M102.154 175.953C136.7 162.672 155.841 117.9 144.906 75.9526C133.97 34.0051 97.0993 10.7663 62.5525 24.0473C28.0057 37.3283 8.86503 82.0998 19.8006 124.047C30.7362 165.995 67.6069 189.234 102.154 175.953Z" fill="url(#paint1_linear_844_184)"/>
<path d="M141.033 77.4413C151.552 117.79 132.964 159.691 101.107 171.938C69.2505 184.185 34.1918 162.908 23.673 122.559C13.1542 82.2097 31.7425 40.3086 63.5991 28.0619C95.4557 15.8151 130.514 37.0924 141.033 77.4413Z" stroke="url(#paint2_linear_844_184)" stroke-width="8.29744"/>
</g>
<line x1="65.4406" y1="70.4067" x2="99.2645" y2="70.4067" stroke="url(#paint3_linear_844_184)" stroke-width="18.4387" stroke-linecap="round"/>
<line x1="65.4406" y1="92.3454" x2="99.2645" y2="92.3454" stroke="url(#paint4_linear_844_184)" stroke-width="18.4387" stroke-linecap="round"/>
<line x1="65.4406" y1="111.154" x2="77.5916" y2="111.154" stroke="url(#paint5_linear_844_184)" stroke-width="18.4387" stroke-linecap="round"/>
<defs>
<filter id="filter0_b_844_184" x="-77.3137" y="-73.7276" width="319.334" height="347.455" filterUnits="userSpaceOnUse" color-interpolation-filters="sRGB">
<feFlood flood-opacity="0" result="BackgroundImageFix"/>
<feGaussianBlur in="BackgroundImage" stdDeviation="47.0188"/>
<feComposite in2="SourceAlpha" operator="in" result="effect1_backgroundBlur_844_184"/>
<feBlend mode="normal" in="SourceGraphic" in2="effect1_backgroundBlur_844_184" result="shape"/>
</filter>
<linearGradient id="paint0_linear_844_184" x1="133.541" y1="18.6102" x2="133.541" y2="181.39" gradientUnits="userSpaceOnUse">
<stop stop-color="#0247F9"/>
<stop offset="1" stop-color="#FA00FF"/>
</linearGradient>
<linearGradient id="paint1_linear_844_184" x1="69.2058" y1="79.6053" x2="114.518" y2="154.233" gradientUnits="userSpaceOnUse">
<stop stop-color="white" stop-opacity="0.15"/>
<stop offset="1" stop-color="white" stop-opacity="0.12"/>
</linearGradient>
<linearGradient id="paint2_linear_844_184" x1="62.5525" y1="24.0473" x2="118.53" y2="169.657" gradientUnits="userSpaceOnUse">
<stop/>
<stop offset="0.0001" stop-color="white" stop-opacity="0.984375"/>
<stop offset="1" stop-color="white" stop-opacity="0.32"/>
</linearGradient>
<linearGradient id="paint3_linear_844_184" x1="50.3979" y1="79.6261" x2="115.657" y2="79.6261" gradientUnits="userSpaceOnUse">
<stop stop-color="white" stop-opacity="0.51"/>
<stop offset="1" stop-color="white" stop-opacity="0"/>
</linearGradient>
<linearGradient id="paint4_linear_844_184" x1="50.3979" y1="101.565" x2="115.657" y2="101.565" gradientUnits="userSpaceOnUse">
<stop stop-color="white" stop-opacity="0.51"/>
<stop offset="1" stop-color="white" stop-opacity="0"/>
</linearGradient>
<linearGradient id="paint5_linear_844_184" x1="52.8128" y1="120.374" x2="91.0096" y2="120.374" gradientUnits="userSpaceOnUse">
<stop stop-color="white" stop-opacity="0.51"/>
<stop offset="1" stop-color="white" stop-opacity="0"/>
</linearGradient>
<clipPath id="clip0_844_184">
<rect width="132.933" height="162.78" fill="white" transform="translate(67.0672 18.6104)"/>
</clipPath>
</defs>
</svg>
