<svg width="200" height="200" viewBox="0 0 200 200" fill="none" xmlns="http://www.w3.org/2000/svg">
<path d="M130.917 105.917C139.087 99.4888 145.05 90.6744 147.977 80.6995C150.904 70.7247 150.649 60.0856 147.248 50.2622C143.847 40.4389 137.469 31.9199 129.001 25.8905C120.532 19.861 110.395 16.6209 100 16.6209C89.6046 16.6209 79.4676 19.861 70.9994 25.8905C62.5312 31.9199 56.1529 40.4389 52.7518 50.2622C49.3507 60.0856 49.0959 70.7247 52.023 80.6995C54.9501 90.6744 60.9134 99.4888 69.0833 105.917C55.084 111.525 42.8691 120.828 33.7408 132.833C24.6125 144.837 18.913 159.094 17.25 174.083C17.1296 175.178 17.226 176.285 17.5335 177.342C17.8411 178.399 18.3539 179.385 19.0426 180.244C20.4335 181.979 22.4565 183.09 24.6667 183.333C26.8768 183.576 29.093 182.932 30.8277 181.541C32.5624 180.15 33.6736 178.127 33.9167 175.917C35.7465 159.627 43.5141 144.582 55.7352 133.657C67.9563 122.731 83.7742 116.692 100.167 116.692C116.559 116.692 132.377 122.731 144.598 133.657C156.819 144.582 164.587 159.627 166.417 175.917C166.643 177.964 167.62 179.855 169.159 181.225C170.698 182.595 172.69 183.346 174.75 183.333H175.667C177.851 183.082 179.848 181.977 181.221 180.26C182.595 178.543 183.234 176.353 183 174.167C181.329 159.135 175.599 144.842 166.424 132.818C157.249 120.795 144.974 111.496 130.917 105.917V105.917ZM100 100C93.4073 100 86.9626 98.0451 81.481 94.3823C75.9994 90.7196 71.7269 85.5137 69.204 79.4228C66.6811 73.3319 66.021 66.6297 67.3072 60.1637C68.5933 53.6976 71.768 47.7582 76.4298 43.0965C81.0915 38.4347 87.031 35.26 93.497 33.9738C99.963 32.6877 106.665 33.3478 112.756 35.8707C118.847 38.3936 124.053 42.666 127.716 48.1477C131.378 53.6293 133.333 60.074 133.333 66.6667C133.333 75.5072 129.821 83.9857 123.57 90.2369C117.319 96.4881 108.841 100 100 100Z" fill="#000AFF"/>
</svg>
