<svg width="200" height="200" viewBox="0 0 200 200" fill="none" xmlns="http://www.w3.org/2000/svg">
<path fill-rule="evenodd" clip-rule="evenodd" d="M66.6667 75.0036C66.6667 66.1627 70.1786 57.6838 76.4298 51.4323C82.681 45.1808 91.1594 41.6687 100 41.6687C108.841 41.6687 117.319 45.1808 123.57 51.4323C129.821 57.6838 133.333 66.1627 133.333 75.0036C133.333 83.8446 129.821 92.3235 123.57 98.575C117.319 104.827 108.841 108.339 100 108.339C91.1594 108.339 82.681 104.827 76.4298 98.575C70.1786 92.3235 66.6667 83.8446 66.6667 75.0036V75.0036ZM131.867 113.531C139.796 106.971 145.508 98.1239 148.224 88.1973C150.939 78.2708 150.526 67.7481 147.04 58.0652C143.554 48.3823 137.166 40.0108 128.746 34.0933C120.327 28.1757 110.287 25.0002 99.9958 25.0002C89.705 25.0002 79.6649 28.1757 71.2455 34.0933C62.8261 40.0108 56.4376 48.3823 52.9517 58.0652C49.4659 67.7481 49.0525 78.2708 51.7681 88.1973C54.4836 98.1239 60.1957 106.971 68.125 113.531C41.55 122.889 25 143.732 25 166.675C25 168.885 25.878 171.005 27.4408 172.568C29.0036 174.131 31.1232 175.009 33.3333 175.009C35.5435 175.009 37.6631 174.131 39.2259 172.568C40.7887 171.005 41.6667 168.885 41.6667 166.675C41.6667 147.757 61.2917 125.006 100 125.006C138.708 125.006 158.333 147.757 158.333 166.675C158.333 168.885 159.211 171.005 160.774 172.568C162.337 174.131 164.457 175.009 166.667 175.009C168.877 175.009 170.996 174.131 172.559 172.568C174.122 171.005 175 168.885 175 166.675C175 143.732 158.467 122.889 131.867 113.531Z" fill="#FF3E00"/>
</svg>
