<svg width="200" height="200" viewBox="0 0 200 200" fill="none" xmlns="http://www.w3.org/2000/svg">
<g clip-path="url(#clip0_844_169)">
<path d="M127.366 86.5968C148.985 86.5968 166.509 70.7655 166.509 51.2366C166.509 31.7077 148.985 15.8764 127.366 15.8764C105.748 15.8764 88.2234 31.7077 88.2234 51.2366C88.2234 70.7655 105.748 86.5968 127.366 86.5968Z" fill="url(#paint0_linear_844_169)"/>
<path d="M127.366 101.319C87.2814 101.319 54.78 130.68 54.78 166.891C54.78 176.38 63.3057 184.082 73.8098 184.082H180.923C191.427 184.082 200 176.38 200 166.891C200 130.68 167.499 101.319 127.366 101.319Z" fill="url(#paint1_linear_844_169)"/>
</g>
<g filter="url(#filter0_b_844_169)">
<g clip-path="url(#clip1_844_169)">
<path d="M114.343 43.9841C120.004 60.1401 110.18 77.9568 91.455 83.3125C72.7296 88.6681 53.3466 79.2051 47.6854 63.049C42.0242 46.8929 51.8482 29.0763 70.5736 23.7206C89.2989 18.3649 108.682 27.828 114.343 43.9841Z" fill="url(#paint2_linear_844_169)" stroke="url(#paint3_linear_844_169)" stroke-width="8.29744"/>
<path d="M85.0206 64.9495C92.0103 62.9503 95.8829 56.211 93.6704 49.8968C91.4578 43.5826 83.9979 40.0846 77.0083 42.0837C70.0186 44.0829 66.1459 50.8222 68.3585 57.1364C70.571 63.4506 78.0309 66.9486 85.0206 64.9495Z" fill="url(#paint4_linear_844_169)"/>
<path d="M54.4378 182.43C43.2036 150.369 62.7861 115.571 99.1173 105.179C135.495 94.7749 173.675 113.055 184.908 145.113C187.211 151.686 183.224 159.319 175.081 161.648L72.9624 190.855C64.8327 193.18 56.745 189.014 54.4378 182.43Z" fill="url(#paint5_linear_844_169)" stroke="url(#paint6_linear_844_169)" stroke-width="8.29744"/>
<line x1="9.21937" y1="-9.21937" x2="50.2309" y2="-9.21937" transform="matrix(0.952561 -0.299335 0.409677 0.917535 83.2767 156.416)" stroke="url(#paint7_linear_844_169)" stroke-width="18.4387" stroke-linecap="round"/>
</g>
</g>
<defs>
<filter id="filter0_b_844_169" x="-58.0821" y="-58.0821" width="310.818" height="316.164" filterUnits="userSpaceOnUse" color-interpolation-filters="sRGB">
<feFlood flood-opacity="0" result="BackgroundImageFix"/>
<feGaussianBlur in="BackgroundImage" stdDeviation="29.041"/>
<feComposite in2="SourceAlpha" operator="in" result="effect1_backgroundBlur_844_169"/>
<feBlend mode="normal" in="SourceGraphic" in2="effect1_backgroundBlur_844_169" result="shape"/>
</filter>
<linearGradient id="paint0_linear_844_169" x1="127.366" y1="15.8764" x2="127.366" y2="86.5968" gradientUnits="userSpaceOnUse">
<stop stop-color="#FAFF00"/>
<stop offset="1" stop-color="#FFBC58"/>
</linearGradient>
<linearGradient id="paint1_linear_844_169" x1="127.39" y1="101.319" x2="127.39" y2="184.082" gradientUnits="userSpaceOnUse">
<stop stop-color="#FAFF00"/>
<stop offset="1" stop-color="#FFBC58"/>
</linearGradient>
<linearGradient id="paint2_linear_844_169" x1="42.717" y1="93.5911" x2="109.209" y2="48.6145" gradientUnits="userSpaceOnUse">
<stop stop-color="white" stop-opacity="0.1"/>
<stop offset="1" stop-color="white" stop-opacity="0.23"/>
</linearGradient>
<linearGradient id="paint3_linear_844_169" x1="69.2016" y1="19.8053" x2="88.8136" y2="88.3756" gradientUnits="userSpaceOnUse">
<stop stop-color="white"/>
<stop offset="1" stop-color="white" stop-opacity="0"/>
</linearGradient>
<linearGradient id="paint4_linear_844_169" x1="77.0083" y1="42.0837" x2="83.6595" y2="65.3388" gradientUnits="userSpaceOnUse">
<stop stop-color="white" stop-opacity="0.67"/>
<stop offset="1" stop-color="white" stop-opacity="0"/>
</linearGradient>
<linearGradient id="paint5_linear_844_169" x1="144.207" y1="172.01" x2="74.0272" y2="107.635" gradientUnits="userSpaceOnUse">
<stop stop-color="white" stop-opacity="0.1"/>
<stop offset="1" stop-color="white" stop-opacity="0.23"/>
</linearGradient>
<linearGradient id="paint6_linear_844_169" x1="97.7678" y1="101.258" x2="120.719" y2="181.504" gradientUnits="userSpaceOnUse">
<stop stop-color="white"/>
<stop offset="1" stop-color="white" stop-opacity="0"/>
</linearGradient>
<linearGradient id="paint7_linear_844_169" x1="-6.62411" y1="0" x2="67.6101" y2="0" gradientUnits="userSpaceOnUse">
<stop stop-color="white" stop-opacity="0.67"/>
<stop offset="1" stop-color="white" stop-opacity="0"/>
</linearGradient>
<clipPath id="clip0_844_169">
<rect width="145.22" height="168.248" fill="white" transform="translate(54.7799 15.8762)"/>
</clipPath>
<clipPath id="clip1_844_169">
<rect width="143.999" height="169.965" fill="white" transform="matrix(0.961448 -0.274986 0.330693 0.943738 0 39.5978)"/>
</clipPath>
</defs>
</svg>
