<svg width="100" height="100" viewBox="0 0 100 100" fill="none" xmlns="http://www.w3.org/2000/svg">
<path d="M65.4583 34.5417C65.071 34.1512 64.6102 33.8412 64.1024 33.6296C63.5947 33.4181 63.0501 33.3092 62.5 33.3092C61.95 33.3092 61.4053 33.4181 60.8976 33.6296C60.3899 33.8412 59.929 34.1512 59.5417 34.5417L50 44.125L40.4583 34.5417C39.6737 33.7571 38.6096 33.3163 37.5 33.3163C36.3904 33.3163 35.3263 33.7571 34.5417 34.5417C33.7571 35.3263 33.3163 36.3904 33.3163 37.5C33.3163 38.6096 33.7571 39.6738 34.5417 40.4584L44.125 50L34.5417 59.5417C34.1511 59.929 33.8412 60.3899 33.6296 60.8976C33.4181 61.4054 33.3092 61.95 33.3092 62.5C33.3092 63.0501 33.4181 63.5947 33.6296 64.1024C33.8412 64.6102 34.1511 65.071 34.5417 65.4584C34.929 65.8489 35.3899 66.1589 35.8976 66.3704C36.4053 66.5819 36.95 66.6909 37.5 66.6909C38.0501 66.6909 38.5947 66.5819 39.1024 66.3704C39.6102 66.1589 40.071 65.8489 40.4583 65.4584L50 55.875L59.5417 65.4584C59.929 65.8489 60.3899 66.1589 60.8976 66.3704C61.4053 66.5819 61.95 66.6909 62.5 66.6909C63.0501 66.6909 63.5947 66.5819 64.1024 66.3704C64.6102 66.1589 65.071 65.8489 65.4583 65.4584C65.8489 65.071 66.1588 64.6102 66.3704 64.1024C66.5819 63.5947 66.6908 63.0501 66.6908 62.5C66.6908 61.95 66.5819 61.4054 66.3704 60.8976C66.1588 60.3899 65.8489 59.929 65.4583 59.5417L55.875 50L65.4583 40.4584C65.8489 40.071 66.1588 39.6102 66.3704 39.1024C66.5819 38.5947 66.6908 38.0501 66.6908 37.5C66.6908 36.95 66.5819 36.4054 66.3704 35.8976C66.1588 35.3899 65.8489 34.929 65.4583 34.5417V34.5417ZM79.4583 20.5417C75.6147 16.5621 71.017 13.3878 65.9335 11.2041C60.85 9.02043 55.3825 7.871 49.8501 7.82292C44.3176 7.77485 38.8309 8.82909 33.7103 10.9241C28.5896 13.0192 23.9374 16.113 20.0252 20.0252C16.113 23.9374 13.0191 28.5896 10.9241 33.7103C8.82906 38.831 7.77482 44.3176 7.8229 49.8501C7.87098 55.3826 9.0204 60.8501 11.2041 65.9336C13.3878 71.0171 16.5621 75.6147 20.5417 79.4584C24.3853 83.438 28.983 86.6122 34.0665 88.7959C39.15 90.9796 44.6175 92.1291 50.15 92.1771C55.6824 92.2252 61.1691 91.171 66.2898 89.0759C71.4104 86.9809 76.0626 83.887 79.9748 79.9748C83.887 76.0626 86.9809 71.4105 89.0759 66.2898C91.171 61.1691 92.2252 55.6824 92.1771 50.15C92.129 44.6175 90.9796 39.15 88.7959 34.0665C86.6122 28.983 83.4379 24.3853 79.4583 20.5417V20.5417ZM73.5833 73.5834C68.1335 79.0393 60.9606 82.4368 53.2866 83.1972C45.6127 83.9575 37.9125 82.0336 31.498 77.7533C25.0835 73.4729 20.3515 67.1009 18.1082 59.7229C15.865 52.3449 16.2492 44.4173 19.1955 37.2908C22.1418 30.1643 27.4678 24.2798 34.2662 20.6399C41.0646 16.9999 48.9148 15.8297 56.4792 17.3287C64.0436 18.8276 70.8544 22.9029 75.751 28.8603C80.6477 34.8177 83.3273 42.2885 83.3333 50C83.3482 54.3804 82.4941 58.7202 80.8205 62.7683C79.147 66.8164 76.6871 70.4923 73.5833 73.5834V73.5834Z" fill="#FF0000"/>
</svg>
