<svg width="250" height="250" viewBox="0 0 250 250" fill="none" xmlns="http://www.w3.org/2000/svg">
<path d="M125 0C56.0791 0 0 56.0791 0 125C0 193.921 56.0791 250 125 250C193.921 250 250 193.921 250 125C250 56.0791 193.921 0 125 0ZM125 18.75C183.789 18.75 231.25 66.2109 231.25 125C231.25 183.789 183.789 231.25 125 231.25C66.2109 231.25 18.75 183.789 18.75 125C18.75 66.2109 66.2109 18.75 125 18.75ZM124.854 62.3779C119.678 62.4512 115.552 66.6992 115.625 71.875V115.625H71.875C68.5059 115.576 65.3564 117.358 63.6475 120.264C61.9385 123.193 61.9385 126.807 63.6475 129.736C65.3564 132.642 68.5059 134.424 71.875 134.375H115.625V178.125C115.576 181.494 117.358 184.644 120.264 186.353C123.193 188.062 126.807 188.062 129.736 186.353C132.642 184.644 134.424 181.494 134.375 178.125V134.375H178.125C181.494 134.424 184.644 132.642 186.353 129.736C188.062 126.807 188.062 123.193 186.353 120.264C184.644 117.358 181.494 115.576 178.125 115.625H134.375V71.875C134.399 69.3359 133.423 66.8945 131.616 65.1123C129.834 63.3057 127.393 62.3291 124.854 62.3779Z" fill="#2461FF"/>
</svg>
