<svg width="20" height="20" viewBox="0 0 20 20" fill="none" xmlns="http://www.w3.org/2000/svg">
<path fill-rule="evenodd" clip-rule="evenodd" d="M2.22203 9.293C1.74804 8.83094 1.37051 8.27936 1.11135 7.67026C0.852196 7.06116 0.716563 6.40666 0.712322 5.74474C0.708081 5.08281 0.835316 4.42663 1.08665 3.81425C1.33798 3.20188 1.70841 2.64551 2.17644 2.17742C2.64447 1.70932 3.20078 1.33882 3.81312 1.0874C4.42546 0.835979 5.08162 0.708651 5.74355 0.712798C6.40548 0.716946 7.05999 0.852486 7.66913 1.11156C8.27827 1.37063 8.8299 1.74808 9.29203 2.222L16.364 9.292C16.6427 9.5706 16.8638 9.90136 17.0146 10.2654C17.1654 10.6294 17.2431 11.0196 17.2431 11.4136C17.2432 11.8077 17.1656 12.1979 17.0149 12.562C16.8641 12.926 16.6431 13.2568 16.3645 13.5355C16.0859 13.8142 15.7552 14.0352 15.3911 14.1861C15.0271 14.3369 14.6369 14.4146 14.2429 14.4146C13.8488 14.4147 13.4586 14.3371 13.0946 14.1863C12.7305 14.0356 12.3997 13.8146 12.121 13.536L5.05103 6.464C4.95177 6.37278 4.87199 6.26242 4.81647 6.13958C4.76095 6.01674 4.73084 5.88393 4.72795 5.74916C4.72506 5.61438 4.74946 5.48041 4.79967 5.3553C4.84987 5.23019 4.92486 5.11652 5.02012 5.02113C5.11537 4.92574 5.22893 4.85059 5.35397 4.80021C5.47901 4.74982 5.61294 4.72524 5.74773 4.72794C5.88251 4.73063 6.01535 4.76056 6.13827 4.8159C6.2612 4.87125 6.37166 4.95088 6.46303 5.05L13.535 12.121C13.7236 12.3032 13.9762 12.404 14.2384 12.4017C14.5006 12.3994 14.7514 12.2942 14.9368 12.1088C15.1223 11.9234 15.2274 11.6726 15.2297 11.4104C15.232 11.1482 15.1312 10.8956 14.949 10.707L7.87903 3.636C7.31637 3.07334 6.55324 2.75725 5.75753 2.75725C4.96181 2.75725 4.19868 3.07334 3.63603 3.636C3.07337 4.19866 2.75727 4.96178 2.75727 5.7575C2.75727 6.55322 3.07337 7.31634 3.63603 7.879L12.121 16.364C12.4933 16.7366 12.9571 17.0046 13.4659 17.1411C13.9746 17.2776 14.5103 17.2777 15.0191 17.1415C15.5279 17.0053 15.9919 16.7375 16.3644 16.3651C16.7368 15.9927 17.0047 15.5288 17.141 15.02C17.2106 14.7649 17.3783 14.5477 17.6076 14.416C17.8368 14.2842 18.1089 14.2486 18.3643 14.317C18.6197 14.3853 18.8377 14.5521 18.9705 14.7807C19.1033 15.0093 19.1402 15.2813 19.073 15.537C18.846 16.385 18.3998 17.1583 17.7791 17.7791C17.1585 18.3999 16.3853 18.8464 15.5374 19.0736C14.6895 19.3008 13.7966 19.3008 12.9487 19.0736C12.1008 18.8463 11.3277 18.3998 10.707 17.779L2.22203 9.293V9.293Z" fill="black"/>
</svg>
