<svg width="18" height="19" viewBox="0 0 18 19" fill="none" xmlns="http://www.w3.org/2000/svg">
<path fill-rule="evenodd" clip-rule="evenodd" d="M0 3.99747C0 3.20182 0.316071 2.43876 0.87868 1.87615C1.44129 1.31354 2.20435 0.997467 3 0.997467H15C15.7956 0.997467 16.5587 1.31354 17.1213 1.87615C17.6839 2.43876 18 3.20182 18 3.99747V15.9975C18 16.7931 17.6839 17.5562 17.1213 18.1188C16.5587 18.6814 15.7956 18.9975 15 18.9975H3C2.20435 18.9975 1.44129 18.6814 0.87868 18.1188C0.316071 17.5562 0 16.7931 0 15.9975V3.99747ZM16 3.99747V12.5835L12.707 9.29047C12.5195 9.103 12.2652 8.99768 12 8.99768C11.7348 8.99768 11.4805 9.103 11.293 9.29047L10 10.5835L6.207 6.79047C6.01947 6.603 5.76516 6.49768 5.5 6.49768C5.23484 6.49768 4.98053 6.603 4.793 6.79047L2 9.58347V3.99747C2 3.73225 2.10536 3.4779 2.29289 3.29036C2.48043 3.10282 2.73478 2.99747 3 2.99747H15C15.2652 2.99747 15.5196 3.10282 15.7071 3.29036C15.8946 3.4779 16 3.73225 16 3.99747ZM2 15.9975V12.4115L5.5 8.91147L9.293 12.7045C9.48053 12.8919 9.73484 12.9973 10 12.9973C10.2652 12.9973 10.5195 12.8919 10.707 12.7045L12 11.4115L16 15.4115V15.9975C16 16.2627 15.8946 16.517 15.7071 16.7046C15.5196 16.8921 15.2652 16.9975 15 16.9975H3C2.73478 16.9975 2.48043 16.8921 2.29289 16.7046C2.10536 16.517 2 16.2627 2 15.9975ZM11.5 7.99747C11.8978 7.99747 12.2794 7.83943 12.5607 7.55813C12.842 7.27682 13 6.89529 13 6.49747C13 6.09964 12.842 5.71811 12.5607 5.43681C12.2794 5.1555 11.8978 4.99747 11.5 4.99747C11.1022 4.99747 10.7206 5.1555 10.4393 5.43681C10.158 5.71811 10 6.09964 10 6.49747C10 6.89529 10.158 7.27682 10.4393 7.55813C10.7206 7.83943 11.1022 7.99747 11.5 7.99747Z" fill="black"/>
</svg>
