<svg width="400" height="400" viewBox="0 0 400 400" fill="none" xmlns="http://www.w3.org/2000/svg">
<rect x="400" y="400" width="400" height="400" rx="20" transform="rotate(-180 400 400)" fill="url(#paint0_linear_844_241)"/>
<circle cx="200" cy="141" r="100" fill="#CB75FF"/>
<path d="M165.211 175.793C155.996 170.966 135.258 142.56 135.258 115.448C135.258 93.7241 149.082 74.4138 158.299 74.4138C167.517 74.4138 174.677 100.751 169.82 115.448C167.228 123.293 158.299 139.586 166.939 163.724C172.125 178.207 165.211 175.793 165.211 175.793Z" fill="#FFBBDD"/>
<path d="M158.299 76.8276C149.082 76.8276 135.258 91.3103 135.258 113.034C135.258 125.268 139.485 137.754 144.965 148.225C150.276 145.493 152.799 138.831 150.57 132.9C147.901 125.799 146.548 119.115 146.548 113.034C146.548 102.1 151.146 94.3131 155.447 90.6707C159.415 87.3131 160.65 81.6962 158.927 76.9C158.717 76.871 158.512 76.8276 158.299 76.8276Z" fill="#F7A1C8"/>
<path d="M166.23 178.359C165.34 178.359 164.658 178.139 164.511 178.089L164.22 177.963C154.684 172.967 133 144.17 133 115.448C133 91.8728 147.985 72 158.299 72C161.77 72 165.053 74.1893 167.795 78.3338C172.674 85.7079 175.788 104.637 171.949 116.252C171.599 117.312 171.136 118.523 170.617 119.885C167.343 128.449 161.863 142.782 169.05 162.862C171.606 170.002 171.8 174.449 169.662 176.85C168.583 178.06 167.266 178.359 166.23 178.359ZM165.997 173.512C166.155 173.536 166.343 173.536 166.413 173.502C166.404 173.502 167.469 171.953 164.832 164.588C157.005 142.724 163.141 126.68 166.437 118.06C166.925 116.783 167.363 115.644 167.693 114.647C170.904 104.929 168.393 87.5955 164.109 81.1217C162.276 78.3507 160.214 76.8276 158.299 76.8276C150.972 76.8276 137.516 94.4845 137.516 115.448C137.516 141.638 157.365 168.721 165.997 173.512Z" fill="#8D6C9F"/>
<path d="M160.849 176.196C160.849 176.196 150.825 165.1 154.075 146.224C155.56 137.585 161.601 132.144 169.129 116.655C166.871 123.897 161.461 143.509 164.425 160.707C162.872 165.836 163.107 166.541 160.849 176.196Z" fill="#7BBEEB"/>
<path d="M160.849 178.61C160.244 178.61 159.656 178.352 159.225 177.871C158.783 177.384 148.436 165.655 151.855 145.787C152.803 140.272 155.328 136.142 158.821 130.428C161.147 126.624 164.039 121.893 167.126 115.542C167.668 114.422 168.924 113.937 170.01 114.432C171.094 114.925 171.644 116.223 171.272 117.418C168.946 124.877 163.838 143.982 166.645 160.268C166.713 160.663 166.688 161.069 166.573 161.448C165.722 164.262 165.437 165.648 164.924 168.163C164.534 170.082 164.019 172.6 163.041 176.778C162.843 177.63 162.226 178.299 161.434 178.526C161.239 178.583 161.043 178.61 160.849 178.61ZM162.915 132.56C162.811 132.731 162.705 132.902 162.603 133.069C159.279 138.507 157.082 142.101 156.299 146.661C154.388 157.757 157.367 165.962 159.814 170.495C160.104 169.146 160.325 168.069 160.517 167.135C161.009 164.726 161.318 163.21 162.109 160.543C160.591 151.158 161.391 141.189 162.915 132.56Z" fill="#8D6C9F"/>
<path d="M240.789 175.793C250.004 170.966 270.742 142.56 270.742 115.448C270.742 93.7241 256.918 76.8276 247.701 76.8276C238.483 76.8276 231.323 100.751 236.18 115.448C238.772 123.293 247.701 139.586 239.061 163.724C233.875 178.207 240.789 175.793 240.789 175.793Z" fill="#FFBBDD"/>
<path d="M247.701 76.8276C256.918 76.8276 270.742 91.3103 270.742 113.034C270.742 125.268 266.515 137.754 261.035 148.225C255.724 145.493 253.201 138.831 255.43 132.9C258.099 125.799 259.452 119.115 259.452 113.034C259.452 102.1 254.854 94.3131 250.553 90.6707C246.585 87.3131 245.35 81.6962 247.073 76.9C247.283 76.871 247.488 76.8276 247.701 76.8276Z" fill="#F7A1C8"/>
<path d="M239.77 178.359C238.734 178.359 237.417 178.062 236.338 176.85C234.2 174.449 234.396 170.002 236.95 162.862C244.137 142.782 238.655 128.449 235.381 119.882C234.861 118.523 234.396 117.314 234.048 116.252C230.21 104.634 233.324 85.7055 238.203 78.3314C240.947 74.1893 244.23 72 247.701 72C258.015 72 273 91.8728 273 115.448C273 144.17 251.316 172.967 241.782 177.961L241.489 178.086C241.342 178.139 240.66 178.359 239.77 178.359ZM247.701 76.8276C245.786 76.8276 243.722 78.3507 241.893 81.1193C237.609 87.5931 235.096 104.924 238.309 114.644C238.639 115.641 239.075 116.778 239.563 118.055C242.859 126.675 248.997 142.722 241.17 164.586C238.531 171.965 239.603 173.507 239.615 173.519C239.662 173.543 239.847 173.539 240.005 173.512C248.635 168.721 268.484 141.638 268.484 115.448C268.484 94.4845 255.028 76.8276 247.701 76.8276Z" fill="#8D6C9F"/>
<path d="M244.429 176.196C244.429 176.196 254.346 163.512 251.099 144.636C249.613 135.997 243.677 130.938 236.151 115.448C238.409 122.69 243.819 143.509 240.854 160.707C242.405 165.836 242.171 166.541 244.429 176.196Z" fill="#7BBEEB"/>
<path d="M244.429 178.61C244.262 178.61 244.092 178.591 243.923 178.55C243.094 178.347 242.444 177.664 242.238 176.783C241.258 172.604 240.746 170.087 240.353 168.168C239.838 165.653 239.556 164.267 238.707 161.453C238.589 161.074 238.565 160.668 238.635 160.272C241.721 142.362 235.322 120.43 234.008 116.216C233.635 115.021 234.184 113.72 235.27 113.23C236.352 112.74 237.609 113.22 238.154 114.34C241.272 120.756 244.165 125.437 246.488 129.197C249.907 134.727 252.375 138.722 253.319 144.201C256.719 163.966 246.592 177.193 246.161 177.748C245.727 178.299 245.088 178.61 244.429 178.61ZM243.175 160.543C243.966 163.21 244.273 164.726 244.765 167.135C244.935 167.968 245.129 168.914 245.375 170.068C247.823 165.023 250.785 156.145 248.879 145.073C248.1 140.559 245.962 137.098 242.722 131.855C242.545 131.572 242.369 131.285 242.189 130.993C243.731 139.75 244.767 150.634 243.175 160.543Z" fill="#8D6C9F"/>
<path d="M248.161 181.828C248.161 199.931 225.953 209.586 204.129 209.586C182.305 209.586 160.097 199.931 160.097 181.828C160.097 151.655 182.305 125.103 204.129 125.103C225.953 125.103 248.161 154.069 248.161 181.828Z" fill="#7BBEEB"/>
<path d="M204.129 209.586C219.836 209.586 237.095 202.922 244.774 193.368C241.035 189.446 237.205 190.785 232.285 193.595C225.872 197.257 213.635 197.517 204.129 197.517C194.625 197.517 181.679 197.935 175.269 194.273C170.344 191.466 166.589 190.727 162.637 194.425C170.317 203.979 188.422 209.586 204.129 209.586Z" fill="#ACE3FF"/>
<path d="M203 212C179.437 212 155.581 201.635 155.581 181.828C155.581 151.431 178.624 122.69 203 122.69C226.488 122.69 250.419 152.534 250.419 181.828C250.419 201.635 226.565 212 203 212ZM203 127.517C181.004 127.517 160.207 153.912 160.207 181.828C160.207 198.29 182.255 207.172 203 207.172C223.747 207.172 245.793 198.29 245.793 181.828C245.793 155.433 223.797 127.517 203 127.517Z" fill="#8D6C9F"/>
<path d="M214.29 173.862C214.29 180.261 207.516 185.448 203 185.448C198.484 185.448 191.71 180.261 191.71 173.862C191.71 167.463 196.765 166.138 203 166.138C209.235 166.138 214.29 167.463 214.29 173.862Z" fill="#8D6C9F"/>
<path d="M203 187.862C197.545 187.862 189.452 181.982 189.452 173.862C189.452 163.724 199.649 163.724 203 163.724C206.351 163.724 216.548 163.724 216.548 173.862C216.548 181.982 208.455 187.862 203 187.862ZM203 168.552C194.665 168.552 193.968 171.176 193.968 173.862C193.968 178.745 199.597 183.034 203 183.034C206.403 183.034 212.032 178.748 212.032 173.862C212.032 171.176 211.335 168.552 203 168.552Z" fill="#8D6C9F"/>
<path d="M196.908 157.965C201.241 156.787 204.804 156.792 209.142 157.979Z" fill="white"/>
<path d="M209.144 160.393C208.959 160.393 208.769 160.369 208.582 160.318C204.635 159.242 201.41 159.234 197.463 160.306C196.248 160.634 195.025 159.852 194.72 158.559C194.415 157.265 195.144 155.954 196.352 155.623C201.026 154.356 205.019 154.359 209.702 155.64C210.91 155.971 211.637 157.287 211.33 158.578C211.068 159.667 210.149 160.393 209.144 160.393Z" fill="#ACE3FF"/>
<path d="M196.908 170.034C201.241 168.856 204.804 168.861 209.142 170.048Z" fill="#CDA1A7"/>
<path d="M209.144 172.462C208.959 172.462 208.769 172.438 208.582 172.387C204.635 171.311 201.41 171.303 197.463 172.375C196.248 172.699 195.025 171.921 194.72 170.628C194.415 169.334 195.144 168.023 196.352 167.692C201.026 166.423 205.019 166.428 209.702 167.709C210.91 168.04 211.637 169.356 211.33 170.647C211.068 171.736 210.149 172.462 209.144 172.462Z" fill="#D3A9B0"/>
<path d="M228.968 149.241C225.674 149.241 222.515 151.149 220.186 154.544C217.857 157.939 216.548 162.543 216.548 167.345C216.548 172.146 217.857 176.751 220.186 180.146C222.515 183.541 225.674 185.448 228.968 185.448C232.262 185.448 235.42 183.541 237.75 180.146C240.079 176.751 241.387 172.146 241.387 167.345C241.387 162.543 240.079 157.939 237.75 154.544C235.42 151.149 232.262 149.241 228.968 149.241ZM177.032 149.241C173.738 149.241 170.58 151.149 168.25 154.544C165.921 157.939 164.613 162.543 164.613 167.345C164.613 172.146 165.921 176.751 168.25 180.146C170.58 183.541 173.738 185.448 177.032 185.448C180.326 185.448 183.485 183.541 185.814 180.146C188.143 176.751 189.452 172.146 189.452 167.345C189.452 162.543 188.143 157.939 185.814 154.544C183.485 151.149 180.326 149.241 177.032 149.241Z" fill="#ACE3FF"/>
<path d="M228.968 156.483C227.471 156.483 226.035 157.627 224.976 159.664C223.917 161.701 223.323 164.464 223.323 167.345C223.323 170.226 223.917 172.988 224.976 175.025C226.035 177.063 227.471 178.207 228.968 178.207C230.465 178.207 231.901 177.063 232.959 175.025C234.018 172.988 234.613 170.226 234.613 167.345C234.613 164.464 234.018 161.701 232.959 159.664C231.901 157.627 230.465 156.483 228.968 156.483V156.483Z" fill="#8D6C9F"/>
<path d="M228.968 180.621C224.463 180.621 221.065 174.914 221.065 167.345C221.065 159.775 224.463 154.069 228.968 154.069C233.473 154.069 236.871 159.775 236.871 167.345C236.871 174.914 233.473 180.621 228.968 180.621ZM228.968 158.897C227.617 158.897 225.581 162.266 225.581 167.345C225.581 172.423 227.617 175.793 228.968 175.793C230.318 175.793 232.355 172.423 232.355 167.345C232.355 162.266 230.318 158.897 228.968 158.897Z" fill="#8D6C9F"/>
<path d="M228.968 156.483C228.069 156.483 227.208 156.864 226.573 157.543C225.937 158.222 225.581 159.143 225.581 160.103C225.581 161.064 225.937 161.985 226.573 162.664C227.208 163.343 228.069 163.724 228.968 163.724C229.866 163.724 230.728 163.343 231.363 162.664C231.998 161.985 232.355 161.064 232.355 160.103C232.355 159.143 231.998 158.222 231.363 157.543C230.728 156.864 229.866 156.483 228.968 156.483Z" fill="white"/>
<path d="M177.032 156.483C175.535 156.483 174.099 157.627 173.041 159.664C171.982 161.701 171.387 164.464 171.387 167.345C171.387 170.226 171.982 172.988 173.041 175.025C174.099 177.063 175.535 178.207 177.032 178.207C178.529 178.207 179.965 177.063 181.024 175.025C182.083 172.988 182.677 170.226 182.677 167.345C182.677 164.464 182.083 161.701 181.024 159.664C179.965 157.627 178.529 156.483 177.032 156.483V156.483Z" fill="#8D6C9F"/>
<path d="M177.032 180.621C172.527 180.621 169.129 174.914 169.129 167.345C169.129 159.775 172.527 154.069 177.032 154.069C181.537 154.069 184.935 159.775 184.935 167.345C184.935 174.914 181.537 180.621 177.032 180.621ZM177.032 158.897C175.684 158.897 173.645 162.266 173.645 167.345C173.645 172.423 175.684 175.793 177.032 175.793C178.38 175.793 180.419 172.423 180.419 167.345C180.419 162.266 178.38 158.897 177.032 158.897Z" fill="#8D6C9F"/>
<path d="M177.032 156.483C176.134 156.483 175.272 156.864 174.637 157.543C174.002 158.222 173.645 159.143 173.645 160.103C173.645 161.064 174.002 161.985 174.637 162.664C175.272 163.343 176.134 163.724 177.032 163.724C177.931 163.724 178.792 163.343 179.427 162.664C180.062 161.985 180.419 161.064 180.419 160.103C180.419 159.143 180.062 158.222 179.427 157.543C178.792 156.864 177.931 156.483 177.032 156.483Z" fill="white"/>
<path d="M184.852 199.933C180.738 199.933 176.249 198.794 170.188 194.737C169.131 194.027 168.811 192.54 169.475 191.408C170.134 190.278 171.529 189.938 172.586 190.645C180.866 196.192 185.075 195.437 191.439 194.317C194.388 193.793 197.73 193.199 201.912 193.199C206.08 193.199 209.643 193.773 212.786 194.278C219.906 195.429 225.048 196.252 233.416 190.645C234.473 189.936 235.864 190.278 236.53 191.408C237.192 192.54 236.871 194.027 235.816 194.737C226.028 201.292 219.274 200.206 212.116 199.052C208.984 198.546 205.746 198.024 201.914 198.024C198.105 198.024 195.092 198.56 192.182 199.077C189.695 199.516 187.343 199.933 184.852 199.933Z" fill="#8D6C9F"/>
<path d="M155.405 96.0389C154.887 96.0389 154.368 95.8506 153.944 95.4644L150.502 92.3386C149.552 91.4769 149.436 89.9513 150.245 88.9375C151.051 87.9189 152.476 87.7982 153.426 88.6624L156.868 91.7882C157.818 92.65 157.934 94.1755 157.125 95.1893C156.678 95.7517 156.044 96.0389 155.405 96.0389ZM150.76 104.992C150.525 104.992 150.285 104.951 150.051 104.869L145.763 103.353C144.579 102.935 143.936 101.569 144.329 100.304C144.719 99.0393 146 98.3513 147.181 98.7713L151.469 100.287C152.652 100.705 153.295 102.071 152.903 103.336C152.591 104.35 151.708 104.992 150.76 104.992ZM149.305 115.301C149.301 115.301 149.296 115.301 149.29 115.301L144.774 115.267C143.527 115.258 142.522 114.169 142.531 112.837C142.54 111.509 143.55 110.44 144.789 110.44C144.794 110.44 144.798 110.44 144.805 110.44L149.321 110.473C150.568 110.483 151.573 111.572 151.564 112.904C151.555 114.232 150.545 115.301 149.305 115.301ZM146.02 126.928C144.981 126.928 144.044 126.156 143.816 125.026C143.552 123.723 144.324 122.439 145.544 122.156L149.958 121.133C151.171 120.85 152.379 121.676 152.643 122.979C152.907 124.283 152.135 125.567 150.915 125.849L146.501 126.873C146.338 126.911 146.178 126.928 146.02 126.928Z" fill="#8D6C9F"/>
<path d="M250.595 96.0389C249.959 96.0389 249.322 95.7493 248.875 95.1893C248.069 94.1731 248.182 92.65 249.132 91.7858L252.571 88.66C253.515 87.7982 254.947 87.9165 255.753 88.9351C256.559 89.9513 256.446 91.4744 255.495 92.3386L252.056 95.4644C251.634 95.8507 251.115 96.0389 250.595 96.0389ZM255.24 104.992C254.292 104.992 253.409 104.35 253.097 103.333C252.704 102.069 253.348 100.702 254.531 100.285L258.817 98.7689C260.005 98.3465 261.281 99.0369 261.671 100.302C262.064 101.567 261.421 102.933 260.237 103.35L255.952 104.866C255.715 104.953 255.473 104.992 255.24 104.992ZM256.694 115.301C255.455 115.301 254.445 114.232 254.436 112.904C254.427 111.572 255.43 110.483 256.679 110.473L261.195 110.44C261.199 110.44 261.206 110.44 261.211 110.44C262.45 110.44 263.46 111.509 263.469 112.837C263.478 114.169 262.475 115.258 261.226 115.267L256.71 115.301C256.706 115.301 256.699 115.301 256.694 115.301ZM259.98 126.928C259.822 126.928 259.659 126.911 259.499 126.873L255.087 125.849C253.867 125.567 253.093 124.283 253.357 122.979C253.621 121.678 254.832 120.853 256.042 121.133L260.454 122.156C261.674 122.439 262.448 123.723 262.184 125.026C261.956 126.156 261.019 126.928 259.98 126.928Z" fill="#8D6C9F"/>
<path d="M205.26 127.517C204.574 127.517 203.896 127.184 203.452 126.552L196.677 116.897C195.928 115.83 196.131 114.316 197.129 113.517C198.132 112.716 199.543 112.936 200.29 114L207.065 123.655C207.814 124.722 207.611 126.236 206.613 127.035C206.206 127.36 205.732 127.517 205.26 127.517Z" fill="#8D6C9F"/>
<path d="M209.774 127.517C208.828 127.517 207.947 126.878 207.634 125.866L205.375 118.625C204.98 117.36 205.619 115.994 206.803 115.571C207.993 115.147 209.264 115.835 209.659 117.097L211.917 124.338C212.312 125.603 211.673 126.969 210.49 127.392C210.251 127.479 210.009 127.517 209.774 127.517Z" fill="#8D6C9F"/>
<path d="M200.74 127.517C200.345 127.517 199.943 127.406 199.579 127.172L188.289 119.931C187.218 119.245 186.873 117.763 187.514 116.619C188.155 115.475 189.54 115.105 190.612 115.791L201.903 123.032C202.973 123.718 203.318 125.2 202.677 126.344C202.255 127.1 201.507 127.517 200.74 127.517Z" fill="#8D6C9F"/>
<path d="M196.928 137.643C195.894 137.643 194.959 136.878 194.726 135.753C194.455 134.452 195.223 133.163 196.44 132.873C197.913 132.523 199.358 132.345 200.742 132.345C201.988 132.345 203 133.426 203 134.759C203 136.091 201.988 137.172 200.742 137.172C199.687 137.172 198.572 137.312 197.42 137.585C197.255 137.624 197.091 137.643 196.928 137.643Z" fill="#8D6C9F"/>
<path d="M184.468 144.718C183.865 144.718 183.262 144.462 182.817 143.953C181.966 142.978 182.016 141.45 182.926 140.54C184.497 138.971 186.701 137.305 188.975 135.97C190.07 135.328 191.441 135.755 192.042 136.924C192.642 138.092 192.243 139.56 191.15 140.202C189.221 141.334 187.3 142.78 186.01 144.069C185.575 144.503 185.021 144.718 184.468 144.718Z" fill="#8D6C9F"/>
<defs>
<linearGradient id="paint0_linear_844_241" x1="400" y1="600" x2="800" y2="600" gradientUnits="userSpaceOnUse">
<stop stop-color="#03001E"/>
<stop offset="0.333333" stop-color="#7303C0"/>
<stop offset="0.666667" stop-color="#EC38BC"/>
<stop offset="1" stop-color="#FDEFF9"/>
</linearGradient>
</defs>
</svg>
