<svg width="1540" height="1287" viewBox="0 0 1540 1287" fill="none" xmlns="http://www.w3.org/2000/svg">
<mask id="mask0_936_83" style="mask-type:alpha" maskUnits="userSpaceOnUse" x="207" y="-95" width="1148" height="1148">
<circle cx="781.19" cy="478.854" r="573.061" transform="rotate(-75 781.19 478.854)" fill="url(#paint0_linear_936_83)"/>
</mask>
<g mask="url(#mask0_936_83)">
<g style="mix-blend-mode:hard-light" filter="url(#filter0_f_936_83)">
<circle cx="781.19" cy="478.854" r="573.061" transform="rotate(-75 781.19 478.854)" fill="url(#paint1_linear_936_83)"/>
</g>
<g style="mix-blend-mode:hard-light" filter="url(#filter1_f_936_83)">
<circle cx="589.125" cy="149.364" r="367.434" transform="rotate(-35.3305 589.125 149.364)" fill="url(#paint2_linear_936_83)"/>
</g>
<g style="mix-blend-mode:hard-light" filter="url(#filter2_f_936_83)">
<circle cx="444.568" cy="612.651" r="159.124" transform="rotate(45 444.568 612.651)" fill="url(#paint3_linear_936_83)"/>
</g>
<g style="mix-blend-mode:hard-light" filter="url(#filter3_f_936_83)">
<circle cx="735.061" cy="648.609" r="159.124" transform="rotate(-15 735.061 648.609)" fill="url(#paint4_linear_936_83)"/>
</g>
<g style="mix-blend-mode:hard-light" filter="url(#filter4_f_936_83)">
<circle cx="1295.81" cy="335.872" r="159.124" transform="rotate(-15 1295.81 335.872)" fill="url(#paint5_linear_936_83)"/>
</g>
<g style="mix-blend-mode:hard-light" filter="url(#filter5_f_936_83)">
<circle cx="283.334" cy="346.097" r="159.124" transform="rotate(-15 283.334 346.097)" fill="url(#paint6_linear_936_83)"/>
</g>
<g style="mix-blend-mode:hard-light" filter="url(#filter6_f_936_83)">
<circle cx="1077.31" cy="228.988" r="367.434" transform="rotate(-106.472 1077.31 228.988)" fill="url(#paint7_linear_936_83)"/>
</g>
<g style="mix-blend-mode:hard-light" filter="url(#filter7_f_936_83)">
<circle cx="1064.13" cy="721.017" r="367.434" transform="rotate(-116.597 1064.13 721.017)" fill="url(#paint8_linear_936_83)"/>
</g>
<g style="mix-blend-mode:overlay" filter="url(#filter8_f_936_83)">
<circle cx="772.759" cy="931.44" r="367.434" transform="rotate(-112.311 772.759 931.44)" fill="url(#paint9_linear_936_83)"/>
</g>
<g style="mix-blend-mode:overlay" filter="url(#filter9_f_936_83)">
<circle cx="1192.25" cy="590.161" r="367.434" transform="rotate(-75 1192.25 590.161)" fill="url(#paint10_linear_936_83)"/>
</g>
<g style="mix-blend-mode:overlay" filter="url(#filter10_f_936_83)">
<circle cx="715.099" cy="381.228" r="159.124" transform="rotate(-72.0561 715.099 381.228)" fill="url(#paint11_linear_936_83)"/>
</g>
<g style="mix-blend-mode:overlay" filter="url(#filter11_f_936_83)">
<circle cx="1045.33" cy="610.764" r="159.124" transform="rotate(-15 1045.33 610.764)" fill="url(#paint12_linear_936_83)"/>
</g>
<g style="mix-blend-mode:overlay" filter="url(#filter12_f_936_83)">
<circle cx="453.248" cy="708.56" r="367.434" transform="rotate(-53.0602 453.248 708.56)" fill="url(#paint13_linear_936_83)"/>
</g>
<g style="mix-blend-mode:overlay" filter="url(#filter13_f_936_83)">
<circle cx="393.352" cy="315.606" r="367.434" transform="rotate(-75 393.352 315.606)" fill="url(#paint14_linear_936_83)"/>
</g>
<g style="mix-blend-mode:overlay" filter="url(#filter14_f_936_83)">
<circle cx="816.027" cy="941.323" r="159.124" transform="rotate(-112.311 816.027 941.323)" fill="url(#paint15_linear_936_83)"/>
</g>
<g style="mix-blend-mode:overlay" filter="url(#filter15_f_936_83)">
<circle cx="1074.26" cy="867.461" r="159.124" transform="rotate(-15 1074.26 867.461)" fill="url(#paint16_linear_936_83)"/>
</g>
<g style="mix-blend-mode:overlay" filter="url(#filter16_f_936_83)">
<circle cx="1046.5" cy="120.169" r="159.124" transform="rotate(20.5562 1046.5 120.169)" fill="url(#paint17_linear_936_83)"/>
</g>
<g style="mix-blend-mode:overlay" filter="url(#filter17_f_936_83)">
<circle cx="626.895" cy="-11.8958" r="159.124" transform="rotate(-10.1099 626.895 -11.8958)" fill="url(#paint18_linear_936_83)"/>
</g>
</g>
<g style="mix-blend-mode:hard-light" filter="url(#filter18_f_936_83)">
<circle cx="781.19" cy="478.854" r="573.061" transform="rotate(-75 781.19 478.854)" fill="url(#paint19_linear_936_83)"/>
</g>
<ellipse rx="73.5767" ry="74.3144" transform="matrix(0.333848 -0.942627 0.936718 0.350086 199.179 1009.77)" fill="#1E93FF"/>
<g clip-path="url(#clip0_936_83)">
<path d="M210.255 973.553C209.06 975.07 206.956 976.683 205.762 978.2C204.83 979.597 204.341 981.596 203.408 982.992C198.404 990.939 194.856 997.248 191.853 1005.73C190.83 1008.61 188.692 1012.18 187.862 1015.14C187.032 1018.1 186.713 1021.47 185.883 1024.44C184.758 1029.47 183.984 1032.89 183.12 1037.8C182.893 1039.68 182.063 1042.64 182.029 1044.59C181.949 1045.44 182.882 1047.75 182.803 1048.59L185.896 1049.75C189.57 1051.12 200.638 1052.64 204.004 1053.02C207.371 1053.41 205.426 1053.34 208.872 1052.88C213.035 1052.25 214.923 1051.87 218.586 1050.18C221.463 1048.86 224.955 1045.8 227.389 1043.88C228.572 1043.01 229.971 1040.91 230.96 1039.97C232.348 1038.53 232.712 1036.27 233.906 1034.75C236.362 1031.52 237.898 1029.04 239.331 1025C240.695 1021.14 241.536 1013.82 241.604 1009.92C241.957 1004.6 242.468 1005.01 240.739 999.999C239.749 997.229 238.145 992.485 236.632 989.956C235.563 988.029 233.527 985.741 232.128 984.127C229.523 980.972 229.284 979.792 225.758 977.383C225.246 976.974 221.845 974.83 221.333 974.421C219.024 972.903 216.579 971.771 213.871 970.759L211.938 970.037C210.948 970.976 211.119 972.349 210.255 973.553Z" fill="#FCBF95"/>
<path d="M203.046 1011.22C207.107 1012.73 210.383 1014.61 212.271 1017.94C212.965 1019.07 213.909 1020.73 214.341 1021.98C214.455 1022.9 214.364 1024.39 214.285 1025.23C214.262 1026.53 214.433 1027.91 214.023 1029.06C213.409 1030.8 212.272 1032.77 211.214 1033.9C208.974 1035.9 207.222 1035.9 203.855 1035.52C201.785 1035.18 198.418 1034.79 196.428 1033.61C192.959 1031.66 190.331 1029.81 188.829 1026.63C187.646 1023.79 186.941 1019.6 187.634 1017.02C188.26 1014.64 191.16 1012.01 193.128 1010.78C194.174 1010.3 195.539 1010.16 196.904 1010.01C199.247 1009.58 200.146 1010.13 203.046 1011.22Z" fill="#00FFFF"/>
<path d="M203.433 1011.36C207.687 1012.95 211.622 1014.2 215.478 1012.59C218.549 1011.34 221.335 1007.8 222.62 1004.79C224.11 1001.2 224.099 998.142 221.619 995.252C220.095 993.374 217.08 991.375 214.567 990.435C213.987 990.218 213.213 989.929 212.371 989.833C210.95 989.52 209.653 989.471 208.356 989.423C206.798 989.495 202.419 991.349 200.918 991.879C197.392 993.179 197.187 993.757 195.834 996.959C194.958 998.814 195.151 998.886 195.572 1000.79C195.686 1001.7 195.766 1004.57 196.141 1005.36C196.642 1006.42 197.598 1007.44 198.428 1008.18C199.702 1009.53 201.499 1010.64 203.433 1011.36Z" fill="#00FFFF"/>
<path d="M188.544 1005.8C192.91 993.467 199.609 981.354 208.309 969.772C205.921 969.097 203.726 968.495 201.394 968.278C196.992 967.723 194.672 966.856 190.497 968.132C186.13 969.336 177.122 972.514 173.778 974.536C171.878 975.572 171.196 977.498 169.547 979.063C164.406 983.687 162.962 988.383 160.506 995.318C159.346 998.593 158.572 1002.01 158.254 1005.38C158.027 1007.26 157.572 1007.31 157.538 1009.26C157.515 1010.56 157.333 1013.55 157.504 1014.92C157.982 1017.28 158.608 1018.61 158.767 1020.63C159.279 1024.75 159.791 1025.16 161.611 1028.67C162.555 1030.33 162.749 1030.41 162.976 1032.24C163.147 1033.61 165.957 1036.19 166.787 1036.93C167.742 1037.95 169.073 1039.75 170.29 1040.64C172.907 1043.15 176.262 1044.18 179.481 1045.6C180.868 1033.03 183.904 1018.9 188.544 1005.8Z" fill="#4B7BB2"/>
<path d="M165.556 999.605L167.558 1000.14C168.525 1000.5 169.639 999.823 169.981 998.859C170.322 997.896 169.889 996.644 168.923 996.282L167.057 995.367L168.957 994.332C169.81 993.778 170.219 992.622 169.912 991.635C169.605 990.647 168.376 990.406 167.205 990.623L165.51 991.08L165.931 989.274C166.272 988.311 165.646 986.986 164.679 986.625C163.712 986.263 162.473 986.673 162.063 987.829L161.188 989.683L160.118 987.756C159.868 987.226 159.55 986.889 159.163 986.745C158.583 986.528 158.128 986.576 157.605 986.817C156.558 987.298 156.149 988.454 156.649 989.514L157.457 991.561L155.455 991.031C154.488 990.67 153.374 991.344 153.033 992.307C152.828 992.885 152.817 993.535 153.26 994.137C153.055 994.715 153.442 994.86 153.829 995.004L155.956 995.799L153.988 997.027C152.942 997.509 152.533 998.665 153.033 999.725C153.283 1000.25 153.602 1000.59 154.182 1000.81C154.569 1000.95 155.217 1000.98 155.547 1000.66L157.571 999.894L157.082 1001.89C156.741 1002.86 157.367 1004.18 158.334 1004.54C159.301 1004.9 160.54 1004.49 160.95 1003.34L161.825 1001.48L162.895 1003.41C163.145 1003.94 163.463 1004.28 163.85 1004.42C164.43 1004.64 164.885 1004.59 165.408 1004.35C166.455 1003.87 166.864 1002.71 166.364 1001.65L165.556 999.605Z" fill="#224FED"/>
<path d="M192.115 1005.6C195.049 997.321 198.666 990.819 203.67 982.872C204.602 981.475 205.091 979.476 206.024 978.08C207.025 976.49 209.322 974.949 210.516 973.432C211.381 972.228 211.403 970.928 212.268 969.724L208.98 968.495L206.273 967.483C202.531 970.012 202.839 970.999 201.371 973.287C200.905 973.985 199.165 977.044 198.631 977.935C195.765 982.317 195.094 983.594 192.808 988.193C191.261 991.324 189.93 993.226 188.645 996.236C188.031 997.97 186.587 1002.67 185.973 1004.4C185.291 1006.33 183.585 1011.14 183.096 1013.14C182.266 1016.1 181.242 1018.99 180.412 1021.96C179.923 1023.95 179.912 1024.6 179.355 1026.8C178.377 1030.79 178.161 1032.02 177.513 1035.71C177.138 1038.62 175.318 1046.23 177.912 1046.33L183.713 1048.5C183.792 1047.65 182.859 1045.34 182.939 1044.5C183.166 1042.62 183.735 1039.78 184.03 1037.71C184.701 1032.72 185.474 1029.3 186.793 1024.34C187.43 1021.31 187.942 1018.01 188.772 1015.04C188.954 1012.06 191.092 1008.49 192.115 1005.6Z" fill="#224FED"/>
<path d="M240.366 1025.16C238.933 1029.21 237.329 1031.88 234.873 1035.11C234.406 1035.81 234.133 1036.58 233.667 1037.28C233.258 1038.43 232.655 1039.52 231.665 1040.46C231.267 1040.96 230.869 1041.47 230.278 1041.9C229.482 1042.91 228.754 1043.73 227.901 1044.29L226.775 1045.61C224.341 1047.54 221.577 1049.78 218.961 1050.98C215.037 1052.78 212.888 1053.29 208.986 1053.8C208.076 1053.89 207.621 1053.94 207.36 1054.06C206.643 1054.23 206.45 1054.16 205.608 1054.06C205.221 1053.92 204.766 1053.96 204.118 1053.94C200.296 1053.6 189.297 1051.89 185.624 1050.52L182.723 1049.43C182.143 1049.22 181.893 1048.69 182.097 1048.11C182.302 1047.53 182.825 1047.29 183.405 1047.51L186.306 1048.59C189.593 1049.82 200.399 1051.46 204.22 1051.8C204.869 1051.82 205.449 1052.04 205.71 1051.92C206.359 1051.94 206.359 1051.94 206.814 1051.89C207.075 1051.77 207.724 1051.8 208.634 1051.7C212.796 1051.07 214.491 1050.62 218.085 1049.12C220.44 1048.04 223.203 1045.8 225.376 1044L226.627 1042.94C227.218 1042.5 227.946 1041.68 228.742 1040.67C229.209 1039.97 229.868 1039.35 230.198 1039.04C230.858 1038.41 231.199 1037.45 231.733 1036.56C232.075 1035.59 232.541 1034.89 233.075 1034C235.532 1030.78 236.999 1028.49 238.364 1024.63C239.592 1021.17 240.422 1014.5 240.569 1009.75C240.524 1008.64 240.603 1007.8 240.683 1006.96C240.921 1004.43 240.865 1003.97 239.568 1000.22C238.453 997.181 236.974 992.701 235.586 990.437C234.767 989.04 233.243 987.162 232.037 985.62L231.275 984.681C230.638 984.007 230.194 983.405 229.751 982.802C228.226 980.924 227.464 979.985 225.03 978.202C224.518 977.793 221.31 975.721 220.605 975.24C218.296 973.722 215.851 972.59 213.337 971.65L211.403 970.928C210.823 970.711 210.573 970.181 210.778 969.603C210.982 969.025 211.767 968.664 212.347 968.881L214.281 969.604C216.988 970.615 219.627 971.82 221.936 973.337C222.448 973.747 225.849 975.89 226.361 976.3C229.182 978.227 230.069 979.431 231.593 981.309C232.037 981.912 232.48 982.514 232.924 983.116L233.686 984.055C234.892 985.597 236.61 987.547 237.554 989.209C239.067 991.738 240.739 996.29 241.786 999.517C243.208 1003.54 243.196 1004.19 243.015 1007.18C243.003 1007.83 242.924 1008.67 242.901 1009.97C242.515 1013.53 241.867 1020.93 240.366 1025.16Z" fill="black"/>
<path d="M214.854 1029.81C214.308 1031.35 213.102 1033.52 211.851 1034.58C209.281 1036.89 207.142 1036.75 203.776 1036.36C201.444 1036.14 198.145 1035.56 195.961 1034.31C192.106 1032.22 189.478 1030.36 187.919 1026.72C186.418 1023.55 185.974 1019.23 186.736 1016.47C187.566 1013.5 190.921 1010.83 192.889 1009.6C193.742 1009.05 194.845 1009.02 195.755 1008.93C196.21 1008.88 196.472 1008.76 196.927 1008.71C199.27 1008.28 200.43 1008.71 202.363 1009.43C202.75 1009.58 203.137 1009.72 203.524 1009.87C207.198 1011.24 211.122 1013.14 213.454 1017.07C214.273 1018.47 215.217 1020.13 215.456 1021.31C215.638 1022.03 215.558 1022.87 215.479 1023.72C215.536 1024.17 215.399 1024.56 215.524 1024.83C215.502 1026.13 215.672 1027.5 215.32 1029.11C214.922 1029.62 214.922 1029.62 214.854 1029.81ZM188.669 1017.19L188.601 1017.38C187.976 1019.76 188.363 1023.62 189.614 1026.27C190.991 1029.18 193.231 1030.89 196.701 1032.84C198.179 1033.61 200.568 1034.29 203.741 1034.6C207.108 1034.99 208.405 1035.04 210.384 1033.16C211.373 1032.22 212.442 1030.44 212.988 1028.89C213.398 1027.74 213.159 1026.56 213.113 1025.45C213.056 1024.99 213.193 1024.61 213.136 1024.15C213.147 1023.5 213.158 1022.85 213.102 1022.39C212.794 1021.41 212.044 1019.82 211.35 1018.68C209.336 1015.1 205.924 1013.6 202.443 1012.3C202.057 1012.16 201.67 1012.01 201.283 1011.87C199.349 1011.14 198.769 1010.93 197.143 1011.19C196.688 1011.24 196.233 1011.29 195.971 1011.41C195.255 1011.58 194.345 1011.67 193.822 1011.91C191.729 1012.88 189.352 1015.26 188.669 1017.19Z" fill="black"/>
<path d="M223.86 1004.38C223.792 1004.57 223.724 1004.77 223.587 1005.15C222.302 1008.16 219.379 1012.09 215.853 1013.39C211.736 1015.12 207.027 1013.58 203.16 1012.13C201.033 1011.34 199.236 1010.23 197.768 1008.81C196.619 1007.72 195.857 1006.79 195.357 1005.73C194.913 1005.12 194.867 1004.02 194.765 1002.45C194.776 1001.8 194.788 1001.15 194.663 1000.88L194.537 1000.62C194.116 998.717 194.185 998.525 194.935 996.405L195.14 995.828C196.425 992.817 196.96 991.926 200.679 990.699C201.134 990.65 201.657 990.41 202.248 989.976C204.796 988.965 207.082 988.074 208.379 988.122C209.937 988.05 211.427 988.171 212.849 988.484C213.691 988.581 214.271 988.797 215.044 989.086C217.558 990.026 220.766 992.097 222.608 994.313C224.827 997.324 225.225 1000.53 223.86 1004.38ZM203.774 1010.4C207.641 1011.84 211.577 1013.1 214.978 1011.53C217.787 1010.4 220.573 1006.86 221.529 1004.16C223.018 1000.57 222.802 998.094 220.766 995.806C219.173 994.12 216.421 992.001 214.225 991.398C213.645 991.181 212.872 990.892 212.224 990.868C210.995 990.627 209.698 990.579 208.402 990.531C207.299 990.555 204.557 991.494 202.988 992.216C202.271 992.384 201.68 992.818 201.225 992.866C198.222 993.925 198.086 994.311 196.937 996.936L196.732 997.513C195.993 998.982 196.187 999.055 196.357 1000.43L196.482 1000.69C196.539 1001.15 196.528 1001.8 196.71 1002.52C196.699 1003.17 196.801 1004.74 196.926 1005C197.302 1005.8 198.132 1006.54 199.088 1007.56C200.43 1008.71 202.034 1009.75 203.774 1010.4Z" fill="black"/>
<path d="M205.64 1018.73C206.017 1017.67 205.456 1016.48 204.388 1016.08C203.321 1015.68 202.149 1016.22 201.773 1017.29C201.396 1018.35 201.956 1019.54 203.024 1019.94C204.092 1020.33 205.263 1019.8 205.64 1018.73Z" fill="black"/>
<path d="M209.734 1007.17C210.111 1006.11 209.55 1004.92 208.482 1004.52C207.414 1004.12 206.243 1004.66 205.866 1005.73C205.49 1006.79 206.05 1007.98 207.118 1008.38C208.186 1008.77 209.357 1008.24 209.734 1007.17Z" fill="black"/>
<path d="M164.611 986.817L164.804 986.89C166.146 984.337 167.613 982.049 170.184 979.738C171.105 978.991 171.571 978.293 172.106 977.402C172.64 976.511 173.368 975.692 174.221 975.138C177.565 973.116 186.573 969.938 190.679 968.855C193.614 967.988 195.684 968.325 198.209 968.614C199.051 968.711 200.086 968.88 201.121 969.048C201.769 969.072 202.611 969.169 203.191 969.386C203.589 968.88 204.442 968.326 205.295 967.772C203.873 967.459 202.645 967.218 201.348 967.17C200.313 967.001 199.471 966.905 198.436 966.736C195.718 966.375 193.58 966.23 190.19 967.145C186.278 968.3 176.883 971.334 173.209 973.669C172.026 974.536 171.298 975.355 170.502 976.366C170.036 977.065 169.57 977.763 168.978 978.196C165.748 981.134 163.815 984.12 162.393 987.516C162.859 986.817 163.644 986.456 164.611 986.817Z" fill="black"/>
<path d="M176.023 1043C174.158 1042.09 172.486 1041.24 171.212 1039.9C170.381 1039.15 169.107 1037.8 168.345 1036.86L167.902 1036.26C167.776 1035.99 167.39 1035.85 167.071 1035.51C166.434 1034.84 164.523 1032.82 164.341 1032.09C164.17 1030.72 163.92 1030.19 163.351 1029.32C163.033 1028.99 162.908 1028.72 162.851 1028.26L162.032 1026.87C160.837 1024.67 160.269 1023.81 159.87 1020.6C159.7 1019.23 159.392 1018.24 159.154 1017.06C158.972 1016.34 158.789 1015.62 158.482 1014.63C158.3 1013.91 158.459 1012.22 158.414 1011.12C158.493 1010.27 158.505 1009.62 158.641 1009.24C158.721 1008.39 158.664 1007.94 158.8 1007.55C158.937 1007.17 159.141 1006.59 159.289 1005.55C159.357 1005.36 159.301 1004.9 159.369 1004.71C159.107 1004.83 158.652 1004.88 158.266 1004.73C157.879 1004.59 157.56 1004.25 157.435 1003.99C157.299 1004.37 157.287 1005.02 157.151 1005.41C157.14 1006.06 157.003 1006.44 156.798 1007.02C156.594 1007.6 156.389 1008.18 156.366 1009.48C156.423 1009.94 156.412 1010.59 156.401 1011.24C156.31 1012.73 156.219 1014.22 156.526 1015.21C156.64 1016.13 157.015 1016.92 157.129 1017.84C157.436 1018.82 157.743 1019.81 157.789 1020.92C158.312 1024.39 158.881 1025.25 160.201 1027.71L161.02 1029.11C161.27 1029.64 161.395 1029.9 161.52 1030.17C161.896 1030.96 162.021 1031.23 162.26 1032.41C162.499 1033.59 163.898 1035.2 165.49 1036.89C165.809 1037.22 165.934 1037.49 166.127 1037.56L166.571 1038.16C167.526 1039.17 168.732 1040.71 169.563 1041.46C171.542 1043.29 173.794 1044.35 176.046 1045.41C176.057 1044.76 175.944 1043.85 176.023 1043Z" fill="black"/>
<path d="M212.973 970.205C212.905 970.398 212.905 970.398 212.836 970.591C212.438 971.096 212.302 971.482 212.029 972.252C211.824 972.83 211.551 973.601 211.085 974.299C210.55 975.19 209.629 975.937 208.901 976.756C208.173 977.574 207.252 978.321 206.786 979.019C206.32 979.717 206.047 980.488 205.706 981.451C205.433 982.222 205.091 983.185 204.625 983.884C199.689 991.638 196.141 997.947 193.207 1006.23C192.729 1007.58 192.058 1008.86 191.319 1010.32C190.444 1012.18 189.568 1014.03 189.215 1015.65C188.601 1017.38 188.374 1019.26 188.021 1020.87C187.805 1022.1 187.521 1023.52 187.305 1024.75L187.032 1025.52C186.043 1030.17 185.145 1033.32 184.542 1038.12C184.463 1038.96 184.315 1039.99 183.974 1040.96C183.689 1042.38 183.473 1043.61 183.326 1044.64C183.257 1044.83 183.564 1045.82 183.621 1046.28C183.929 1047.27 184.111 1047.99 183.906 1048.57C183.838 1048.76 183.701 1049.15 183.44 1049.27C183.371 1049.46 182.916 1049.51 182.723 1049.43L177.115 1047.34C176.467 1047.31 176.149 1046.98 175.637 1046.57C174.431 1045.03 174.817 1041.46 175.67 1037.2C175.875 1036.62 175.886 1035.97 176.023 1035.59C176.398 1032.67 176.682 1031.25 177.239 1029.06C177.512 1028.29 177.592 1027.45 177.865 1026.68L178.217 1025.06C178.365 1024.03 178.638 1023.26 178.922 1021.84C179.479 1019.64 180.298 1017.33 180.855 1015.14L181.606 1013.02C182.288 1011.09 183.801 1006.21 184.551 1004.09C184.824 1003.32 185.233 1002.16 185.449 1000.93C186.132 999.006 186.621 997.007 187.03 995.851C187.781 993.732 188.713 992.335 189.452 990.866C189.987 989.975 190.59 988.891 191.193 987.808L191.465 987.037C193.547 983.015 194.286 981.546 197.084 977.356C197.22 976.971 197.686 976.273 198.221 975.382C198.824 974.298 199.426 973.214 199.756 972.901C200.154 972.396 200.359 971.818 200.757 971.312C201.496 969.843 202.099 968.759 205.181 966.857C205.443 966.737 205.704 966.616 206.091 966.761L212.279 969.074C212.666 969.218 212.791 969.483 212.916 969.748C212.916 969.748 213.041 970.013 212.973 970.205ZM187.429 1013.89C187.975 1012.35 188.715 1010.88 189.454 1009.41C190.193 1007.94 190.671 1006.59 191.08 1005.44C194.082 996.959 197.699 990.457 202.703 982.511C203.101 982.005 203.374 981.234 203.647 980.464C203.988 979.5 204.522 978.609 205.057 977.718C205.591 976.827 206.581 975.888 207.502 975.142C208.23 974.323 209.083 973.769 209.549 973.071C209.947 972.565 210.084 972.18 210.289 971.602C210.425 971.217 210.493 971.024 210.63 970.639L206.182 968.977C203.953 970.325 203.612 971.288 202.941 972.565C202.736 973.143 202.338 973.648 201.872 974.347C201.542 974.66 200.939 975.743 200.337 976.827C199.802 977.718 199.268 978.609 199.131 978.994C196.333 983.184 195.662 984.461 193.775 988.554L193.502 989.325C192.831 990.601 192.296 991.492 191.693 992.576C190.954 994.045 190.022 995.442 189.339 997.368C188.998 998.331 188.316 1000.26 187.827 1002.26C187.349 1003.61 187.133 1004.83 186.86 1005.6C186.178 1007.53 184.472 1012.35 183.983 1014.35L183.233 1016.47C182.482 1018.58 181.925 1020.78 181.368 1022.97C181.083 1024.39 180.81 1025.16 180.731 1026L180.378 1027.62C180.231 1028.65 179.958 1029.42 179.685 1030.19C179.128 1032.38 178.843 1033.8 178.536 1036.53C178.4 1036.91 178.389 1037.56 178.184 1038.14C177.388 1042.86 177.149 1045.39 177.661 1045.8C177.855 1045.87 177.855 1045.87 178.048 1045.94L182.109 1047.46C181.802 1046.47 181.619 1045.75 181.631 1045.1C181.779 1044.06 182.063 1042.64 182.347 1041.22C182.495 1040.19 182.836 1039.22 182.916 1038.38C183.518 1033.59 184.416 1030.43 185.474 1025.59L185.747 1024.82C185.963 1023.59 186.179 1022.37 186.463 1020.94C186.884 1019.14 187.111 1017.26 187.6 1015.26C187.225 1014.47 187.361 1014.08 187.429 1013.89Z" fill="black"/>
<path d="M233.165 1021.38C231.255 1026.78 228.525 1027.07 228.264 1027.19C227.615 1027.16 227.297 1026.83 227.115 1026.1C227.126 1025.45 227.456 1025.14 228.172 1024.97C228.172 1024.97 229.799 1024.71 231.232 1020.66C232.528 1017 232.301 1015.17 232.369 1014.98C232.312 1014.52 232.71 1014.01 233.233 1013.77C233.756 1013.53 234.268 1013.94 234.45 1014.66C234.382 1014.86 234.667 1017.14 233.165 1021.38Z" fill="black"/>
<path d="M164.952 985.854C163.405 985.276 161.836 985.998 161.096 987.467C160.653 986.865 160.209 986.263 159.436 985.974C158.662 985.685 157.752 985.781 156.968 986.142C155.591 986.937 154.977 988.671 155.535 990.188C153.988 989.61 152.35 990.525 151.804 992.066C151.463 993.029 151.577 993.945 152.146 994.812C152.396 995.341 152.908 995.751 153.681 996.04C152.112 996.762 151.497 998.496 152.248 1000.09C152.624 1000.88 153.261 1001.55 154.034 1001.84C154.808 1002.13 155.456 1002.16 156.241 1001.8C155.695 1003.34 156.639 1005 158.186 1005.58C159.733 1006.16 161.302 1005.43 162.042 1003.96C162.485 1004.57 162.929 1005.17 163.702 1005.46C164.476 1005.75 165.386 1005.65 166.171 1005.29C166.569 1004.78 167.035 1004.08 167.308 1003.31C167.581 1002.54 167.592 1001.89 167.217 1001.1C168.764 1001.68 170.401 1000.76 170.947 999.221C171.493 997.679 170.811 995.897 169.264 995.319C170.64 994.525 171.254 992.791 170.503 991.201C169.877 989.877 168.399 989.106 166.704 989.563C167.25 988.022 166.499 986.432 164.952 985.854ZM157.377 988.695C157.445 988.503 157.582 988.117 158.037 988.069C158.298 987.949 158.492 988.021 158.685 988.093C158.879 988.166 159.265 988.31 159.39 988.575C159.516 988.84 160.198 990.622 160.369 991.995C160.301 992.187 160.494 992.26 160.426 992.452C159.152 991.104 157.684 989.683 157.559 989.418C157.434 989.153 157.309 988.888 157.377 988.695ZM153.783 993.897C153.658 993.632 153.601 993.174 153.738 992.789C153.942 992.211 154.466 991.97 155.046 992.187C155.046 992.187 155.239 992.259 155.432 992.331C156.081 992.356 158.083 992.886 159.414 994.692C157.071 995.125 155.524 994.547 154.682 994.451C154.489 994.378 154.295 994.306 154.102 994.234C154.17 994.041 153.977 993.969 153.783 993.897ZM154.079 999.243C153.829 998.713 154.034 998.135 154.557 997.894C154.819 997.774 157.162 997.341 159.05 996.956C158.982 997.148 158.913 997.341 158.652 997.461C157.583 999.243 156.411 999.46 155.888 999.701C155.695 999.629 155.433 999.749 155.433 999.749C155.171 999.869 154.978 999.797 154.785 999.725C154.591 999.652 154.205 999.508 154.079 999.243ZM158.675 1003.58C158.095 1003.36 157.845 1002.83 158.049 1002.25C158.186 1001.87 159.516 999.966 160.915 997.871C161.097 998.594 161.086 999.244 161.268 999.966C161.12 1001 160.654 1001.7 160.449 1002.28C160.381 1002.47 160.313 1002.66 160.244 1002.86C159.778 1003.55 159.255 1003.8 158.675 1003.58ZM164.908 1003.29C164.646 1003.41 164.453 1003.34 164.26 1003.27C164.066 1003.19 163.748 1002.86 163.748 1002.86C163.623 1002.59 163.577 1001.48 163.463 1000.57C163.338 1000.3 163.406 1000.11 163.475 999.918C163.543 999.726 163.418 999.461 163.486 999.268C163.873 999.413 164.384 999.822 164.965 1000.04L165.84 1001.89C165.636 1002.47 165.431 1003.05 164.908 1003.29ZM169.207 998.57C169.002 999.148 168.479 999.389 167.899 999.172L165.965 998.45L165.772 998.377C164.032 997.727 163.201 996.98 162.758 996.378C164.316 996.306 165.806 996.427 166.454 996.451L168.388 997.173C168.968 997.39 169.412 997.992 169.207 998.57ZM168.865 992.116C169.116 992.646 168.843 993.417 168.319 993.657L166.488 994.5C165.647 994.404 164.612 994.235 163.44 994.452C164.498 993.32 166.01 992.14 167.182 991.923C167.773 991.49 168.615 991.586 168.865 992.116ZM164.896 989.105C164.827 989.298 164.691 989.683 164.816 989.948C164.873 990.406 164.736 990.791 163.883 991.345C163.883 991.345 163.883 991.345 163.815 991.538C163.292 991.778 162.894 992.284 162.564 992.597C162.632 992.404 162.507 992.14 162.575 991.947C162.519 991.489 162.462 991.032 162.336 990.767L163.087 988.648C163.292 988.07 163.815 987.829 164.395 988.046C164.975 988.262 165.1 988.527 164.896 989.105Z" fill="black"/>
</g>
<ellipse rx="73.5767" ry="74.3144" transform="matrix(0.866025 -0.5 0.484961 0.874536 1357.02 979.345)" fill="#FF1CDB"/>
<g clip-path="url(#clip1_936_83)">
<path d="M1339.87 1004.71C1339.87 1004.71 1346.16 1015.8 1355.31 1016.99C1362.88 1016.05 1369.49 1014.73 1373.45 1014.53C1377.4 1014.33 1382.43 1008.81 1384.25 1005.69C1386.07 1002.57 1393.17 992.379 1392.28 987.142C1391.39 981.905 1386.17 966.889 1386.17 966.889L1380.36 952.241C1380.36 952.241 1333.53 955.013 1326.24 982.827C1338.8 1001.59 1339.87 1004.71 1339.87 1004.71Z" fill="#FCBF95"/>
<path d="M1385.42 961.371C1381.24 960.438 1377.06 959.505 1372.88 958.573C1370.45 958.031 1367.99 957.487 1365.51 957.643C1363.78 957.752 1362.08 958.201 1360.44 958.779C1355.6 960.485 1351.2 963.295 1347.03 966.325C1342.64 969.517 1338.37 973.047 1335.28 977.555C1332.19 982.065 1330.36 987.698 1331.28 993.119C1331.28 993.119 1327.73 985.528 1330.54 976.789C1333.36 968.05 1333.85 963.924 1341.68 958.92C1349.5 953.917 1355.38 952.33 1359.62 952.323C1363.86 952.316 1372.74 953.238 1377.06 955.724C1381.38 958.209 1385.42 961.371 1385.42 961.371Z" fill="#D03827"/>
<path d="M1390.51 960.218C1389.86 960.013 1389.16 959.902 1388.51 960.079C1387.52 960.343 1386.17 961.091 1385.8 962.064C1385.44 963.036 1385.77 964.275 1385.76 965.317L1392.07 982.428C1393.15 982.036 1394.45 980.938 1394.91 979.864C1395.37 978.79 1395.53 977.607 1395.66 976.442C1396 973.349 1396.18 970.16 1395.32 967.173C1394.47 964.186 1393.42 961.139 1390.51 960.218Z" fill="#FCBF95"/>
<path d="M1385.44 959.809C1384.67 961.104 1385.02 962.762 1385.42 964.222C1386.57 968.433 1387.9 972.591 1389.43 976.676C1388.72 975.958 1388.01 975.24 1387.3 974.521C1386.87 974.082 1386.43 973.639 1385.92 973.291C1385.29 972.858 1384.56 972.582 1383.96 972.116C1382.72 971.165 1382.16 969.586 1381.58 968.123C1380.51 965.429 1378.91 961.984 1377.33 959.563C1377.33 959.566 1383.23 961.377 1385.44 959.809Z" fill="#C56528"/>
<path d="M1331.8 993.903C1330.44 992.836 1328.49 993.517 1326.92 994.232C1325.55 994.858 1324 995.705 1323.75 997.212C1323.6 998.105 1323.96 998.997 1324.35 999.811C1326.14 1003.54 1328.75 1006.85 1331.93 1009.44C1333.14 1010.42 1334.45 1011.31 1335.95 1011.71C1338.38 1012.37 1341.15 1011.53 1342.85 1009.63L1331.8 993.903Z" fill="#FCBF95"/>
<path d="M1370.16 972.461C1369.37 971.217 1368.22 969.963 1366.76 969.998C1366.19 970.013 1365.63 970.236 1365.15 970.55C1363.57 971.572 1362.73 973.499 1362.54 975.397C1362.35 977.296 1362.73 979.2 1363.1 981.07L1371.89 983.255C1373.16 979.702 1372.17 975.636 1370.16 972.461Z" fill="#FF00A8"/>
<path d="M1332.45 984.561L1331.21 992.663C1333.24 995.581 1335.93 999.89 1337.96 1002.81C1338.38 1003.42 1338.88 1004.08 1339.6 1004.24C1339.49 1002.72 1339.37 1001.19 1339.26 999.674C1339.16 998.319 1339.05 996.956 1338.73 995.638C1338.29 993.862 1337.47 992.21 1336.57 990.629C1335.35 988.502 1333.97 986.471 1332.45 984.561Z" fill="#C56528"/>
<path d="M1373.84 986.59C1377.45 983.83 1380.15 979.851 1381.41 975.434C1382.56 977.257 1383.72 979.115 1384.29 981.205C1384.86 983.295 1384.75 985.688 1383.5 987.438C1383.24 987.795 1382.93 988.147 1382.88 988.586C1382.82 989.071 1383.1 989.521 1383.27 989.975C1383.84 991.445 1383.32 993.191 1382.28 994.359C1381.24 995.528 1379.75 996.194 1378.25 996.57C1378.34 999.577 1375.75 1002.4 1372.8 1002.51C1372.29 1002.53 1371.76 1002.48 1371.29 1002.68C1370.78 1002.89 1370.43 1003.34 1370.04 1003.73C1367.81 1005.98 1363.88 1006.17 1361.46 1004.15C1359.91 1006.07 1357.73 1007.86 1355.31 1007.54C1354.39 1007.42 1353.55 1007 1352.72 1006.59C1349.35 1004.91 1345.65 1002.85 1344.59 999.183C1348.07 1000.41 1352.17 999.634 1354.98 997.202C1354.98 997.202 1358.9 1000.42 1363.72 1000.22C1370.02 999.957 1377.61 993.416 1373.84 986.59Z" fill="#513620"/>
<path d="M1351.68 981.401C1350.67 980.777 1349.52 980.334 1348.34 980.373C1347.16 980.412 1345.96 980.994 1345.37 982.033C1345.17 982.378 1345.05 982.758 1344.94 983.139C1344.64 984.136 1344.43 985.196 1344.65 986.209C1344.87 987.193 1346.12 991.021 1350.55 993.76C1351.31 994.231 1352.33 994.545 1353.75 994.388L1355.63 986.05C1354.83 984.135 1353.43 982.483 1351.68 981.401Z" fill="#FF00A8"/>
<path d="M1338.53 983.158C1338.29 983.302 1337.98 983.337 1337.69 983.231C1337.16 983.038 1336.89 982.444 1337.08 981.904C1338.27 978.515 1340.66 975.726 1343.39 974.465C1345.34 973.57 1347.32 973.483 1349.13 974.216C1349.65 974.427 1349.91 975.031 1349.7 975.563C1349.49 976.096 1348.9 976.359 1348.38 976.144C1347.09 975.623 1345.66 975.695 1344.23 976.354C1341.97 977.398 1340 979.734 1338.99 982.603C1338.9 982.85 1338.74 983.039 1338.53 983.158Z" fill="#010101"/>
<path d="M1360.21 970.427C1360.01 970.541 1359.78 970.588 1359.54 970.547C1358.98 970.453 1358.61 969.917 1358.71 969.351C1359.2 966.38 1360.54 963.843 1362.46 962.205C1364.76 960.256 1367.96 959.697 1370.44 960.797C1370.95 961.026 1371.19 961.636 1370.96 962.162C1370.74 962.681 1370.14 962.93 1369.63 962.698C1367.83 961.902 1365.47 962.346 1363.76 963.799C1362.21 965.121 1361.13 967.214 1360.71 969.697C1360.66 970.018 1360.47 970.279 1360.21 970.427Z" fill="#010101"/>
<path d="M1330.07 992.306C1328.86 990.566 1329.21 987.957 1329.32 985.823C1329.56 980.832 1330.51 975.88 1332.13 971.164C1332.87 969.04 1333.74 966.948 1335.01 965.105C1336.86 962.422 1339.46 960.383 1342.16 958.591C1344.17 957.259 1346.25 956.037 1348.44 955.052C1360.29 949.709 1375.21 952.187 1384.89 960.97C1385.69 957.05 1384.5 953.035 1382.31 949.714C1380.12 946.394 1377.1 943.751 1374.06 941.213C1372.05 939.528 1370 937.86 1367.74 936.546C1364.99 934.949 1361.96 933.896 1358.89 933.133C1353.91 931.9 1348.71 931.408 1343.66 932.25C1338.61 933.092 1333.71 935.332 1330.1 939.025C1325.88 943.325 1323.68 949.207 1321.6 954.902C1320.77 957.183 1319.93 959.467 1319.1 961.749C1318.62 963.044 1318.15 964.345 1317.84 965.692C1317.48 967.276 1317.35 968.909 1317.37 970.535C1317.49 979.368 1322.71 987.668 1330.07 992.306Z" fill="#EF4823"/>
<path d="M1354.74 952.983C1354.68 952.802 1354.85 951.839 1354.86 951.647C1354.9 949.83 1354.23 948.078 1353.46 946.442C1352.49 944.402 1351.24 942.347 1349.25 941.331C1348.16 940.77 1346.92 940.572 1345.71 940.443C1343.35 940.192 1340.92 940.185 1338.68 940.967C1334.76 942.334 1331.82 946.24 1331.54 950.455C1331.26 954.671 1333.72 959.323 1337.9 961.558C1337.9 961.56 1347.7 953.379 1354.74 952.983Z" fill="#FF00A8"/>
<path d="M1390.81 959.228C1389.85 958.924 1389.01 958.872 1388.25 959.074C1387.64 959.238 1386.76 959.649 1386.02 960.267C1386.5 956.624 1385.51 952.708 1383.15 949.135C1380.9 945.72 1377.87 943.059 1374.7 940.411C1372.61 938.669 1370.55 936.993 1368.23 935.644C1365.69 934.17 1362.71 933.019 1359.12 932.126C1353.51 930.735 1348.25 930.432 1343.49 931.229C1337.94 932.151 1332.92 934.663 1329.37 938.293C1324.93 942.829 1322.65 949.051 1320.64 954.541L1318.12 961.416C1317.65 962.715 1317.16 964.056 1316.84 965.457C1316.48 967.015 1316.32 968.683 1316.35 970.552C1316.47 979.108 1321.15 987.401 1328.6 992.518C1327.87 992.702 1327.15 992.99 1326.5 993.287C1325.4 993.79 1323.12 994.832 1322.74 997.038C1322.54 998.206 1322.96 999.283 1323.43 1000.27C1325.28 1004.12 1328 1007.58 1331.29 1010.25C1332.39 1011.15 1333.89 1012.24 1335.68 1012.72C1337.68 1013.26 1339.89 1012.91 1341.69 1011.87C1342.28 1011.53 1342.81 1011.1 1343.29 1010.62C1345.36 1012.82 1347.58 1014.67 1349.74 1015.89C1352.51 1017.48 1354.99 1018.24 1357.32 1018.22C1359.25 1018.21 1361.06 1017.67 1362.81 1017.15C1363.88 1016.83 1364.9 1016.53 1365.93 1016.34C1367.1 1016.13 1368.28 1016.06 1369.54 1015.98C1371.25 1015.88 1373.03 1015.78 1374.75 1015.27C1375.74 1014.99 1376.71 1014.57 1377.66 1014.02C1379.72 1012.83 1381.66 1011.05 1383.4 1008.75C1385 1006.61 1386.3 1004.25 1387.56 1001.97C1387.97 1001.21 1388.4 1000.44 1388.83 999.687L1389.45 998.614C1391.08 995.81 1392.76 992.91 1393.19 989.568C1393.46 987.483 1393.21 985.296 1392.76 983.238C1392.91 983.167 1393.06 983.11 1393.23 983.017C1394.25 982.425 1395.34 981.415 1395.83 980.28C1396.34 979.09 1396.52 977.843 1396.66 976.561C1397.01 973.423 1397.21 970.079 1396.29 966.884C1395.55 964.289 1394.43 960.37 1390.81 959.228ZM1318.39 970.522C1318.36 968.823 1318.51 967.323 1318.83 965.929C1319.12 964.656 1319.56 963.435 1320.05 962.113L1322.55 955.266C1324.49 949.973 1326.68 943.977 1330.81 939.758C1334.07 936.432 1338.7 934.129 1343.82 933.276C1348.31 932.525 1353.3 932.819 1358.64 934.141C1362.05 934.987 1364.86 936.068 1367.23 937.447C1369.41 938.716 1371.4 940.332 1373.42 942.017C1376.46 944.565 1379.37 947.113 1381.47 950.295C1383.32 953.098 1384.23 956.11 1384.11 958.954C1376.29 952.662 1365.66 950.075 1355.87 951.751C1355.87 951.726 1355.87 951.686 1355.87 951.669C1355.92 949.561 1355.14 947.618 1354.37 945.991C1353.44 944.026 1352.07 941.613 1349.71 940.404C1348.46 939.763 1347.1 939.549 1345.81 939.412C1343.89 939.207 1341.04 939.046 1338.34 939.987C1334.04 941.488 1330.83 945.763 1330.52 950.388C1330.23 954.793 1332.64 959.335 1336.45 961.857C1335.64 962.669 1334.85 963.531 1334.18 964.513C1333.03 966.178 1332.11 968.125 1331.18 970.825C1329.52 975.646 1328.55 980.676 1328.3 985.774L1328.25 986.589C1328.19 987.598 1328.12 988.673 1328.21 989.719C1322.26 984.953 1318.49 977.695 1318.39 970.522ZM1335.69 991.152C1336.42 992.422 1337.31 994.108 1337.75 995.888C1338.05 997.126 1338.15 998.462 1338.24 999.754L1338.39 1001.63C1337.47 1000.29 1336.45 998.724 1335.43 997.158C1334.31 995.44 1333.19 993.734 1332.21 992.313C1331.97 990.406 1332.08 988.398 1332.51 986.372C1333.66 987.909 1334.74 989.496 1335.69 991.152ZM1330.24 987.46C1330.26 987.212 1330.27 986.959 1330.28 986.716L1330.33 985.875C1330.57 980.975 1331.5 976.141 1333.1 971.508C1333.96 968.995 1334.81 967.204 1335.84 965.701C1337.72 962.97 1340.5 960.931 1342.71 959.462C1344.91 958.006 1346.92 956.872 1348.85 956.001C1359.12 951.375 1371.89 952.833 1381.2 959.366L1373.1 957.559C1370.64 957.01 1368.09 956.44 1365.45 956.607C1363.82 956.71 1362.12 957.088 1360.11 957.801C1354.79 959.668 1350.02 962.887 1346.45 965.48C1342.39 968.427 1337.79 972.097 1334.45 976.961C1332.18 980.267 1330.75 983.901 1330.24 987.46ZM1345.92 943.598C1345.62 943.298 1345.17 943.216 1344.79 943.392C1344.43 943.564 1344.17 943.962 1344.19 944.391C1344.26 945.794 1344.17 947.2 1344.08 948.684C1344.02 949.67 1343.96 950.677 1343.95 951.689C1342.94 951.281 1342.09 950.78 1341.09 950.02C1340.8 949.8 1340.52 949.554 1340.24 949.309C1339.44 948.613 1338.54 947.825 1337.35 947.524C1337.04 947.448 1336.72 947.507 1336.47 947.722C1336.22 947.922 1336.08 948.231 1336.09 948.554C1336.17 952.373 1336.59 956.209 1337.31 959.969C1334.24 957.822 1332.31 954.11 1332.55 950.527C1332.8 946.711 1335.45 943.186 1339 941.948C1340.76 941.335 1342.86 941.182 1345.6 941.473C1346.69 941.589 1347.84 941.766 1348.8 942.257C1350.61 943.187 1351.75 945.222 1352.54 946.894C1353.09 948.054 1353.62 949.387 1353.78 950.747C1351.25 948.845 1348.51 946.199 1345.92 943.598ZM1352.62 952.457C1351.05 952.891 1349.51 953.435 1348.03 954.106C1346.88 954.622 1345.71 955.226 1344.49 955.927C1343.56 956.466 1342.6 957.063 1341.61 957.724C1340.88 958.208 1340.09 958.774 1339.29 959.381C1338.72 956.372 1338.34 953.323 1338.19 950.268C1338.43 950.458 1338.67 950.671 1338.92 950.887C1339.23 951.162 1339.55 951.44 1339.88 951.688C1341.48 952.9 1342.79 953.561 1344.7 954.139C1345.01 954.234 1345.35 954.164 1345.61 953.958C1345.87 953.752 1346.02 953.427 1346 953.091C1345.93 951.691 1346.02 950.294 1346.11 948.813C1346.15 948.144 1346.2 947.469 1346.22 946.787C1348.36 948.885 1350.54 950.901 1352.62 952.457ZM1336.2 1010.71C1334.77 1010.33 1333.51 1009.4 1332.57 1008.63C1329.51 1006.15 1326.99 1002.94 1325.26 999.357C1324.94 998.684 1324.65 997.978 1324.75 997.393C1324.92 996.406 1326.15 995.723 1327.34 995.181C1328.63 994.586 1330.25 993.999 1331.18 994.727C1331.27 994.798 1331.37 994.841 1331.48 994.877C1332.2 995.96 1332.97 997.131 1333.74 998.31C1334.92 1000.13 1336.11 1001.94 1337.13 1003.41C1337.48 1003.92 1338.06 1004.69 1338.93 1005.07C1339.84 1006.48 1340.85 1007.82 1341.92 1009.09C1340.46 1010.59 1338.21 1011.25 1336.2 1010.71ZM1391.18 989.298C1390.81 992.217 1389.23 994.931 1387.71 997.555L1387.08 998.641C1386.64 999.406 1386.22 1000.18 1385.79 1000.96C1384.57 1003.17 1383.31 1005.47 1381.79 1007.48C1379.53 1010.49 1376.91 1012.49 1374.21 1013.28C1372.7 1013.72 1371.11 1013.81 1369.43 1013.91C1368.17 1013.99 1366.87 1014.06 1365.58 1014.3C1364.44 1014.51 1363.33 1014.84 1362.26 1015.16C1360.56 1015.66 1358.96 1016.14 1357.32 1016.15C1355.35 1016.16 1353.2 1015.49 1350.74 1014.08C1347.25 1012.09 1343.39 1008.2 1340.6 1003.88L1340.27 999.594C1340.17 998.217 1340.06 996.792 1339.72 995.388C1339.22 993.348 1338.24 991.495 1337.45 990.106C1336.21 987.947 1334.8 985.861 1333.24 983.909C1333.23 983.895 1333.22 983.891 1333.21 983.877C1333.89 981.92 1334.86 979.984 1336.11 978.152C1339.27 973.545 1343.71 970.016 1347.62 967.171C1351.08 964.662 1355.7 961.549 1360.77 959.763C1362.61 959.113 1364.14 958.767 1365.58 958.678C1367.93 958.531 1370.33 959.067 1372.66 959.588L1376.69 960.488C1377.97 962.518 1379.44 965.459 1380.64 968.52L1380.75 968.793C1381.32 970.249 1381.97 971.878 1383.35 972.939C1383.73 973.244 1384.13 973.464 1384.56 973.693C1384.84 973.845 1385.1 973.98 1385.36 974.162C1385.78 974.446 1386.16 974.844 1386.58 975.268L1388.58 977.292C1390.64 981.755 1391.59 986.123 1391.18 989.298ZM1386.97 972.802C1386.82 972.67 1386.66 972.548 1386.48 972.437C1386.17 972.212 1385.84 972.043 1385.51 971.857C1385.18 971.688 1384.85 971.519 1384.57 971.302C1383.63 970.58 1383.15 969.333 1382.64 968.031L1382.52 967.74C1381.57 965.34 1380.48 963.016 1379.43 961.097L1383.98 962.111C1384.04 963.034 1384.27 963.889 1384.44 964.491C1385.19 967.275 1386.04 970.045 1386.97 972.802ZM1394.35 967.465C1395.17 970.305 1394.97 973.404 1394.65 976.322C1394.52 977.439 1394.37 978.52 1393.98 979.445C1393.76 979.949 1393.22 980.538 1392.62 980.967L1386.78 965.123C1386.77 964.809 1386.74 964.48 1386.71 964.147C1386.65 963.517 1386.59 962.863 1386.75 962.436C1386.94 961.941 1387.85 961.321 1388.76 961.08C1389.15 960.978 1389.62 961.02 1390.21 961.207C1392.59 961.961 1393.52 964.599 1394.35 967.465Z" fill="#010101"/>
<path d="M1353.57 990.275C1351.94 989.517 1350.66 987.995 1350.18 986.23C1350.06 985.773 1349.99 985.264 1350.2 984.838C1350.41 984.397 1350.87 984.146 1351.3 983.925C1351.65 983.744 1352.01 983.562 1352.4 983.503C1352.79 983.443 1354.38 983.98 1354.65 984.267L1356.28 985.934C1356.28 985.932 1353.82 988.706 1353.57 990.275Z" fill="#4B7BB2"/>
<path d="M1367.56 981.913C1367.62 981.399 1367.8 980.025 1367.86 979.511C1367.88 979.289 1367.91 979.067 1367.9 978.844C1367.89 977.636 1367.02 976.55 1365.92 976.084C1365.68 975.981 1365.43 975.902 1365.17 975.905C1364.7 975.91 1364.28 976.166 1363.9 976.42C1363.41 976.737 1362.9 977.133 1362.81 977.712L1363.2 981.949C1363.2 981.949 1366.55 981.115 1367.56 981.913Z" fill="#4B7BB2"/>
<path d="M1382.26 974.875C1382.05 974.534 1381.66 974.352 1381.26 974.409C1380.87 974.466 1380.54 974.756 1380.43 975.143C1379.32 979.047 1377.03 982.558 1373.96 985.148C1373.74 984.822 1373.5 984.5 1373.22 984.195C1373.07 984.032 1372.91 983.898 1372.76 983.751C1372.79 983.702 1372.83 983.66 1372.85 983.606C1374.1 980.077 1373.42 975.701 1371.01 971.897C1369.45 969.422 1367.83 968.933 1366.74 968.959C1366.03 968.98 1365.32 969.211 1364.61 969.673C1362.9 970.78 1361.77 972.827 1361.53 975.29C1361.32 977.343 1361.71 979.32 1362.1 981.23C1361.52 981.437 1360.98 981.667 1360.53 981.924C1360.52 981.93 1360.51 981.936 1360.5 981.941L1359.41 982.566C1358.24 983.219 1357.11 983.864 1356.09 984.724C1355.18 983.007 1353.84 981.524 1352.21 980.51C1350.88 979.687 1349.56 979.293 1348.31 979.334C1346.69 979.388 1345.23 980.218 1344.49 981.506C1344.24 981.948 1344.08 982.408 1343.96 982.837C1343.67 983.822 1343.37 985.121 1343.66 986.436C1343.78 986.941 1344.9 991.475 1350.02 994.644C1350.95 995.217 1352.03 995.472 1353.23 995.441C1353.42 995.886 1353.65 996.311 1353.92 996.709C1351.39 998.658 1347.93 999.256 1344.93 998.197C1344.57 998.069 1344.16 998.159 1343.89 998.427C1343.62 998.694 1343.51 999.095 1343.62 999.47C1344.78 1003.49 1348.7 1005.73 1352.28 1007.51C1353.13 1007.94 1354.09 1008.42 1355.18 1008.56C1357.83 1008.92 1360.06 1007.25 1361.63 1005.52C1364.44 1007.23 1368.42 1006.83 1370.76 1004.47L1371 1004.22C1371.24 1003.96 1371.45 1003.72 1371.67 1003.64C1371.87 1003.56 1372.17 1003.55 1372.49 1003.55L1372.84 1003.55C1373.87 1003.51 1374.86 1003.2 1375.74 1002.69C1377.63 1001.6 1379.01 999.592 1379.24 997.365C1380.85 996.858 1382.12 996.081 1383.03 995.055C1384.43 993.491 1384.9 991.347 1384.22 989.594L1384.07 989.241C1384 989.064 1383.88 988.798 1383.89 988.705C1383.9 988.614 1384.07 988.382 1384.18 988.228L1384.32 988.049C1385.65 986.191 1386 983.593 1385.27 980.92C1384.66 978.671 1383.44 976.74 1382.26 974.875ZM1365.7 971.425C1366.07 971.192 1366.45 971.043 1366.79 971.035C1367.81 971.01 1368.72 972.105 1369.3 973.024C1371.26 976.111 1371.89 979.576 1371.07 982.416C1370.28 981.925 1369.47 981.568 1368.65 981.314C1368.93 979.194 1369.19 977.146 1367.23 975.667C1366.12 974.83 1364.71 974.801 1363.57 975.379C1363.78 973.636 1364.56 972.161 1365.7 971.425ZM1363.64 978.261C1363.69 978.177 1363.75 978.1 1363.79 977.989C1363.99 977.342 1364.86 976.949 1365.42 977.06C1366.31 977.235 1366.86 978.135 1366.88 978.998C1366.9 979.608 1366.8 980.237 1366.7 980.863C1366.31 980.8 1365.93 980.745 1365.55 980.701C1365.08 980.645 1364.58 980.673 1364.07 980.738C1363.91 979.919 1363.75 979.09 1363.64 978.261ZM1359.56 984.855C1359.82 984.701 1360.1 984.545 1360.39 984.385L1361.51 983.745C1361.52 983.74 1361.53 983.736 1361.53 983.732C1362.55 983.146 1364.17 982.626 1365.32 982.759C1367.95 983.063 1369.93 983.646 1371.73 985.613C1372.31 986.237 1372.81 987.064 1373.32 988.208C1373.56 988.753 1373.82 989.401 1373.91 990.056C1374.35 993.126 1371.12 995.723 1369.72 996.7C1367.76 998.061 1366.12 998.779 1364.57 998.953C1363.42 999.082 1362.14 998.939 1360.54 998.499C1358.16 997.843 1356.55 996.888 1355.61 995.577C1354.25 993.673 1354.28 990.686 1355.7 988.311C1356.67 986.66 1357.96 985.775 1359.56 984.855ZM1353.91 985.015C1354.17 985.421 1354.41 985.842 1354.6 986.284C1354.38 986.578 1354.16 986.89 1353.96 987.231C1353.65 987.747 1353.41 988.286 1353.21 988.833C1352.81 988.552 1352.44 988.234 1352.13 987.836C1351.73 987.34 1350.94 986.227 1351.08 985.535C1351.34 984.261 1353.05 984.522 1353.91 985.015ZM1351.08 992.875C1346.6 990.105 1345.68 986.152 1345.65 985.986C1345.46 985.144 1345.69 984.184 1345.91 983.436C1346 983.13 1346.1 982.809 1346.25 982.555C1346.63 981.894 1347.46 981.438 1348.38 981.411C1349.23 981.38 1350.16 981.678 1351.15 982.288C1351.32 982.395 1351.48 982.532 1351.65 982.652C1350.68 982.864 1349.8 983.396 1349.32 984.316C1348.06 986.724 1350.66 989.712 1352.66 990.928C1352.55 991.741 1352.55 992.551 1352.65 993.335C1352.07 993.282 1351.53 993.158 1351.08 992.875ZM1383.32 981.482C1383.86 983.505 1383.63 985.506 1382.56 986.983C1382.3 987.334 1381.95 987.816 1381.87 988.466C1381.8 989.123 1382.03 989.657 1382.22 990.086L1382.33 990.355C1382.72 991.365 1382.4 992.692 1381.53 993.662C1380.76 994.531 1379.57 995.167 1378.01 995.562C1377.54 995.68 1377.22 996.111 1377.24 996.601C1377.31 999.016 1375.14 1001.39 1372.77 1001.47L1372.47 1001.48C1372.03 1001.48 1371.46 1001.49 1370.9 1001.72C1370.3 1001.97 1369.88 1002.42 1369.54 1002.78L1369.33 1002.99C1367.45 1004.9 1364.14 1005.04 1362.1 1003.34C1361.67 1002.98 1361.03 1003.05 1360.67 1003.49C1359.66 1004.74 1357.65 1006.8 1355.45 1006.51C1354.69 1006.41 1353.92 1006.02 1353.17 1005.65C1350.51 1004.33 1347.85 1002.86 1346.41 1000.68C1349.55 1001.12 1352.84 1000.23 1355.34 998.224C1356.51 999.198 1358.04 999.96 1360.01 1000.5C1361.87 1001.01 1363.39 1001.18 1364.8 1001.01C1366.5 1000.82 1368.05 1000.13 1369.31 999.406C1369.89 999.07 1370.41 998.724 1370.86 998.414C1373 996.93 1376.51 993.833 1375.93 989.758C1375.8 988.847 1375.47 988.03 1375.17 987.354C1375.12 987.233 1375.05 987.09 1374.98 986.955C1377.93 984.543 1380.26 981.387 1381.68 977.822C1382.36 978.99 1382.97 980.204 1383.32 981.482Z" fill="#010101"/>
</g>
<defs>
<filter id="filter0_f_936_83" x="176.524" y="-125.812" width="1209.33" height="1209.33" filterUnits="userSpaceOnUse" color-interpolation-filters="sRGB">
<feFlood flood-opacity="0" result="BackgroundImageFix"/>
<feBlend mode="normal" in="SourceGraphic" in2="BackgroundImageFix" result="shape"/>
<feGaussianBlur stdDeviation="15.7311" result="effect1_foregroundBlur_936_83"/>
</filter>
<filter id="filter1_f_936_83" x="190.199" y="-249.561" width="797.851" height="797.851" filterUnits="userSpaceOnUse" color-interpolation-filters="sRGB">
<feFlood flood-opacity="0" result="BackgroundImageFix"/>
<feBlend mode="normal" in="SourceGraphic" in2="BackgroundImageFix" result="shape"/>
<feGaussianBlur stdDeviation="15.7311" result="effect1_foregroundBlur_936_83"/>
</filter>
<filter id="filter2_f_936_83" x="253.982" y="422.064" width="381.172" height="381.172" filterUnits="userSpaceOnUse" color-interpolation-filters="sRGB">
<feFlood flood-opacity="0" result="BackgroundImageFix"/>
<feBlend mode="normal" in="SourceGraphic" in2="BackgroundImageFix" result="shape"/>
<feGaussianBlur stdDeviation="15.7311" result="effect1_foregroundBlur_936_83"/>
</filter>
<filter id="filter3_f_936_83" x="544.436" y="457.984" width="381.251" height="381.251" filterUnits="userSpaceOnUse" color-interpolation-filters="sRGB">
<feFlood flood-opacity="0" result="BackgroundImageFix"/>
<feBlend mode="normal" in="SourceGraphic" in2="BackgroundImageFix" result="shape"/>
<feGaussianBlur stdDeviation="15.7311" result="effect1_foregroundBlur_936_83"/>
</filter>
<filter id="filter4_f_936_83" x="1105.18" y="145.247" width="381.251" height="381.251" filterUnits="userSpaceOnUse" color-interpolation-filters="sRGB">
<feFlood flood-opacity="0" result="BackgroundImageFix"/>
<feBlend mode="normal" in="SourceGraphic" in2="BackgroundImageFix" result="shape"/>
<feGaussianBlur stdDeviation="15.7311" result="effect1_foregroundBlur_936_83"/>
</filter>
<filter id="filter5_f_936_83" x="92.708" y="155.471" width="381.251" height="381.251" filterUnits="userSpaceOnUse" color-interpolation-filters="sRGB">
<feFlood flood-opacity="0" result="BackgroundImageFix"/>
<feBlend mode="normal" in="SourceGraphic" in2="BackgroundImageFix" result="shape"/>
<feGaussianBlur stdDeviation="15.7311" result="effect1_foregroundBlur_936_83"/>
</filter>
<filter id="filter6_f_936_83" x="678.317" y="-170.003" width="797.984" height="797.984" filterUnits="userSpaceOnUse" color-interpolation-filters="sRGB">
<feFlood flood-opacity="0" result="BackgroundImageFix"/>
<feBlend mode="normal" in="SourceGraphic" in2="BackgroundImageFix" result="shape"/>
<feGaussianBlur stdDeviation="15.7311" result="effect1_foregroundBlur_936_83"/>
</filter>
<filter id="filter7_f_936_83" x="665.15" y="322.041" width="797.952" height="797.952" filterUnits="userSpaceOnUse" color-interpolation-filters="sRGB">
<feFlood flood-opacity="0" result="BackgroundImageFix"/>
<feBlend mode="normal" in="SourceGraphic" in2="BackgroundImageFix" result="shape"/>
<feGaussianBlur stdDeviation="15.7311" result="effect1_foregroundBlur_936_83"/>
</filter>
<filter id="filter8_f_936_83" x="227.692" y="386.374" width="1090.13" height="1090.13" filterUnits="userSpaceOnUse" color-interpolation-filters="sRGB">
<feFlood flood-opacity="0" result="BackgroundImageFix"/>
<feBlend mode="normal" in="SourceGraphic" in2="BackgroundImageFix" result="shape"/>
<feGaussianBlur stdDeviation="88.7683" result="effect1_foregroundBlur_936_83"/>
</filter>
<filter id="filter9_f_936_83" x="647.19" y="45.0995" width="1090.12" height="1090.12" filterUnits="userSpaceOnUse" color-interpolation-filters="sRGB">
<feFlood flood-opacity="0" result="BackgroundImageFix"/>
<feBlend mode="normal" in="SourceGraphic" in2="BackgroundImageFix" result="shape"/>
<feGaussianBlur stdDeviation="88.7683" result="effect1_foregroundBlur_936_83"/>
</filter>
<filter id="filter10_f_936_83" x="378.396" y="44.5245" width="673.407" height="673.407" filterUnits="userSpaceOnUse" color-interpolation-filters="sRGB">
<feFlood flood-opacity="0" result="BackgroundImageFix"/>
<feBlend mode="normal" in="SourceGraphic" in2="BackgroundImageFix" result="shape"/>
<feGaussianBlur stdDeviation="88.7683" result="effect1_foregroundBlur_936_83"/>
</filter>
<filter id="filter11_f_936_83" x="708.631" y="274.064" width="673.4" height="673.4" filterUnits="userSpaceOnUse" color-interpolation-filters="sRGB">
<feFlood flood-opacity="0" result="BackgroundImageFix"/>
<feBlend mode="normal" in="SourceGraphic" in2="BackgroundImageFix" result="shape"/>
<feGaussianBlur stdDeviation="88.7683" result="effect1_foregroundBlur_936_83"/>
</filter>
<filter id="filter12_f_936_83" x="-91.7437" y="163.568" width="1089.98" height="1089.98" filterUnits="userSpaceOnUse" color-interpolation-filters="sRGB">
<feFlood flood-opacity="0" result="BackgroundImageFix"/>
<feBlend mode="normal" in="SourceGraphic" in2="BackgroundImageFix" result="shape"/>
<feGaussianBlur stdDeviation="88.7683" result="effect1_foregroundBlur_936_83"/>
</filter>
<filter id="filter13_f_936_83" x="-151.709" y="-229.456" width="1090.12" height="1090.12" filterUnits="userSpaceOnUse" color-interpolation-filters="sRGB">
<feFlood flood-opacity="0" result="BackgroundImageFix"/>
<feBlend mode="normal" in="SourceGraphic" in2="BackgroundImageFix" result="shape"/>
<feGaussianBlur stdDeviation="88.7683" result="effect1_foregroundBlur_936_83"/>
</filter>
<filter id="filter14_f_936_83" x="479.325" y="604.621" width="673.405" height="673.405" filterUnits="userSpaceOnUse" color-interpolation-filters="sRGB">
<feFlood flood-opacity="0" result="BackgroundImageFix"/>
<feBlend mode="normal" in="SourceGraphic" in2="BackgroundImageFix" result="shape"/>
<feGaussianBlur stdDeviation="88.7683" result="effect1_foregroundBlur_936_83"/>
</filter>
<filter id="filter15_f_936_83" x="737.565" y="530.76" width="673.4" height="673.4" filterUnits="userSpaceOnUse" color-interpolation-filters="sRGB">
<feFlood flood-opacity="0" result="BackgroundImageFix"/>
<feBlend mode="normal" in="SourceGraphic" in2="BackgroundImageFix" result="shape"/>
<feGaussianBlur stdDeviation="88.7683" result="effect1_foregroundBlur_936_83"/>
</filter>
<filter id="filter16_f_936_83" x="709.793" y="-216.535" width="673.407" height="673.407" filterUnits="userSpaceOnUse" color-interpolation-filters="sRGB">
<feFlood flood-opacity="0" result="BackgroundImageFix"/>
<feBlend mode="normal" in="SourceGraphic" in2="BackgroundImageFix" result="shape"/>
<feGaussianBlur stdDeviation="88.7683" result="effect1_foregroundBlur_936_83"/>
</filter>
<filter id="filter17_f_936_83" x="290.207" y="-348.583" width="673.375" height="673.375" filterUnits="userSpaceOnUse" color-interpolation-filters="sRGB">
<feFlood flood-opacity="0" result="BackgroundImageFix"/>
<feBlend mode="normal" in="SourceGraphic" in2="BackgroundImageFix" result="shape"/>
<feGaussianBlur stdDeviation="88.7683" result="effect1_foregroundBlur_936_83"/>
</filter>
<filter id="filter18_f_936_83" x="-155.535" y="-457.871" width="1873.45" height="1873.45" filterUnits="userSpaceOnUse" color-interpolation-filters="sRGB">
<feFlood flood-opacity="0" result="BackgroundImageFix"/>
<feBlend mode="normal" in="SourceGraphic" in2="BackgroundImageFix" result="shape"/>
<feGaussianBlur stdDeviation="181.76" result="effect1_foregroundBlur_936_83"/>
</filter>
<linearGradient id="paint0_linear_936_83" x1="208.129" y1="-94.2074" x2="1393.42" y2="-52.1626" gradientUnits="userSpaceOnUse">
<stop stop-color="#FA00FF"/>
<stop offset="0.234375" stop-color="#1ED6FF"/>
<stop offset="0.473958" stop-color="#FF620A"/>
<stop offset="0.713542" stop-color="#38A0FF"/>
<stop offset="0.974211" stop-color="#FF1D89"/>
</linearGradient>
<linearGradient id="paint1_linear_936_83" x1="208.129" y1="-94.2074" x2="1393.42" y2="-52.1626" gradientUnits="userSpaceOnUse">
<stop offset="0.234375" stop-color="#1EA0FF"/>
<stop offset="0.473958" stop-color="#FF0AAC"/>
<stop offset="0.895833" stop-color="#38CFFF"/>
</linearGradient>
<linearGradient id="paint2_linear_936_83" x1="221.691" y1="-218.069" x2="981.669" y2="-191.111" gradientUnits="userSpaceOnUse">
<stop offset="0.234375" stop-color="#1EA0FF"/>
<stop offset="0.473958" stop-color="#FF0AAC"/>
<stop offset="0.895833" stop-color="#38CFFF"/>
</linearGradient>
<linearGradient id="paint3_linear_936_83" x1="285.444" y1="453.527" x2="614.567" y2="465.201" gradientUnits="userSpaceOnUse">
<stop offset="0.234375" stop-color="#1EA0FF"/>
<stop offset="0.473958" stop-color="#FF0AAC"/>
<stop offset="0.895833" stop-color="#38CFFF"/>
</linearGradient>
<linearGradient id="paint4_linear_936_83" x1="575.938" y1="489.486" x2="905.06" y2="501.16" gradientUnits="userSpaceOnUse">
<stop offset="0.234375" stop-color="#1EA0FF"/>
<stop offset="0.473958" stop-color="#FF0AAC"/>
<stop offset="0.895833" stop-color="#38CFFF"/>
</linearGradient>
<linearGradient id="paint5_linear_936_83" x1="1136.68" y1="176.748" x2="1465.81" y2="188.423" gradientUnits="userSpaceOnUse">
<stop offset="0.234375" stop-color="#1EA0FF"/>
<stop offset="0.473958" stop-color="#FF0AAC"/>
<stop offset="0.895833" stop-color="#38CFFF"/>
</linearGradient>
<linearGradient id="paint6_linear_936_83" x1="124.21" y1="186.973" x2="453.332" y2="198.647" gradientUnits="userSpaceOnUse">
<stop offset="0.234375" stop-color="#1EA0FF"/>
<stop offset="0.473958" stop-color="#FF0AAC"/>
<stop offset="0.895833" stop-color="#38CFFF"/>
</linearGradient>
<linearGradient id="paint7_linear_936_83" x1="709.875" y1="-138.445" x2="1469.85" y2="-111.487" gradientUnits="userSpaceOnUse">
<stop offset="0.234375" stop-color="#1EA0FF"/>
<stop offset="0.473958" stop-color="#FF0AAC"/>
<stop offset="0.895833" stop-color="#38CFFF"/>
</linearGradient>
<linearGradient id="paint8_linear_936_83" x1="696.692" y1="353.583" x2="1456.67" y2="380.541" gradientUnits="userSpaceOnUse">
<stop offset="0.234375" stop-color="#1EA0FF"/>
<stop offset="0.473958" stop-color="#FF0AAC"/>
<stop offset="0.895833" stop-color="#38CFFF"/>
</linearGradient>
<linearGradient id="paint9_linear_936_83" x1="405.325" y1="564.007" x2="1165.3" y2="590.965" gradientUnits="userSpaceOnUse">
<stop offset="0.234375" stop-color="#1ED6FF"/>
<stop offset="0.473958" stop-color="#FF620A"/>
<stop offset="0.895833" stop-color="#38A0FF"/>
</linearGradient>
<linearGradient id="paint10_linear_936_83" x1="824.818" y1="222.727" x2="1584.8" y2="249.686" gradientUnits="userSpaceOnUse">
<stop offset="0.234375" stop-color="#1ED6FF"/>
<stop offset="0.473958" stop-color="#FF620A"/>
<stop offset="0.895833" stop-color="#38A0FF"/>
</linearGradient>
<linearGradient id="paint11_linear_936_83" x1="555.976" y1="222.104" x2="885.098" y2="233.779" gradientUnits="userSpaceOnUse">
<stop offset="0.234375" stop-color="#1ED6FF"/>
<stop offset="0.473958" stop-color="#FF620A"/>
<stop offset="0.895833" stop-color="#38A0FF"/>
</linearGradient>
<linearGradient id="paint12_linear_936_83" x1="886.207" y1="451.64" x2="1215.33" y2="463.315" gradientUnits="userSpaceOnUse">
<stop offset="0.234375" stop-color="#1ED6FF"/>
<stop offset="0.473958" stop-color="#FF620A"/>
<stop offset="0.895833" stop-color="#38A0FF"/>
</linearGradient>
<linearGradient id="paint13_linear_936_83" x1="85.8144" y1="341.126" x2="845.792" y2="368.084" gradientUnits="userSpaceOnUse">
<stop offset="0.234375" stop-color="#1ED6FF"/>
<stop offset="0.473958" stop-color="#FF620A"/>
<stop offset="0.895833" stop-color="#38A0FF"/>
</linearGradient>
<linearGradient id="paint14_linear_936_83" x1="25.9188" y1="-51.8279" x2="785.897" y2="-24.8697" gradientUnits="userSpaceOnUse">
<stop offset="0.234375" stop-color="#1ED6FF"/>
<stop offset="0.473958" stop-color="#FF620A"/>
<stop offset="0.895833" stop-color="#38A0FF"/>
</linearGradient>
<linearGradient id="paint15_linear_936_83" x1="656.903" y1="782.199" x2="986.026" y2="793.874" gradientUnits="userSpaceOnUse">
<stop offset="0.234375" stop-color="#1ED6FF"/>
<stop offset="0.473958" stop-color="#FF620A"/>
<stop offset="0.895833" stop-color="#38A0FF"/>
</linearGradient>
<linearGradient id="paint16_linear_936_83" x1="915.141" y1="708.337" x2="1244.26" y2="720.011" gradientUnits="userSpaceOnUse">
<stop offset="0.234375" stop-color="#1ED6FF"/>
<stop offset="0.473958" stop-color="#FF620A"/>
<stop offset="0.895833" stop-color="#38A0FF"/>
</linearGradient>
<linearGradient id="paint17_linear_936_83" x1="887.373" y1="-38.9549" x2="1216.5" y2="-27.2801" gradientUnits="userSpaceOnUse">
<stop offset="0.234375" stop-color="#1ED6FF"/>
<stop offset="0.473958" stop-color="#FF620A"/>
<stop offset="0.895833" stop-color="#38A0FF"/>
</linearGradient>
<linearGradient id="paint18_linear_936_83" x1="467.771" y1="-171.02" x2="796.894" y2="-159.345" gradientUnits="userSpaceOnUse">
<stop offset="0.234375" stop-color="#1ED6FF"/>
<stop offset="0.473958" stop-color="#FF620A"/>
<stop offset="0.895833" stop-color="#38A0FF"/>
</linearGradient>
<linearGradient id="paint19_linear_936_83" x1="208.129" y1="-94.2074" x2="1393.42" y2="-52.1626" gradientUnits="userSpaceOnUse">
<stop offset="0.234375" stop-color="#1EA0FF"/>
<stop offset="0.473958" stop-color="#FF0AAC"/>
<stop offset="0.895833" stop-color="#38CFFF"/>
</linearGradient>
<clipPath id="clip0_936_83">
<rect width="98.1023" height="99.0859" fill="white" transform="matrix(0.333848 -0.942627 0.936718 0.350086 135.235 1038.23)"/>
</clipPath>
<clipPath id="clip1_936_83">
<rect width="98.1023" height="99.0859" fill="white" transform="matrix(0.866025 -0.5 0.484961 0.874536 1288.11 956.21)"/>
</clipPath>
</defs>
</svg>
