<svg width="300" height="300" viewBox="0 0 300 300" fill="none" xmlns="http://www.w3.org/2000/svg">
<rect width="300" height="300" rx="20" fill="#FFF964"/>
<path d="M220 106C220 144.66 188.66 176 150 176C111.34 176 80 144.66 80 106C80 67.3401 111.34 36 150 36C188.66 36 220 67.3401 220 106Z" fill="#FF4E4E"/>
<path d="M169.967 91.8129C170.647 91.3985 170.616 90.3391 170.205 89.6454C169.794 88.9535 169.127 88.4585 168.68 87.7891C168.018 86.801 167.906 85.5485 167.635 84.3823C167.035 81.8135 165.592 79.5316 163.942 77.501C162.912 76.2316 157.546 69.8866 154.336 67.4266C151.129 64.9685 147.041 64.6179 144.425 65.0154C143.128 65.2123 141.898 65.726 140.699 66.266C136.387 68.2066 131.789 70.6929 128.222 73.8373C126.308 75.5248 124.555 78.1254 123.858 80.6098C122.989 83.7035 123.536 87.0185 124.289 90.1441C125.411 94.7998 126.984 99.3429 128.977 103.682C129.373 104.542 129.785 105.397 130.28 106.202C131.23 107.749 132.528 109.254 132.541 111.08L132.611 111.744C132.576 111.75 132.543 111.748 132.508 111.755C130.973 112.072 129.883 112.989 129.25 114.476C128.825 115.475 128.636 116.598 128.816 117.675C128.995 118.751 129.564 119.771 130.431 120.386C131.336 121.029 132.495 121.16 133.58 120.943L133.646 121.575C134.592 125.758 133.698 130.625 132.218 134.643C131.633 136.233 130.832 138.146 130.489 139.809C130.489 140.703 130.911 141.024 131.325 141.272C138.661 145.687 146.953 148.59 155.426 149.398C156.757 149.525 158.197 149.327 159.484 148.959C159.231 146.859 159.59 143.692 159.918 141.603C159.867 139.629 172.781 115.273 171.171 117.984C171.171 117.984 168.326 115.532 169.444 114.641C173.166 111.673 171.831 107.154 171.831 107.154C171.831 107.154 173.67 106.483 174.407 101.46C175.148 96.4385 169.967 91.8129 169.967 91.8129Z" fill="#FEBF10"/>
<path d="M150.412 131.58C154.075 132.896 157.806 134.225 161.685 134.381C164.863 134.509 168.647 134.334 171.717 133.496C172.988 133.149 174.26 132.769 175.419 132.135C176.359 131.621 177.238 130.912 177.725 129.943C178.213 128.974 178.235 127.71 177.579 126.851C177.025 126.127 176.114 125.805 175.236 125.604C174.955 125.54 174.61 125.419 174.587 125.126C174.577 125.004 174.631 124.89 174.675 124.777C175.234 123.386 174.638 121.798 173.895 120.499C172.957 118.856 171.147 117.452 169.774 116.169C169.059 115.502 168.262 114.875 167.323 114.634C166.256 114.358 165.136 114.607 164.039 114.714C162.296 114.885 160.501 114.823 158.833 114.277C155.087 114.206 151.353 115.453 148.055 117.27C147.237 117.72 146.439 118.217 145.741 118.841C144.687 119.784 143.895 120.988 143.147 122.197C142.632 123.03 142.127 123.881 141.823 124.817C141.511 125.773 141.414 126.785 141.321 127.789C141.031 130.89 140.829 133.457 142.555 136.025C143.992 138.165 146.482 139.26 148.874 140.13C151.14 140.953 153.5 141.68 155.901 141.575C158.303 141.47 160.765 141.221 162.032 139.13C162.248 138.774 162.454 138.367 162.831 138.202C163.106 138.082 163.418 138.118 163.717 138.116C165.486 138.114 167.14 136.624 167.361 134.829" fill="#A37B57"/>
<path d="M174.326 99.4704C174.099 98.1598 173.591 96.9166 173.054 95.7054C172.805 95.141 172.119 94.4754 171.76 93.9766C171.296 93.3297 170.678 92.8122 170.012 92.3885C167.93 91.0629 165.315 90.6429 162.938 91.2541C160.585 91.8579 158.503 93.4629 157.273 95.6004C155.674 93.2416 153.219 91.9047 150.508 91.796C148.1 91.7004 145.673 91.8785 143.743 93.4479C141.812 95.0173 140.562 97.541 140.415 100.16C140.325 101.765 140.628 103.363 140.928 104.938C141.082 105.742 141.24 106.56 141.581 107.293C142.437 109.132 144.305 110.149 146.142 110.655C147.246 110.96 148.381 111.127 149.519 111.152C150.244 111.169 150.97 111.125 151.681 110.979C153.881 110.527 155.866 109.046 157.142 107.042C158.418 105.037 157.962 104.803 158.589 104.074C159.914 105.555 161.214 106.567 166.296 106.374C171.378 106.181 171.835 107.158 171.835 107.158C174.214 105.191 174.774 102.043 174.326 99.4704Z" fill="#D6E5E5"/>
<path d="M148.04 103.556C147.483 103.556 146.945 103.35 146.559 102.965C145.851 102.266 145.798 101.072 146.439 100.357C146.489 100.301 146.544 100.247 146.606 100.192C146.757 99.9879 146.984 99.8398 147.252 99.8004C147.66 99.7441 148.172 99.6673 148.715 99.8116C149.492 100.018 150.073 100.655 150.161 101.396C150.264 102.266 149.683 103.119 148.781 103.429C148.539 103.515 148.287 103.556 148.04 103.556Z" fill="#010101"/>
<path d="M169.921 101.563C169.468 101.563 169.035 101.39 168.707 101.07C168.128 100.507 167.955 99.6035 168.284 98.8741C168.478 98.4429 168.843 98.1129 169.279 97.9723C169.582 97.871 169.902 97.8729 170.196 97.9704C170.742 98.0248 171.221 98.3885 171.477 98.9473C171.747 99.5285 171.717 100.215 171.404 100.732C171.133 101.18 170.683 101.475 170.166 101.548C170.086 101.557 170.003 101.563 169.921 101.563ZM169.446 100.063C169.448 100.063 169.448 100.065 169.448 100.065C169.448 100.065 169.448 100.063 169.446 100.063Z" fill="#010101"/>
<path d="M132.139 117.898C132.017 117.898 131.89 117.872 131.771 117.819C131.307 117.611 131.096 117.058 131.3 116.584C131.5 116.12 131.965 115.037 133.036 114.827C133.546 114.725 133.998 114.874 134.328 114.982C134.481 115.033 134.64 115.085 134.726 115.085C135.232 115.085 135.643 115.505 135.643 116.023C135.643 116.54 135.232 116.96 134.726 116.96C134.352 116.96 134.028 116.854 133.767 116.767C133.639 116.726 133.447 116.657 133.382 116.668C133.349 116.681 133.221 116.773 132.979 117.335C132.827 117.688 132.493 117.898 132.139 117.898Z" fill="#010101"/>
<path d="M178.301 126.274C177.623 125.385 176.589 124.985 175.657 124.738C176.044 123.392 175.723 121.845 174.687 120.026C173.87 118.592 172.495 117.365 171.281 116.282C170.975 116.008 170.674 115.74 170.396 115.477C170.315 115.4 170.218 115.32 170.128 115.241C171.067 114.716 172.027 113.989 172.409 113.317C173.001 112.28 173.206 111.139 173.318 110.259C173.428 109.4 173.461 108.682 173.039 107.914C175.159 105.624 175.694 101.964 175.23 99.3054C174.973 97.8429 174.405 96.4798 173.892 95.3173C173.674 94.826 173.272 94.3498 172.918 93.9335C172.762 93.7498 172.616 93.5791 172.5 93.4198C172.13 92.906 171.62 92.441 171.045 92.006C171.175 91.8054 171.285 91.586 171.345 91.3385C171.518 90.6373 171.384 89.8216 170.993 89.1616C170.722 88.7023 170.372 88.3273 170.062 87.9973C169.842 87.7629 169.62 87.5304 169.439 87.2604C169.032 86.6529 168.874 85.8504 168.705 85.0029C168.65 84.7216 168.593 84.4404 168.529 84.1648C167.976 81.7854 166.742 79.4791 164.652 76.9029C163.403 75.3673 158.088 69.1291 154.891 66.6766C152.823 65.0904 150.399 64.3123 148.161 64.0498C145.983 60.7404 141.475 59.9135 138.177 60.8754C136.468 61.3741 135.071 62.3473 134.05 63.6166C133.898 63.596 133.751 63.5473 133.599 63.536C131.584 63.3654 129.47 63.9504 127.706 65.1766C126.869 65.7635 126.245 66.3954 125.803 67.106C125.376 67.781 125.076 68.606 124.879 69.6241C124.487 71.6773 124.661 73.7998 125.299 75.7648C124.252 77.2179 123.409 78.8116 122.978 80.351C122.032 83.7204 122.659 87.3054 123.398 90.3673C124.529 95.0735 126.128 99.6879 128.146 104.081C128.377 104.585 128.634 105.107 128.907 105.63C127.745 104.456 126.639 103.277 125.725 102.165C125.475 101.861 125.068 101.752 124.709 101.887C124.346 102.022 124.106 102.375 124.106 102.769C124.106 103.856 124.153 104.9 124.201 105.926C124.289 107.878 124.373 109.723 124.115 111.654C124.045 112.166 124.397 112.639 124.9 112.71C124.94 112.717 124.984 112.719 125.024 112.719C125.475 112.719 125.868 112.378 125.93 111.907C126.21 109.809 126.122 107.882 126.031 105.84C126.023 105.658 126.014 105.478 126.007 105.294C127.752 107.175 129.769 109.091 131.577 110.788C131.588 110.884 131.619 110.977 131.619 111.073C130.17 111.574 129.054 112.588 128.407 114.107C127.881 115.346 127.71 116.638 127.91 117.836C128.139 119.212 128.867 120.425 129.906 121.16C130.687 121.714 131.655 121.999 132.669 121.999C132.772 121.999 132.878 121.98 132.981 121.974C133.852 126.135 132.59 130.969 131.36 134.315L130.981 135.324C130.464 136.684 129.877 138.223 129.591 139.618C129.578 139.68 129.571 139.745 129.571 139.811C129.571 141.307 130.473 141.851 130.858 142.082C138.499 146.683 146.964 149.537 155.34 150.334C155.654 150.362 155.964 150.375 156.266 150.375C157.621 150.375 158.866 150.11 159.735 149.863C160.171 149.739 160.453 149.306 160.397 148.847C160.129 146.619 160.607 143.143 160.826 141.754C160.84 141.662 160.826 141.575 160.815 141.489C161.616 141.05 162.329 140.424 162.89 139.5C162.976 139.354 163.121 139.108 163.187 139.07C163.236 139.048 163.411 139.052 163.532 139.057C163.537 139.057 163.711 139.059 163.719 139.059C165.898 139.057 167.902 137.293 168.251 135.097C169.492 134.951 170.755 134.73 171.954 134.404C173.228 134.055 174.583 133.659 175.853 132.962C177.122 132.268 178.028 131.394 178.541 130.37C179.225 129.007 179.13 127.361 178.301 126.274ZM172.22 96.0898C172.687 97.1491 173.206 98.3848 173.424 99.6354C173.813 101.872 173.334 104.831 171.75 106.588C170.575 105.87 168.845 105.487 167.974 105.476C166.925 105.463 165.902 105.469 164.885 105.476C163.858 105.484 162.829 105.489 161.766 105.476C161.337 105.47 160.892 105.463 160.582 105.317L160.279 105.182C160.057 105.082 159.509 104.842 159.278 104.672C159.269 104.636 159.236 104.612 159.223 104.578C159.65 103.142 159.861 101.612 159.771 100.052C159.727 99.2848 159.625 98.6154 159.458 98.006C159.243 97.2335 158.882 96.4591 158.373 95.6041C159.454 93.8979 161.086 92.6979 163.161 92.1635C165.295 91.616 167.671 92.0004 169.53 93.1854C170.174 93.5942 170.674 94.046 171.023 94.5316C171.16 94.7248 171.342 94.9385 171.53 95.1616C171.787 95.4654 172.112 95.846 172.22 96.0898ZM156.713 96.401C157.199 97.1848 157.511 97.856 157.692 98.5141C157.823 98.9885 157.905 99.5266 157.942 100.159C158.074 102.47 157.518 104.732 156.374 106.528C155.195 108.377 153.421 109.663 151.499 110.059C150.916 110.179 150.273 110.225 149.54 110.212C148.474 110.188 147.413 110.03 146.383 109.747C145 109.365 143.189 108.559 142.41 106.886C142.118 106.264 141.979 105.532 141.832 104.756C141.546 103.258 141.251 101.709 141.334 100.211C141.466 97.8429 142.582 95.5891 144.318 94.1791C145.798 92.9735 147.637 92.7091 149.481 92.7091C149.815 92.7091 150.145 92.7166 150.476 92.7316C153.052 92.8329 155.326 94.1698 156.713 96.401ZM138.677 62.6754C140.906 62.0323 143.766 62.4129 145.624 63.9616C145.156 63.986 144.705 64.0254 144.289 64.0891C142.864 64.3048 141.552 64.8598 140.331 65.4091C139.83 65.6341 139.352 65.861 138.873 66.0879C138.089 65.2498 137.124 64.6029 136.057 64.1641C136.772 63.4929 137.654 62.9735 138.677 62.6754ZM134.873 65.6998C135.702 65.9623 136.457 66.3916 137.102 66.9541C136.044 67.4904 135.043 68.0304 134.096 68.5779C134.141 67.526 134.407 66.5529 134.873 65.6998ZM126.682 69.9823C126.83 69.2004 127.046 68.591 127.345 68.1129C127.653 67.616 128.11 67.1623 128.737 66.7235C130.011 65.8366 131.501 65.3998 132.963 65.4073C132.473 66.5266 132.205 67.7716 132.238 69.1085C132.244 69.2885 132.271 69.4873 132.288 69.6748C130.532 70.7923 128.975 71.9379 127.626 73.1285C127.318 73.3985 127.041 73.721 126.749 74.0248C126.471 72.6898 126.427 71.306 126.682 69.9823ZM130.955 119.617C130.326 119.173 129.866 118.389 129.721 117.517C129.58 116.677 129.707 115.757 130.09 114.853C130.605 113.642 131.456 112.931 132.689 112.676C134.103 112.384 135.159 112.667 135.925 113.54C136.758 114.489 137.027 115.982 136.596 117.255C136.176 118.502 135.117 119.529 133.832 119.94C132.781 120.272 131.71 120.152 130.955 119.617ZM158.506 148.241C157.454 148.472 156.415 148.545 155.511 148.464C147.404 147.692 139.201 144.924 131.791 140.464C131.531 140.308 131.424 140.242 131.408 139.899C131.674 138.677 132.211 137.257 132.689 136.001L133.076 134.972C134.398 131.381 135.747 126.159 134.768 121.547C136.415 120.885 137.766 119.525 138.327 117.864C138.978 115.937 138.571 113.747 137.287 112.284C136.44 111.322 135.329 110.814 134.042 110.728L134.64 103.459C135.652 105.57 136.818 107.606 138.123 109.543C138.411 109.972 138.983 110.075 139.398 109.781C139.814 109.489 139.918 108.904 139.63 108.478C137.716 105.639 136.118 102.579 134.877 99.3804C134.721 98.9754 134.308 98.7373 133.89 98.7991C133.47 98.861 133.148 99.2135 133.111 99.6466L132.435 107.885C132.176 107.441 131.907 107.01 131.637 106.603C131.437 106.301 131.237 106.003 131.052 105.699C130.574 104.921 130.17 104.077 129.802 103.28C127.837 98.9998 126.28 94.5016 125.176 89.9154C124.496 87.0935 123.911 83.8104 124.738 80.8648C125.021 79.856 125.528 78.7929 126.157 77.7748C126.685 78.7648 127.331 79.6891 128.115 80.4954C128.295 80.6791 128.531 80.7691 128.764 80.7691C128.997 80.7691 129.234 80.6773 129.413 80.4954C129.771 80.1298 129.771 79.5354 129.415 79.1679C128.553 78.2848 127.864 77.2198 127.373 76.0629C127.827 75.5116 128.31 74.9941 128.817 74.546C129.932 73.5635 131.188 72.611 132.598 71.6773C132.598 71.681 132.6 71.6829 132.6 71.6866C132.942 73.1735 133.425 74.6341 134.037 76.0273C134.189 76.376 134.525 76.5804 134.873 76.5804C134.998 76.5804 135.128 76.5541 135.249 76.4979C135.711 76.286 135.916 75.731 135.709 75.2585C135.144 73.9741 134.699 72.6279 134.382 71.2573C134.328 71.0285 134.301 70.8373 134.262 70.631C136.253 69.4348 138.507 68.2704 141.064 67.121C142.171 66.6223 143.356 66.1198 144.555 65.936C147.107 65.5498 150.867 65.9341 153.784 68.171C156.838 70.5129 162.014 76.5935 163.233 78.0935C165.138 80.4391 166.25 82.5054 166.738 84.5941C166.797 84.8491 166.85 85.1079 166.901 85.3685C167.097 86.3641 167.303 87.3935 167.919 88.3123C168.153 88.6648 168.441 88.976 168.731 89.2873C168.999 89.5723 169.248 89.8423 169.417 90.1254C169.55 90.3504 169.609 90.6673 169.558 90.8773C169.534 90.9748 169.503 90.9935 169.492 90.9991C169.468 91.0141 169.455 91.0366 169.433 91.0535C167.341 90.0523 164.963 89.756 162.708 90.3354C160.437 90.9204 158.55 92.2348 157.221 94.031C155.509 92.1017 153.155 90.9523 150.539 90.8491C148.135 90.7591 145.387 90.8979 143.167 92.7035C141.027 94.4417 139.654 97.2035 139.493 100.097C139.396 101.829 139.715 103.496 140.023 105.11C140.186 105.964 140.355 106.849 140.747 107.685C141.825 110 144.142 111.065 145.895 111.549C147.068 111.874 148.278 112.054 149.492 112.08C149.596 112.082 149.699 112.084 149.802 112.084C150.548 112.084 151.221 112.02 151.853 111.889C154.255 111.395 156.459 109.811 157.903 107.544C158.136 107.179 158.321 106.777 158.512 106.382C158.857 106.59 159.232 106.755 159.55 106.895L159.801 107.008C160.468 107.325 161.17 107.336 161.735 107.344C162.817 107.359 163.854 107.351 164.892 107.344C165.898 107.336 166.903 107.329 167.944 107.344C168.881 107.357 170.674 107.915 171.158 108.448C171.578 108.909 171.613 109.07 171.494 110.014C171.362 111.06 171.153 111.784 170.819 112.37C170.559 112.828 169.182 113.73 168.355 114.02C168.098 113.9 167.829 113.795 167.543 113.722C166.525 113.456 165.556 113.584 164.615 113.7L163.946 113.777C162.07 113.966 160.49 113.831 159.104 113.381C159.02 113.353 158.932 113.34 158.844 113.338C155.283 113.263 151.426 114.343 147.613 116.441C146.892 116.839 145.963 117.39 145.13 118.132C143.97 119.169 143.127 120.461 142.364 121.693C141.832 122.552 141.284 123.478 140.945 124.517C140.598 125.585 140.494 126.707 140.4 127.697C140.116 130.762 139.847 133.657 141.792 136.552C143.352 138.875 145.965 140.068 148.559 141.007C150.731 141.799 153.056 142.519 155.434 142.519C155.601 142.519 155.766 142.515 155.931 142.509C156.932 142.464 157.944 142.393 158.897 142.181C158.692 143.707 158.404 146.212 158.506 148.241ZM176.908 129.514C176.567 130.192 175.921 130.798 174.986 131.31C173.886 131.908 172.652 132.272 171.479 132.59C168.012 133.539 163.878 133.539 161.72 133.445C157.942 133.294 154.268 131.972 150.715 130.695C150.627 130.663 150.539 130.659 150.449 130.655C150.702 130.359 150.968 130.104 151.186 129.947C152.143 129.259 151.228 127.631 150.26 128.329C149.287 129.03 148.535 129.932 148.113 131.083C147.765 132.034 147.457 133.415 148.476 134.029C149.402 134.585 150.233 133.307 149.617 132.607C149.596 132.435 149.6 132.257 149.646 132.071C149.752 132.244 149.903 132.392 150.106 132.465C153.787 133.789 157.593 135.157 161.649 135.32C162.789 135.364 164.463 135.39 166.318 135.272C165.924 136.352 164.826 137.184 163.572 137.184C163.57 137.184 163.57 137.184 163.57 137.184C163.271 137.173 162.877 137.171 162.468 137.345C161.865 137.612 161.552 138.14 161.253 138.641C160.235 140.319 158.121 140.546 155.861 140.642C153.747 140.739 151.663 140.15 149.178 139.249C146.878 138.414 144.573 137.381 143.31 135.499C141.744 133.164 141.972 130.717 142.234 127.88C142.32 126.949 142.41 125.983 142.69 125.119C142.965 124.28 143.429 123.497 143.922 122.704C144.612 121.586 145.369 120.422 146.346 119.55C147.039 118.929 147.855 118.447 148.489 118.099C151.919 116.209 155.386 115.215 158.534 115.215C158.583 115.215 158.637 115.217 158.688 115.217C160.281 115.714 162.065 115.852 164.127 115.65C164.366 115.625 164.604 115.597 164.844 115.565C165.655 115.464 166.421 115.37 167.099 115.543C167.893 115.747 168.614 116.357 169.156 116.861C169.446 117.133 169.756 117.41 170.075 117.692C171.235 118.73 172.436 119.801 173.103 120.969C173.923 122.409 174.167 123.57 173.811 124.455C173.749 124.61 173.642 124.873 173.674 125.197C173.705 125.584 173.923 126.266 175.036 126.515C175.978 126.729 176.539 127.01 176.854 127.423C177.247 127.94 177.269 128.797 176.908 129.514Z" fill="#010101"/>
<path d="M72.6113 261.531C72.6113 260.934 72.5176 260.406 72.3301 259.949C72.1543 259.48 71.8379 259.059 71.3809 258.684C70.9355 258.309 70.3145 257.951 69.5176 257.611C68.7324 257.271 67.7363 256.926 66.5293 256.574C65.2637 256.199 64.1211 255.783 63.1016 255.326C62.082 254.857 61.209 254.324 60.4824 253.727C59.7559 253.129 59.1992 252.443 58.8125 251.67C58.4258 250.896 58.2324 250.012 58.2324 249.016C58.2324 248.02 58.4375 247.1 58.8477 246.256C59.2578 245.412 59.8438 244.68 60.6055 244.059C61.3789 243.426 62.2988 242.934 63.3652 242.582C64.4316 242.23 65.6211 242.055 66.9336 242.055C68.8555 242.055 70.4844 242.424 71.8203 243.162C73.168 243.889 74.1934 244.844 74.8965 246.027C75.5996 247.199 75.9512 248.453 75.9512 249.789H72.5762C72.5762 248.828 72.3711 247.979 71.9609 247.24C71.5508 246.49 70.9297 245.904 70.0977 245.482C69.2656 245.049 68.2109 244.832 66.9336 244.832C65.7266 244.832 64.7305 245.014 63.9453 245.377C63.1602 245.74 62.5742 246.232 62.1875 246.854C61.8125 247.475 61.625 248.184 61.625 248.98C61.625 249.52 61.7363 250.012 61.959 250.457C62.1934 250.891 62.5508 251.295 63.0312 251.67C63.5234 252.045 64.1445 252.391 64.8945 252.707C65.6562 253.023 66.5645 253.328 67.6191 253.621C69.0723 254.031 70.3262 254.488 71.3809 254.992C72.4355 255.496 73.3027 256.064 73.9824 256.697C74.6738 257.318 75.1836 258.027 75.5117 258.824C75.8516 259.609 76.0215 260.5 76.0215 261.496C76.0215 262.539 75.8105 263.482 75.3887 264.326C74.9668 265.17 74.3633 265.891 73.5781 266.488C72.793 267.086 71.8496 267.549 70.748 267.877C69.6582 268.193 68.4395 268.352 67.0918 268.352C65.9082 268.352 64.7422 268.188 63.5938 267.859C62.457 267.531 61.4199 267.039 60.4824 266.383C59.5566 265.727 58.8125 264.918 58.25 263.957C57.6992 262.984 57.4238 261.859 57.4238 260.582H60.7988C60.7988 261.461 60.9688 262.217 61.3086 262.85C61.6484 263.471 62.1113 263.986 62.6973 264.396C63.2949 264.807 63.9688 265.111 64.7188 265.311C65.4805 265.498 66.2715 265.592 67.0918 265.592C68.2754 265.592 69.2773 265.428 70.0977 265.1C70.918 264.771 71.5391 264.303 71.9609 263.693C72.3945 263.084 72.6113 262.363 72.6113 261.531ZM83.3867 248.98V268H80.1172V248.98H83.3867ZM79.8711 243.936C79.8711 243.408 80.0293 242.963 80.3457 242.6C80.6738 242.236 81.1543 242.055 81.7871 242.055C82.4082 242.055 82.8828 242.236 83.2109 242.6C83.5508 242.963 83.7207 243.408 83.7207 243.936C83.7207 244.439 83.5508 244.873 83.2109 245.236C82.8828 245.588 82.4082 245.764 81.7871 245.764C81.1543 245.764 80.6738 245.588 80.3457 245.236C80.0293 244.873 79.8711 244.439 79.8711 243.936ZM91.8418 252.76V268H88.5723V248.98H91.666L91.8418 252.76ZM91.1738 257.77L89.6621 257.717C89.6738 256.416 89.8438 255.215 90.1719 254.113C90.5 253 90.9863 252.033 91.6309 251.213C92.2754 250.393 93.0781 249.76 94.0391 249.314C95 248.857 96.1133 248.629 97.3789 248.629C98.2695 248.629 99.0898 248.758 99.8398 249.016C100.59 249.262 101.24 249.654 101.791 250.193C102.342 250.732 102.77 251.424 103.074 252.268C103.379 253.111 103.531 254.131 103.531 255.326V268H100.279V255.484C100.279 254.488 100.109 253.691 99.7695 253.094C99.4414 252.496 98.9727 252.062 98.3633 251.793C97.7539 251.512 97.0391 251.371 96.2188 251.371C95.2578 251.371 94.4551 251.541 93.8105 251.881C93.166 252.221 92.6504 252.689 92.2637 253.287C91.877 253.885 91.5957 254.57 91.4199 255.344C91.2559 256.105 91.1738 256.914 91.1738 257.77ZM103.496 255.977L101.316 256.645C101.328 255.602 101.498 254.6 101.826 253.639C102.166 252.678 102.652 251.822 103.285 251.072C103.93 250.322 104.721 249.73 105.658 249.297C106.596 248.852 107.668 248.629 108.875 248.629C109.895 248.629 110.797 248.764 111.582 249.033C112.379 249.303 113.047 249.719 113.586 250.281C114.137 250.832 114.553 251.541 114.834 252.408C115.115 253.275 115.256 254.307 115.256 255.502V268H111.986V255.467C111.986 254.4 111.816 253.574 111.477 252.988C111.148 252.391 110.68 251.975 110.07 251.74C109.473 251.494 108.758 251.371 107.926 251.371C107.211 251.371 106.578 251.494 106.027 251.74C105.477 251.986 105.014 252.326 104.639 252.76C104.264 253.182 103.977 253.668 103.777 254.219C103.59 254.77 103.496 255.355 103.496 255.977ZM123.43 252.637V275.312H120.16V248.98H123.148L123.43 252.637ZM136.244 258.332V258.701C136.244 260.084 136.08 261.367 135.752 262.551C135.424 263.723 134.943 264.742 134.311 265.609C133.689 266.477 132.922 267.15 132.008 267.631C131.094 268.111 130.045 268.352 128.861 268.352C127.654 268.352 126.588 268.152 125.662 267.754C124.736 267.355 123.951 266.775 123.307 266.014C122.662 265.252 122.146 264.338 121.76 263.271C121.385 262.205 121.127 261.004 120.986 259.668V257.699C121.127 256.293 121.391 255.033 121.777 253.92C122.164 252.807 122.674 251.857 123.307 251.072C123.951 250.275 124.73 249.672 125.645 249.262C126.559 248.84 127.613 248.629 128.809 248.629C130.004 248.629 131.064 248.863 131.99 249.332C132.916 249.789 133.695 250.445 134.328 251.301C134.961 252.156 135.436 253.182 135.752 254.377C136.08 255.561 136.244 256.879 136.244 258.332ZM132.975 258.701V258.332C132.975 257.383 132.875 256.492 132.676 255.66C132.477 254.816 132.166 254.078 131.744 253.445C131.334 252.801 130.807 252.297 130.162 251.934C129.518 251.559 128.75 251.371 127.859 251.371C127.039 251.371 126.324 251.512 125.715 251.793C125.117 252.074 124.607 252.455 124.186 252.936C123.764 253.404 123.418 253.943 123.148 254.553C122.891 255.15 122.697 255.771 122.568 256.416V260.969C122.803 261.789 123.131 262.562 123.553 263.289C123.975 264.004 124.537 264.584 125.24 265.029C125.943 265.463 126.828 265.68 127.895 265.68C128.773 265.68 129.529 265.498 130.162 265.135C130.807 264.76 131.334 264.25 131.744 263.605C132.166 262.961 132.477 262.223 132.676 261.391C132.875 260.547 132.975 259.65 132.975 258.701ZM140.375 241H143.645V264.309L143.363 268H140.375V241ZM156.494 258.332V258.701C156.494 260.084 156.33 261.367 156.002 262.551C155.674 263.723 155.193 264.742 154.561 265.609C153.928 266.477 153.154 267.15 152.24 267.631C151.326 268.111 150.277 268.352 149.094 268.352C147.887 268.352 146.826 268.146 145.912 267.736C145.01 267.314 144.248 266.711 143.627 265.926C143.006 265.141 142.508 264.191 142.133 263.078C141.77 261.965 141.518 260.711 141.377 259.316V257.699C141.518 256.293 141.77 255.033 142.133 253.92C142.508 252.807 143.006 251.857 143.627 251.072C144.248 250.275 145.01 249.672 145.912 249.262C146.814 248.84 147.863 248.629 149.059 248.629C150.254 248.629 151.314 248.863 152.24 249.332C153.166 249.789 153.939 250.445 154.561 251.301C155.193 252.156 155.674 253.182 156.002 254.377C156.33 255.561 156.494 256.879 156.494 258.332ZM153.225 258.701V258.332C153.225 257.383 153.137 256.492 152.961 255.66C152.785 254.816 152.504 254.078 152.117 253.445C151.73 252.801 151.221 252.297 150.588 251.934C149.955 251.559 149.176 251.371 148.25 251.371C147.43 251.371 146.715 251.512 146.105 251.793C145.508 252.074 144.998 252.455 144.576 252.936C144.154 253.404 143.809 253.943 143.539 254.553C143.281 255.15 143.088 255.771 142.959 256.416V260.652C143.146 261.473 143.451 262.264 143.873 263.025C144.307 263.775 144.881 264.391 145.596 264.871C146.322 265.352 147.219 265.592 148.285 265.592C149.164 265.592 149.914 265.416 150.535 265.064C151.168 264.701 151.678 264.203 152.064 263.57C152.463 262.938 152.756 262.205 152.943 261.373C153.131 260.541 153.225 259.65 153.225 258.701ZM159.746 258.701V258.297C159.746 256.926 159.945 255.654 160.344 254.482C160.742 253.299 161.316 252.273 162.066 251.406C162.816 250.527 163.725 249.848 164.791 249.367C165.857 248.875 167.053 248.629 168.377 248.629C169.713 248.629 170.914 248.875 171.98 249.367C173.059 249.848 173.973 250.527 174.723 251.406C175.484 252.273 176.064 253.299 176.463 254.482C176.861 255.654 177.061 256.926 177.061 258.297V258.701C177.061 260.072 176.861 261.344 176.463 262.516C176.064 263.688 175.484 264.713 174.723 265.592C173.973 266.459 173.064 267.139 171.998 267.631C170.943 268.111 169.748 268.352 168.412 268.352C167.076 268.352 165.875 268.111 164.809 267.631C163.742 267.139 162.828 266.459 162.066 265.592C161.316 264.713 160.742 263.688 160.344 262.516C159.945 261.344 159.746 260.072 159.746 258.701ZM162.998 258.297V258.701C162.998 259.65 163.109 260.547 163.332 261.391C163.555 262.223 163.889 262.961 164.334 263.605C164.791 264.25 165.359 264.76 166.039 265.135C166.719 265.498 167.51 265.68 168.412 265.68C169.303 265.68 170.082 265.498 170.75 265.135C171.43 264.76 171.992 264.25 172.438 263.605C172.883 262.961 173.217 262.223 173.439 261.391C173.674 260.547 173.791 259.65 173.791 258.701V258.297C173.791 257.359 173.674 256.475 173.439 255.643C173.217 254.799 172.877 254.055 172.42 253.41C171.975 252.754 171.412 252.238 170.732 251.863C170.064 251.488 169.279 251.301 168.377 251.301C167.486 251.301 166.701 251.488 166.021 251.863C165.354 252.238 164.791 252.754 164.334 253.41C163.889 254.055 163.555 254.799 163.332 255.643C163.109 256.475 162.998 257.359 162.998 258.297ZM186.201 266.031L191.492 248.98H194.973L187.344 270.936C187.168 271.404 186.934 271.908 186.641 272.447C186.359 272.998 185.996 273.52 185.551 274.012C185.105 274.504 184.566 274.902 183.934 275.207C183.312 275.523 182.568 275.682 181.701 275.682C181.443 275.682 181.115 275.646 180.717 275.576C180.318 275.506 180.037 275.447 179.873 275.4L179.855 272.764C179.949 272.775 180.096 272.787 180.295 272.799C180.506 272.822 180.652 272.834 180.734 272.834C181.473 272.834 182.1 272.734 182.615 272.535C183.131 272.348 183.564 272.025 183.916 271.568C184.279 271.123 184.59 270.508 184.848 269.723L186.201 266.031ZM182.316 248.98L187.256 263.746L188.1 267.174L185.762 268.369L178.766 248.98H182.316Z" fill="black"/>
<path d="M223.896 265.328V268H207.145V265.662L215.529 256.328C216.561 255.18 217.357 254.207 217.92 253.41C218.494 252.602 218.893 251.881 219.115 251.248C219.35 250.604 219.467 249.947 219.467 249.279C219.467 248.436 219.291 247.674 218.939 246.994C218.6 246.303 218.096 245.752 217.428 245.342C216.76 244.932 215.951 244.727 215.002 244.727C213.865 244.727 212.916 244.949 212.154 245.395C211.404 245.828 210.842 246.438 210.467 247.223C210.092 248.008 209.904 248.91 209.904 249.93H206.652C206.652 248.488 206.969 247.17 207.602 245.975C208.234 244.779 209.172 243.83 210.414 243.127C211.656 242.412 213.186 242.055 215.002 242.055C216.619 242.055 218.002 242.342 219.15 242.916C220.299 243.479 221.178 244.275 221.787 245.307C222.408 246.326 222.719 247.521 222.719 248.893C222.719 249.643 222.59 250.404 222.332 251.178C222.086 251.939 221.74 252.701 221.295 253.463C220.861 254.225 220.352 254.975 219.766 255.713C219.191 256.451 218.576 257.178 217.92 257.893L211.064 265.328H223.896ZM230.611 265.275H230.945C232.82 265.275 234.344 265.012 235.516 264.484C236.688 263.957 237.59 263.248 238.223 262.357C238.855 261.467 239.289 260.465 239.523 259.352C239.758 258.227 239.875 257.072 239.875 255.889V251.969C239.875 250.809 239.74 249.777 239.471 248.875C239.213 247.973 238.85 247.217 238.381 246.607C237.924 245.998 237.402 245.535 236.816 245.219C236.23 244.902 235.609 244.744 234.953 244.744C234.203 244.744 233.529 244.896 232.932 245.201C232.346 245.494 231.848 245.91 231.438 246.449C231.039 246.988 230.734 247.621 230.523 248.348C230.312 249.074 230.207 249.865 230.207 250.721C230.207 251.482 230.301 252.221 230.488 252.936C230.676 253.65 230.963 254.295 231.35 254.869C231.736 255.443 232.217 255.9 232.791 256.24C233.377 256.568 234.062 256.732 234.848 256.732C235.574 256.732 236.254 256.592 236.887 256.311C237.531 256.018 238.1 255.625 238.592 255.133C239.096 254.629 239.494 254.061 239.787 253.428C240.092 252.795 240.268 252.133 240.314 251.441H241.861C241.861 252.414 241.668 253.375 241.281 254.324C240.906 255.262 240.379 256.117 239.699 256.891C239.02 257.664 238.223 258.285 237.309 258.754C236.395 259.211 235.398 259.439 234.32 259.439C233.055 259.439 231.959 259.193 231.033 258.701C230.107 258.209 229.346 257.553 228.748 256.732C228.162 255.912 227.723 254.998 227.43 253.99C227.148 252.971 227.008 251.939 227.008 250.896C227.008 249.678 227.178 248.535 227.518 247.469C227.857 246.402 228.361 245.465 229.029 244.656C229.697 243.836 230.523 243.197 231.508 242.74C232.504 242.283 233.652 242.055 234.953 242.055C236.418 242.055 237.666 242.348 238.697 242.934C239.729 243.52 240.566 244.305 241.211 245.289C241.867 246.273 242.348 247.381 242.652 248.611C242.957 249.842 243.109 251.107 243.109 252.408V253.586C243.109 254.91 243.021 256.258 242.846 257.629C242.682 258.988 242.359 260.289 241.879 261.531C241.41 262.773 240.725 263.887 239.822 264.871C238.92 265.844 237.742 266.617 236.289 267.191C234.848 267.754 233.066 268.035 230.945 268.035H230.611V265.275Z" fill="black"/>
</svg>
