<svg width="300" height="300" viewBox="0 0 300 300" fill="none" xmlns="http://www.w3.org/2000/svg">
<rect width="300" height="300" rx="20" fill="#755FFF"/>
<path d="M83.8848 255.256V264.625C83.5684 265.094 83.0645 265.621 82.373 266.207C81.6816 266.781 80.7266 267.285 79.5078 267.719C78.3008 268.141 76.7422 268.352 74.832 268.352C73.2734 268.352 71.8379 268.082 70.5254 267.543C69.2246 266.992 68.0938 266.195 67.1328 265.152C66.1836 264.098 65.4453 262.82 64.918 261.32C64.4023 259.809 64.1445 258.098 64.1445 256.188V254.201C64.1445 252.291 64.3672 250.586 64.8125 249.086C65.2695 247.586 65.9375 246.314 66.8164 245.271C67.6953 244.217 68.7734 243.42 70.0508 242.881C71.3281 242.33 72.793 242.055 74.4453 242.055C76.4023 242.055 78.0371 242.395 79.3496 243.074C80.6738 243.742 81.7051 244.668 82.4434 245.852C83.1934 247.035 83.6738 248.383 83.8848 249.895H80.4922C80.3398 248.969 80.0352 248.125 79.5781 247.363C79.1328 246.602 78.4941 245.992 77.6621 245.535C76.8301 245.066 75.7578 244.832 74.4453 244.832C73.2617 244.832 72.2363 245.049 71.3691 245.482C70.502 245.916 69.7871 246.537 69.2246 247.346C68.6621 248.154 68.2402 249.133 67.959 250.281C67.6895 251.43 67.5547 252.725 67.5547 254.166V256.188C67.5547 257.664 67.7246 258.982 68.0645 260.143C68.416 261.303 68.9141 262.293 69.5586 263.113C70.2031 263.922 70.9707 264.537 71.8613 264.959C72.7637 265.381 73.7598 265.592 74.8496 265.592C76.0566 265.592 77.0352 265.492 77.7852 265.293C78.5352 265.082 79.1211 264.836 79.543 264.555C79.9648 264.262 80.2871 263.986 80.5098 263.729V257.998H74.5859V255.256H83.8848ZM100.232 264.748V254.957C100.232 254.207 100.08 253.557 99.7754 253.006C99.4824 252.443 99.0371 252.01 98.4395 251.705C97.8418 251.4 97.1035 251.248 96.2246 251.248C95.4043 251.248 94.6836 251.389 94.0625 251.67C93.4531 251.951 92.9727 252.32 92.6211 252.777C92.2812 253.234 92.1113 253.727 92.1113 254.254H88.8594C88.8594 253.574 89.0352 252.9 89.3867 252.232C89.7383 251.564 90.2422 250.961 90.8984 250.422C91.5664 249.871 92.3633 249.438 93.2891 249.121C94.2266 248.793 95.2695 248.629 96.418 248.629C97.8008 248.629 99.0195 248.863 100.074 249.332C101.141 249.801 101.973 250.51 102.57 251.459C103.18 252.396 103.484 253.574 103.484 254.992V263.852C103.484 264.484 103.537 265.158 103.643 265.873C103.76 266.588 103.93 267.203 104.152 267.719V268H100.76C100.596 267.625 100.467 267.127 100.373 266.506C100.279 265.873 100.232 265.287 100.232 264.748ZM100.795 256.469L100.83 258.754H97.543C96.6172 258.754 95.791 258.83 95.0645 258.982C94.3379 259.123 93.7285 259.34 93.2363 259.633C92.7441 259.926 92.3691 260.295 92.1113 260.74C91.8535 261.174 91.7246 261.684 91.7246 262.27C91.7246 262.867 91.8594 263.412 92.1289 263.904C92.3984 264.396 92.8027 264.789 93.3418 265.082C93.8926 265.363 94.5664 265.504 95.3633 265.504C96.3594 265.504 97.2383 265.293 98 264.871C98.7617 264.449 99.3652 263.934 99.8105 263.324C100.268 262.715 100.514 262.123 100.549 261.549L101.938 263.113C101.855 263.605 101.633 264.15 101.27 264.748C100.906 265.346 100.42 265.92 99.8105 266.471C99.2129 267.01 98.498 267.461 97.666 267.824C96.8457 268.176 95.9199 268.352 94.8887 268.352C93.5996 268.352 92.4688 268.1 91.4961 267.596C90.5352 267.092 89.7852 266.418 89.2461 265.574C88.7188 264.719 88.4551 263.764 88.4551 262.709C88.4551 261.689 88.6543 260.793 89.0527 260.02C89.4512 259.234 90.0254 258.584 90.7754 258.068C91.5254 257.541 92.4277 257.143 93.4824 256.873C94.5371 256.604 95.7148 256.469 97.0156 256.469H100.795ZM112.133 241V268H108.863V241H112.133Z" fill="black"/>
<path d="M204.896 265.328V268H188.145V265.662L196.529 256.328C197.561 255.18 198.357 254.207 198.92 253.41C199.494 252.602 199.893 251.881 200.115 251.248C200.35 250.604 200.467 249.947 200.467 249.279C200.467 248.436 200.291 247.674 199.939 246.994C199.6 246.303 199.096 245.752 198.428 245.342C197.76 244.932 196.951 244.727 196.002 244.727C194.865 244.727 193.916 244.949 193.154 245.395C192.404 245.828 191.842 246.438 191.467 247.223C191.092 248.008 190.904 248.91 190.904 249.93H187.652C187.652 248.488 187.969 247.17 188.602 245.975C189.234 244.779 190.172 243.83 191.414 243.127C192.656 242.412 194.186 242.055 196.002 242.055C197.619 242.055 199.002 242.342 200.15 242.916C201.299 243.479 202.178 244.275 202.787 245.307C203.408 246.326 203.719 247.521 203.719 248.893C203.719 249.643 203.59 250.404 203.332 251.178C203.086 251.939 202.74 252.701 202.295 253.463C201.861 254.225 201.352 254.975 200.766 255.713C200.191 256.451 199.576 257.178 198.92 257.893L192.064 265.328H204.896ZM225.674 259.387V262.059H207.182V260.143L218.643 242.406H221.297L218.449 247.539L210.873 259.387H225.674ZM222.105 242.406V268H218.854V242.406H222.105Z" fill="black"/>
<path d="M220 100C220 138.66 188.66 170 150 170C111.34 170 80 138.66 80 100C80 61.3401 111.34 30 150 30C188.66 30 220 61.3401 220 100Z" fill="white"/>
<path d="M151.481 130.542C143.232 129.769 135.05 128.396 127 126.435C110.676 122.367 94.8912 115.185 82.4412 103.873C93.4265 92.4025 99.4132 85.7849 108.029 72.4349C114.418 62.5437 122.271 45.1525 134.116 40.6702C152.672 33.6422 177.74 40.4716 183.012 61.3481C185.244 70.1716 185.328 79.401 184.062 88.3746C183.493 92.4202 179.399 131.914 177.047 131.879C168.519 131.733 159.969 131.385 151.481 130.542Z" fill="#F2D4CF"/>
<path d="M201.418 140.667C171.926 163.375 130.79 163.194 101.5 140.226L122.968 130.163C123.625 129.852 124.265 129.507 124.887 129.13L125.381 128.822C125.557 128.711 125.729 128.597 125.901 128.478C128.61 126.609 130.83 124.117 132.374 121.211C134.138 117.88 134.721 114.201 134.747 110.451C134.747 107.928 134.61 105.404 134.584 102.876C134.566 101.479 134.551 100.08 134.54 98.6804L135.422 99.1216L137.716 100.308L151.079 102.58L164.809 104.919L165.224 119.036L165.431 126.038L170.491 128.098L174.462 129.704L201.418 140.667Z" fill="#F2A196"/>
<path d="M165.171 115.458C163.971 116.2 162.837 116.548 161.844 116.442C155.319 115.741 142.591 110.628 134.579 101.164C134.579 100.7 134.571 100.236 134.553 99.7746C134.535 98.3746 134.521 96.976 134.509 95.579L135.391 96.0201L137.685 97.2069L151.04 99.4746L164.769 101.813L165.171 115.458Z" fill="#E88870"/>
<ellipse cx="123.515" cy="84.5584" rx="7.5" ry="7.5" fill="#F2A196"/>
<ellipse cx="126.162" cy="83.676" rx="7.5" ry="7.5" fill="#E88870"/>
<path d="M174.506 73.1981C179.69 91.1496 168.682 112.847 161.915 112.847C152.65 112.847 130.15 105.448 124.975 87.4966C119.8 69.5451 126.665 51.7966 140.341 47.8569C154.018 43.9172 169.309 55.251 174.506 73.1981Z" fill="#F2A196"/>
<circle cx="146.562" cy="78.9069" r="6.68824" fill="#00214E"/>
<ellipse cx="169.221" cy="77.8304" rx="6.68824" ry="6.68823" fill="#00214E"/>
<path d="M160.679 49.2025C158.778 57.4569 154.635 64.4628 147.065 69.5628C138.894 75.2099 129.506 76.0172 120.096 77.8834C120.334 72.0996 120.462 65.9054 123.444 60.7437C126.83 55.0182 131.774 50.373 137.699 47.3496C144.232 43.9746 154.34 40.6657 161.676 43.004C161.476 45.0892 161.143 47.1596 160.679 49.2025V49.2025Z" fill="#F2D4CF"/>
<path d="M158.182 74.0363C158.147 74.1907 161.676 88.3084 161.676 88.3084H156.162" stroke="#00214E"/>
<path d="M163.238 69.5319C166.357 67.9485 169.962 67.6125 173.319 68.5922" stroke="#00214E"/>
<path d="M138.925 71.1643C143.223 68.9731 148.274 68.8113 152.703 70.7231" stroke="#00214E"/>
<path d="M151.971 79.2996L163.238 78.3378" stroke="#00214E"/>
<path d="M201.418 140.667C171.926 163.375 130.79 163.193 101.5 140.226L122.968 130.163C123.99 129.682 124.971 129.119 125.901 128.477C126.184 128.283 126.466 128.08 126.735 127.869C129.072 126.081 130.995 123.81 132.374 121.211C133.416 119.214 134.108 117.054 134.421 114.823C134.732 115.125 135.059 115.411 135.4 115.679C138.106 117.681 141.044 119.35 144.149 120.651C145.655 121.279 147.196 121.823 148.763 122.279C153.486 123.656 158.416 124.177 163.322 123.819C164.001 123.766 164.685 123.7 165.365 123.651L165.431 125.892V126.038L170.769 128.208L201.418 140.667Z" fill="#FF2609"/>
<path d="M146.712 93.2981C146.833 93.1032 147.03 92.9679 147.256 92.9252C147.481 92.8824 147.714 92.9361 147.899 93.0731C148.812 93.7216 150.488 95.0849 152.871 95.5613C156.118 96.2054 158.937 94.9084 159.607 95.7466C159.987 96.2187 159.524 96.7922 158.637 97.5334C156.76 98.9337 154.399 99.5189 152.085 99.1569C148.957 98.5746 146.615 94.9525 146.615 93.6731C146.613 93.5416 146.646 93.412 146.712 93.2981Z" fill="white"/>
</svg>
