<svg width="300" height="300" viewBox="0 0 300 300" fill="none" xmlns="http://www.w3.org/2000/svg">
<rect width="300" height="300" rx="20" fill="#FF52C4"/>
<circle cx="150" cy="101" r="70" fill="#FF94F4"/>
<path d="M168.115 97.0317C165.23 94.1467 165.028 94.3483 162.142 91.4617C158.645 87.965 158.575 82.17 162.072 78.6733C162.677 78.0683 162.88 78.2717 163.487 77.665C165.748 75.4033 168.61 74.2017 171.575 74.2017C174.54 74.2017 177.488 75.315 179.752 77.5767C180.17 77.995 180.085 78.0783 180.503 78.4967C183.1 81.0933 184.497 84.3967 184.497 87.8C184.497 91.2033 183.167 94.5733 180.57 97.17L180.712 97.3117C177.215 100.808 171.612 100.528 168.115 97.0317Z" fill="#74CCCF"/>
<path d="M174.637 100.85C172.135 100.85 169.608 99.7033 167.527 97.6217C166.105 96.2 165.367 95.5583 164.583 94.8783C163.813 94.21 163.017 93.5167 161.553 92.0533C159.702 90.2017 158.672 87.7233 158.652 85.075C158.632 82.4133 159.637 79.9317 161.483 78.085C161.805 77.7633 162.015 77.5817 162.223 77.4C162.408 77.24 162.593 77.0817 162.877 76.7983C165.12 74.555 168.128 73.3683 171.575 73.3683C174.893 73.3683 178.007 74.6533 180.34 76.9883C180.607 77.255 180.713 77.415 180.82 77.5767C180.88 77.6667 180.94 77.7567 181.09 77.9083C183.823 80.6433 185.328 84.1567 185.328 87.8017C185.328 91.5333 183.847 95.0717 181.157 97.7617L180.51 98.3333C178.878 99.9667 176.833 100.85 174.637 100.85ZM171.577 75.035C168.582 75.035 165.98 76.0517 164.057 77.9767C163.735 78.2983 163.525 78.48 163.317 78.6617C163.132 78.8217 162.947 78.98 162.663 79.2633C161.135 80.7917 160.303 82.85 160.32 85.0617C160.337 87.27 161.193 89.3333 162.733 90.8733C164.157 92.2967 164.895 92.9383 165.678 93.6183C166.448 94.2867 167.243 94.9783 168.707 96.4417C171.975 99.7083 176.432 100.06 179.372 97.1167L180.022 96.5433C182.358 94.205 183.667 91.0867 183.667 87.7983C183.667 84.5983 182.335 81.5033 179.917 79.0833C179.648 78.8167 179.542 78.655 179.435 78.495C179.375 78.405 179.315 78.315 179.165 78.1633C177.143 76.1467 174.45 75.035 171.577 75.035Z" fill="#1F212B"/>
<path d="M168.497 94.32C167.028 92.8517 166.925 92.955 165.457 91.4867C163.677 89.7067 163.642 86.7583 165.422 84.9783C165.73 84.67 165.833 84.7733 166.142 84.465C168.445 82.1617 172.112 82.1217 174.413 84.425C174.627 84.6383 174.63 84.6333 174.843 84.8467C176.267 86.27 176.288 88.1533 176.167 90C176.062 91.5817 176.018 93.1367 174.8 94.3567L174.85 94.4067C173.07 96.1867 170.275 96.1 168.497 94.32Z" fill="#FEFDEF"/>
<path d="M171.77 96.5967C170.368 96.5967 168.997 95.9983 167.907 94.9083C167.193 94.195 166.812 93.8633 166.43 93.53C166.027 93.18 165.623 92.8283 164.868 92.0733C163.838 91.0433 163.272 89.6667 163.272 88.195C163.272 86.7467 163.827 85.395 164.833 84.3883C165.008 84.2133 165.25 84.0217 165.493 83.8333C165.678 83.6883 165.865 83.5467 165.998 83.4133C168.463 80.9483 172.327 81.16 175.003 83.835L175.433 84.2567C176.88 85.705 177 87.5017 177 89.22V89.6017C176.99 91.2783 176.977 93.3583 175.388 94.9467L175.295 95.065C174.292 96.0733 173.058 96.5967 171.77 96.5967ZM170.123 83.3067C169.037 83.3067 168.017 83.7517 167.175 84.5917C167 84.7667 166.758 84.9583 166.517 85.1467C166.332 85.2917 166.143 85.4333 166.01 85.5667C165.318 86.2583 164.937 87.1917 164.937 88.195C164.937 89.2217 165.33 90.18 166.045 90.895C166.758 91.6083 167.14 91.94 167.522 92.2733C167.925 92.6233 168.328 92.975 169.083 93.73C170.55 95.195 172.693 95.3117 174.063 93.94L174.157 93.8217C175.235 92.7383 175.32 91.4467 175.332 89.5933V89.2167C175.332 87.7383 175.25 86.4317 174.252 85.4317L173.823 85.0117C172.722 83.9133 171.408 83.3067 170.123 83.3067Z" fill="#1F212B"/>
<path d="M125.997 97.145C128.882 94.26 128.897 94.275 131.783 91.3883C135.28 87.8917 135.497 82.0967 132 78.6C131.395 77.995 131.33 78.0583 130.723 77.4533C128.468 75.1983 125.44 74.1633 122.517 74.1067C119.575 74.05 116.533 74.995 114.263 77.265C113.768 77.77 113.99 77.9883 113.495 78.4933C110.898 81.09 109.623 84.3967 109.623 87.8C109.623 91.2033 110.94 94.465 113.537 97.0633L113.473 97.1267C116.97 100.623 122.5 100.642 125.997 97.145Z" fill="#74CCCF"/>
<path d="M119.757 100.718C117.402 100.718 115.128 99.7417 113.352 97.965L113.027 97.7217C110.267 94.9717 108.79 91.4717 108.79 87.8C108.79 83.62 110.023 80.2667 112.455 77.8367C112.71 77.575 112.902 77.4017 113.093 77.23C113.263 77.075 113.433 76.9217 113.667 76.6833C115.868 74.4817 118.918 73.2733 122.263 73.2733L122.533 73.275C125.947 73.3417 129.063 74.615 131.313 76.865C131.585 77.1367 131.735 77.2583 131.885 77.38C132.07 77.5283 132.255 77.6783 132.588 78.0117C136.378 81.8017 136.282 88.0683 132.372 91.9783C130.937 93.4133 130.212 94.1317 129.49 94.845C128.76 95.5667 128.037 96.2833 126.585 97.7333C124.662 99.6583 122.237 100.718 119.757 100.718ZM122.263 74.9383C119.365 74.9383 116.733 75.9733 114.852 77.855C114.595 78.1167 114.403 78.2917 114.21 78.465C114.04 78.6183 113.87 78.7733 113.638 79.01C111.495 81.1533 110.457 84.0267 110.457 87.8C110.457 91.0733 111.725 94.0733 114.127 96.4733L114.452 96.7167C116.013 98.2683 117.82 99.0517 119.757 99.0517C121.79 99.0517 123.797 98.165 125.408 96.555C126.862 95.1 127.588 94.3833 128.318 93.66C129.038 92.9483 129.763 92.2317 131.195 90.8C134.4 87.595 134.498 82.2783 131.412 79.19C131.14 78.9183 130.99 78.7967 130.84 78.675C130.655 78.5267 130.47 78.3767 130.137 78.0433C128.192 76.1 125.48 74.9983 122.5 74.9417L122.263 74.9383Z" fill="#1F212B"/>
<path d="M125.61 94.4267C127.078 92.9583 127.007 92.8867 128.475 91.4183C130.255 89.6383 130.292 86.8267 128.512 85.0467C128.203 84.7383 128.247 84.695 127.94 84.3867C125.637 82.0833 121.658 81.91 119.54 84.3833C119.323 84.6367 118.98 84.8383 118.68 85.4333C118.01 87.0717 118.018 87.9367 117.907 89.58C117.788 91.33 117.803 93.0283 119.167 94.3917L119.18 94.3783C120.958 96.1567 123.83 96.205 125.61 94.4267Z" fill="#FEFDEF"/>
<path d="M122.443 96.57C121.055 96.57 119.742 96.0483 118.725 95.0967C118.673 95.0633 118.622 95.0267 118.578 94.98C117.203 93.605 117.028 91.9867 117.028 90.7317C117.028 90.3333 117.048 89.93 117.077 89.5217L117.108 89.0483C117.195 87.6933 117.257 86.715 117.91 85.1167C118.22 84.4983 118.545 84.1917 118.76 83.9883C118.815 83.9367 118.865 83.89 118.908 83.84C120.058 82.4983 121.72 81.76 123.587 81.76C125.433 81.76 127.235 82.5017 128.53 83.7967C128.727 83.9933 128.81 84.105 128.893 84.2167C128.942 84.28 128.99 84.345 129.102 84.4567C130.108 85.4617 130.662 86.7883 130.662 88.195C130.662 89.6233 130.095 90.9767 129.065 92.0067C128.347 92.725 128.005 93.1033 127.663 93.48C127.307 93.8733 126.952 94.2667 126.202 95.015C125.197 96.0183 123.863 96.57 122.443 96.57ZM119.647 93.6867C119.69 93.7167 119.732 93.75 119.77 93.7883C121.188 95.205 123.625 95.235 125.022 93.8367C125.742 93.1167 126.083 92.7383 126.427 92.36C126.782 91.9683 127.138 91.575 127.885 90.8267C128.6 90.1117 128.995 89.1767 128.995 88.1933C128.995 87.2333 128.613 86.3233 127.923 85.6333C127.728 85.4383 127.645 85.3267 127.56 85.215C127.512 85.15 127.463 85.0867 127.352 84.9733C126.368 83.99 124.995 83.425 123.587 83.425C122.215 83.425 121.002 83.9567 120.173 84.9233C120.095 85.0167 120.003 85.1033 119.903 85.1983C119.727 85.365 119.575 85.51 119.423 85.8067C118.902 87.0917 118.855 87.8233 118.77 89.1533L118.738 89.635C118.712 90.005 118.693 90.37 118.693 90.73C118.693 92.0667 118.98 92.9633 119.647 93.6867Z" fill="#1F212B"/>
<path d="M155.362 125.783C151.182 125.783 151.182 125.318 147 125.318C142.818 125.318 142.82 125.548 138.638 125.548C134.918 125.548 131.552 124.643 128.63 122.825C125.607 120.943 123.478 118.18 121.895 114.99C120.365 111.908 118.963 108.548 119.318 104.845L119.477 104.86C119.798 101.507 121.028 98.45 122.462 95.5933C123.94 92.645 125.555 89.6933 127.963 87.5067C130.37 85.32 133.402 83.8367 136.478 82.6467C139.458 81.4933 142.68 80.9983 146.048 80.9983C147 80.9983 147 80.46 147.952 80.46C151.302 80.46 154.657 81.06 157.627 82.16C160.712 83.3017 163.078 85.7167 165.495 87.8417C167.925 89.9783 170.698 91.98 172.188 94.9017C173.625 97.7167 174.262 101.057 174.585 104.41C174.652 105.268 174.23 105.292 174.267 106.153C174.428 109.71 173.825 113.07 172.222 116C170.585 118.992 168.018 121.252 165.012 122.988C162.182 124.623 159.002 125.783 155.362 125.783Z" fill="#74CCCF"/>
<path d="M147 126.667C144.882 126.667 143.805 126.593 142.763 126.522C141.703 126.45 140.702 126.382 138.64 126.382C134.743 126.382 131.228 125.423 128.192 123.533C125.287 121.725 122.983 119.052 121.15 115.363C119.577 112.195 118.685 107.593 118.645 104.873C118.595 101.437 120.162 98.32 121.543 95.5683L121.718 95.22C123.195 92.2767 124.85 89.2083 127.405 86.89C130.195 84.355 133.748 82.81 136.178 81.87C139.267 80.6733 146.862 80 147.952 80C151.04 80 154.638 80.1633 157.917 81.3783C160.693 82.405 162.87 84.365 164.975 86.26L166.047 87.2167C166.468 87.5883 166.902 87.955 167.337 88.3233C169.447 90.1133 171.628 91.965 172.932 94.5233C174.227 97.06 175.017 100.178 175.415 104.33C175.495 105.373 174.618 113.355 172.953 116.4C171.382 119.275 168.85 121.735 165.428 123.712C162.042 125.668 158.748 126.618 155.36 126.618C153.275 126.618 152.233 126.63 151.19 126.643C150.143 126.653 149.095 126.667 147 126.667ZM147.952 81.6667C147.062 81.6667 139.6 82.3317 136.778 83.4233C134.473 84.3167 131.108 85.7733 128.523 88.1233C126.182 90.2483 124.613 93.1633 123.207 95.9667L123.032 96.315C121.672 99.0217 120.265 101.82 120.31 104.847C120.348 107.383 121.178 111.672 122.642 114.62C124.333 118.023 126.437 120.477 129.072 122.118C131.84 123.842 135.06 124.715 138.64 124.715C140.758 124.715 141.835 124.788 142.877 124.86C143.937 124.932 144.938 125 147 125C149.085 125 150.127 124.988 151.17 124.975C152.217 124.963 153.265 124.95 155.36 124.95C158.448 124.95 161.468 124.072 164.595 122.267C167.747 120.445 170.067 118.203 171.492 115.6C172.995 112.852 173.805 105.165 173.755 104.473C173.378 100.552 172.643 97.6267 171.447 95.2817C170.293 93.02 168.242 91.2783 166.257 89.595C165.813 89.22 165.375 88.8467 164.945 88.4683C164.583 88.15 164.222 87.825 163.86 87.4983C161.872 85.7083 159.815 83.8583 157.337 82.9417C154.305 81.8183 150.892 81.6667 147.952 81.6667Z" fill="#1F212B"/>
<path d="M152.322 107.5C152.322 110.262 149.762 111.973 147 111.973C144.238 111.973 142.185 110.26 142.185 107.5C142.185 104.74 144.238 99.4467 147 99.4467C149.762 99.4467 152.322 104.738 152.322 107.5Z" fill="#8A4581"/>
<path d="M147 112.808C143.675 112.808 141.352 110.625 141.352 107.5C141.352 104.448 143.552 98.6133 147 98.6133C150.495 98.6133 153.155 104.537 153.155 107.5C153.155 110.525 150.508 112.808 147 112.808ZM147 100.28C144.987 100.28 143.018 104.848 143.018 107.5C143.018 109.712 144.582 111.142 147 111.142C149.177 111.142 151.488 109.865 151.488 107.5C151.488 104.99 149.112 100.28 147 100.28Z" fill="#1F212B"/>
<path d="M160.837 107.372C160.797 107.372 160.755 107.368 160.713 107.363L155.45 106.58C154.995 106.512 154.682 106.088 154.748 105.633C154.817 105.178 155.242 104.877 155.695 104.932L160.958 105.715C161.413 105.783 161.727 106.207 161.66 106.662C161.598 107.075 161.242 107.372 160.837 107.372Z" fill="#1F212B"/>
<path d="M147 116.667C145.418 116.667 143.887 116.19 142.57 115.288C142.19 115.028 142.093 114.51 142.353 114.13C142.613 113.75 143.133 113.653 143.512 113.913C145.567 115.32 148.362 115.337 150.428 113.955C150.812 113.7 151.328 113.803 151.585 114.185C151.84 114.568 151.737 115.087 151.355 115.342C150.055 116.208 148.55 116.667 147 116.667Z" fill="#1F212B"/>
<path d="M132.42 107.372C132.013 107.372 131.658 107.075 131.597 106.662C131.528 106.207 131.843 105.782 132.298 105.715L137.562 104.932C138.022 104.877 138.442 105.178 138.508 105.633C138.577 106.088 138.262 106.513 137.807 106.58L132.543 107.363C132.503 107.368 132.462 107.372 132.42 107.372Z" fill="#1F212B"/>
<path d="M56.4219 253.861H59.7969C59.6211 255.479 59.1582 256.926 58.4082 258.203C57.6582 259.48 56.5977 260.494 55.2266 261.244C53.8555 261.982 52.1445 262.352 50.0938 262.352C48.5938 262.352 47.2285 262.07 45.998 261.508C44.7793 260.945 43.7305 260.148 42.8516 259.117C41.9727 258.074 41.293 256.826 40.8125 255.373C40.3438 253.908 40.1094 252.279 40.1094 250.486V247.938C40.1094 246.145 40.3438 244.521 40.8125 243.068C41.293 241.604 41.9785 240.35 42.8691 239.307C43.7715 238.264 44.8555 237.461 46.1211 236.898C47.3867 236.336 48.8105 236.055 50.3926 236.055C52.3262 236.055 53.9609 236.418 55.2969 237.145C56.6328 237.871 57.6699 238.879 58.4082 240.168C59.1582 241.445 59.6211 242.928 59.7969 244.615H56.4219C56.2578 243.42 55.9531 242.395 55.5078 241.539C55.0625 240.672 54.4297 240.004 53.6094 239.535C52.7891 239.066 51.7168 238.832 50.3926 238.832C49.2559 238.832 48.2539 239.049 47.3867 239.482C46.5312 239.916 45.8105 240.531 45.2246 241.328C44.6504 242.125 44.2168 243.08 43.9238 244.193C43.6309 245.307 43.4844 246.543 43.4844 247.902V250.486C43.4844 251.74 43.6133 252.918 43.8711 254.02C44.1406 255.121 44.5449 256.088 45.084 256.92C45.623 257.752 46.3086 258.408 47.1406 258.889C47.9727 259.357 48.957 259.592 50.0938 259.592C51.5352 259.592 52.6836 259.363 53.5391 258.906C54.3945 258.449 55.0391 257.793 55.4727 256.938C55.918 256.082 56.2344 255.057 56.4219 253.861ZM63.0664 252.701V252.297C63.0664 250.926 63.2656 249.654 63.6641 248.482C64.0625 247.299 64.6367 246.273 65.3867 245.406C66.1367 244.527 67.0449 243.848 68.1113 243.367C69.1777 242.875 70.373 242.629 71.6973 242.629C73.0332 242.629 74.2344 242.875 75.3008 243.367C76.3789 243.848 77.293 244.527 78.043 245.406C78.8047 246.273 79.3848 247.299 79.7832 248.482C80.1816 249.654 80.3809 250.926 80.3809 252.297V252.701C80.3809 254.072 80.1816 255.344 79.7832 256.516C79.3848 257.688 78.8047 258.713 78.043 259.592C77.293 260.459 76.3848 261.139 75.3184 261.631C74.2637 262.111 73.0684 262.352 71.7324 262.352C70.3965 262.352 69.1953 262.111 68.1289 261.631C67.0625 261.139 66.1484 260.459 65.3867 259.592C64.6367 258.713 64.0625 257.688 63.6641 256.516C63.2656 255.344 63.0664 254.072 63.0664 252.701ZM66.3184 252.297V252.701C66.3184 253.65 66.4297 254.547 66.6523 255.391C66.875 256.223 67.209 256.961 67.6543 257.605C68.1113 258.25 68.6797 258.76 69.3594 259.135C70.0391 259.498 70.8301 259.68 71.7324 259.68C72.623 259.68 73.4023 259.498 74.0703 259.135C74.75 258.76 75.3125 258.25 75.7578 257.605C76.2031 256.961 76.5371 256.223 76.7598 255.391C76.9941 254.547 77.1113 253.65 77.1113 252.701V252.297C77.1113 251.359 76.9941 250.475 76.7598 249.643C76.5371 248.799 76.1973 248.055 75.7402 247.41C75.2949 246.754 74.7324 246.238 74.0527 245.863C73.3848 245.488 72.5996 245.301 71.6973 245.301C70.8066 245.301 70.0215 245.488 69.3418 245.863C68.6738 246.238 68.1113 246.754 67.6543 247.41C67.209 248.055 66.875 248.799 66.6523 249.643C66.4297 250.475 66.3184 251.359 66.3184 252.297ZM95.6738 258.748V248.957C95.6738 248.207 95.5215 247.557 95.2168 247.006C94.9238 246.443 94.4785 246.01 93.8809 245.705C93.2832 245.4 92.5449 245.248 91.666 245.248C90.8457 245.248 90.125 245.389 89.5039 245.67C88.8945 245.951 88.4141 246.32 88.0625 246.777C87.7227 247.234 87.5527 247.727 87.5527 248.254H84.3008C84.3008 247.574 84.4766 246.9 84.8281 246.232C85.1797 245.564 85.6836 244.961 86.3398 244.422C87.0078 243.871 87.8047 243.438 88.7305 243.121C89.668 242.793 90.7109 242.629 91.8594 242.629C93.2422 242.629 94.4609 242.863 95.5156 243.332C96.582 243.801 97.4141 244.51 98.0117 245.459C98.6211 246.396 98.9258 247.574 98.9258 248.992V257.852C98.9258 258.484 98.9785 259.158 99.084 259.873C99.2012 260.588 99.3711 261.203 99.5938 261.719V262H96.2012C96.0371 261.625 95.9082 261.127 95.8145 260.506C95.7207 259.873 95.6738 259.287 95.6738 258.748ZM96.2363 250.469L96.2715 252.754H92.9844C92.0586 252.754 91.2324 252.83 90.5059 252.982C89.7793 253.123 89.1699 253.34 88.6777 253.633C88.1855 253.926 87.8105 254.295 87.5527 254.74C87.2949 255.174 87.166 255.684 87.166 256.27C87.166 256.867 87.3008 257.412 87.5703 257.904C87.8398 258.396 88.2441 258.789 88.7832 259.082C89.334 259.363 90.0078 259.504 90.8047 259.504C91.8008 259.504 92.6797 259.293 93.4414 258.871C94.2031 258.449 94.8066 257.934 95.252 257.324C95.709 256.715 95.9551 256.123 95.9902 255.549L97.3789 257.113C97.2969 257.605 97.0742 258.15 96.7109 258.748C96.3477 259.346 95.8613 259.92 95.252 260.471C94.6543 261.01 93.9395 261.461 93.1074 261.824C92.2871 262.176 91.3613 262.352 90.3301 262.352C89.041 262.352 87.9102 262.1 86.9375 261.596C85.9766 261.092 85.2266 260.418 84.6875 259.574C84.1602 258.719 83.8965 257.764 83.8965 256.709C83.8965 255.689 84.0957 254.793 84.4941 254.02C84.8926 253.234 85.4668 252.584 86.2168 252.068C86.9668 251.541 87.8691 251.143 88.9238 250.873C89.9785 250.604 91.1562 250.469 92.457 250.469H96.2363ZM107.574 235V262H104.305V235H107.574ZM124.01 258.748V248.957C124.01 248.207 123.857 247.557 123.553 247.006C123.26 246.443 122.814 246.01 122.217 245.705C121.619 245.4 120.881 245.248 120.002 245.248C119.182 245.248 118.461 245.389 117.84 245.67C117.23 245.951 116.75 246.32 116.398 246.777C116.059 247.234 115.889 247.727 115.889 248.254H112.637C112.637 247.574 112.812 246.9 113.164 246.232C113.516 245.564 114.02 244.961 114.676 244.422C115.344 243.871 116.141 243.438 117.066 243.121C118.004 242.793 119.047 242.629 120.195 242.629C121.578 242.629 122.797 242.863 123.852 243.332C124.918 243.801 125.75 244.51 126.348 245.459C126.957 246.396 127.262 247.574 127.262 248.992V257.852C127.262 258.484 127.314 259.158 127.42 259.873C127.537 260.588 127.707 261.203 127.93 261.719V262H124.537C124.373 261.625 124.244 261.127 124.15 260.506C124.057 259.873 124.01 259.287 124.01 258.748ZM124.572 250.469L124.607 252.754H121.32C120.395 252.754 119.568 252.83 118.842 252.982C118.115 253.123 117.506 253.34 117.014 253.633C116.521 253.926 116.146 254.295 115.889 254.74C115.631 255.174 115.502 255.684 115.502 256.27C115.502 256.867 115.637 257.412 115.906 257.904C116.176 258.396 116.58 258.789 117.119 259.082C117.67 259.363 118.344 259.504 119.141 259.504C120.137 259.504 121.016 259.293 121.777 258.871C122.539 258.449 123.143 257.934 123.588 257.324C124.045 256.715 124.291 256.123 124.326 255.549L125.715 257.113C125.633 257.605 125.41 258.15 125.047 258.748C124.684 259.346 124.197 259.92 123.588 260.471C122.99 261.01 122.275 261.461 121.443 261.824C120.623 262.176 119.697 262.352 118.666 262.352C117.377 262.352 116.246 262.1 115.273 261.596C114.312 261.092 113.562 260.418 113.023 259.574C112.496 258.719 112.232 257.764 112.232 256.709C112.232 255.689 112.432 254.793 112.83 254.02C113.229 253.234 113.803 252.584 114.553 252.068C115.303 251.541 116.205 251.143 117.26 250.873C118.314 250.604 119.492 250.469 120.793 250.469H124.572ZM135.91 235V262H132.641V235H135.91ZM152.346 258.748V248.957C152.346 248.207 152.193 247.557 151.889 247.006C151.596 246.443 151.15 246.01 150.553 245.705C149.955 245.4 149.217 245.248 148.338 245.248C147.518 245.248 146.797 245.389 146.176 245.67C145.566 245.951 145.086 246.32 144.734 246.777C144.395 247.234 144.225 247.727 144.225 248.254H140.973C140.973 247.574 141.148 246.9 141.5 246.232C141.852 245.564 142.355 244.961 143.012 244.422C143.68 243.871 144.477 243.438 145.402 243.121C146.34 242.793 147.383 242.629 148.531 242.629C149.914 242.629 151.133 242.863 152.188 243.332C153.254 243.801 154.086 244.51 154.684 245.459C155.293 246.396 155.598 247.574 155.598 248.992V257.852C155.598 258.484 155.65 259.158 155.756 259.873C155.873 260.588 156.043 261.203 156.266 261.719V262H152.873C152.709 261.625 152.58 261.127 152.486 260.506C152.393 259.873 152.346 259.287 152.346 258.748ZM152.908 250.469L152.943 252.754H149.656C148.73 252.754 147.904 252.83 147.178 252.982C146.451 253.123 145.842 253.34 145.35 253.633C144.857 253.926 144.482 254.295 144.225 254.74C143.967 255.174 143.838 255.684 143.838 256.27C143.838 256.867 143.973 257.412 144.242 257.904C144.512 258.396 144.916 258.789 145.455 259.082C146.006 259.363 146.68 259.504 147.477 259.504C148.473 259.504 149.352 259.293 150.113 258.871C150.875 258.449 151.479 257.934 151.924 257.324C152.381 256.715 152.627 256.123 152.662 255.549L154.051 257.113C153.969 257.605 153.746 258.15 153.383 258.748C153.02 259.346 152.533 259.92 151.924 260.471C151.326 261.01 150.611 261.461 149.779 261.824C148.959 262.176 148.033 262.352 147.002 262.352C145.713 262.352 144.582 262.1 143.609 261.596C142.648 261.092 141.898 260.418 141.359 259.574C140.832 258.719 140.568 257.764 140.568 256.709C140.568 255.689 140.768 254.793 141.166 254.02C141.564 253.234 142.139 252.584 142.889 252.068C143.639 251.541 144.541 251.143 145.596 250.873C146.65 250.604 147.828 250.469 149.129 250.469H152.908ZM160.695 235H163.965V258.309L163.684 262H160.695V235ZM176.814 252.332V252.701C176.814 254.084 176.65 255.367 176.322 256.551C175.994 257.723 175.514 258.742 174.881 259.609C174.248 260.477 173.475 261.15 172.561 261.631C171.646 262.111 170.598 262.352 169.414 262.352C168.207 262.352 167.146 262.146 166.232 261.736C165.33 261.314 164.568 260.711 163.947 259.926C163.326 259.141 162.828 258.191 162.453 257.078C162.09 255.965 161.838 254.711 161.697 253.316V251.699C161.838 250.293 162.09 249.033 162.453 247.92C162.828 246.807 163.326 245.857 163.947 245.072C164.568 244.275 165.33 243.672 166.232 243.262C167.135 242.84 168.184 242.629 169.379 242.629C170.574 242.629 171.635 242.863 172.561 243.332C173.486 243.789 174.26 244.445 174.881 245.301C175.514 246.156 175.994 247.182 176.322 248.377C176.65 249.561 176.814 250.879 176.814 252.332ZM173.545 252.701V252.332C173.545 251.383 173.457 250.492 173.281 249.66C173.105 248.816 172.824 248.078 172.438 247.445C172.051 246.801 171.541 246.297 170.908 245.934C170.275 245.559 169.496 245.371 168.57 245.371C167.75 245.371 167.035 245.512 166.426 245.793C165.828 246.074 165.318 246.455 164.896 246.936C164.475 247.404 164.129 247.943 163.859 248.553C163.602 249.15 163.408 249.771 163.279 250.416V254.652C163.467 255.473 163.771 256.264 164.193 257.025C164.627 257.775 165.201 258.391 165.916 258.871C166.643 259.352 167.539 259.592 168.605 259.592C169.484 259.592 170.234 259.416 170.855 259.064C171.488 258.701 171.998 258.203 172.385 257.57C172.783 256.938 173.076 256.205 173.264 255.373C173.451 254.541 173.545 253.65 173.545 252.701ZM186.061 260.031L191.352 242.98H194.832L187.203 264.936C187.027 265.404 186.793 265.908 186.5 266.447C186.219 266.998 185.855 267.52 185.41 268.012C184.965 268.504 184.426 268.902 183.793 269.207C183.172 269.523 182.428 269.682 181.561 269.682C181.303 269.682 180.975 269.646 180.576 269.576C180.178 269.506 179.896 269.447 179.732 269.4L179.715 266.764C179.809 266.775 179.955 266.787 180.154 266.799C180.365 266.822 180.512 266.834 180.594 266.834C181.332 266.834 181.959 266.734 182.475 266.535C182.99 266.348 183.424 266.025 183.775 265.568C184.139 265.123 184.449 264.508 184.707 263.723L186.061 260.031ZM182.176 242.98L187.115 257.746L187.959 261.174L185.621 262.369L178.625 242.98H182.176Z" fill="black"/>
<path d="M227.896 261.328V264H211.145V261.662L219.529 252.328C220.561 251.18 221.357 250.207 221.92 249.41C222.494 248.602 222.893 247.881 223.115 247.248C223.35 246.604 223.467 245.947 223.467 245.279C223.467 244.436 223.291 243.674 222.939 242.994C222.6 242.303 222.096 241.752 221.428 241.342C220.76 240.932 219.951 240.727 219.002 240.727C217.865 240.727 216.916 240.949 216.154 241.395C215.404 241.828 214.842 242.438 214.467 243.223C214.092 244.008 213.904 244.91 213.904 245.93H210.652C210.652 244.488 210.969 243.17 211.602 241.975C212.234 240.779 213.172 239.83 214.414 239.127C215.656 238.412 217.186 238.055 219.002 238.055C220.619 238.055 222.002 238.342 223.15 238.916C224.299 239.479 225.178 240.275 225.787 241.307C226.408 242.326 226.719 243.521 226.719 244.893C226.719 245.643 226.59 246.404 226.332 247.178C226.086 247.939 225.74 248.701 225.295 249.463C224.861 250.225 224.352 250.975 223.766 251.713C223.191 252.451 222.576 253.178 221.92 253.893L215.064 261.328H227.896ZM242.064 238.266V264H238.812V242.326L232.256 244.717V241.781L241.555 238.266H242.064Z" fill="black"/>
</svg>
