<svg width="300" height="300" viewBox="0 0 300 300" fill="none" xmlns="http://www.w3.org/2000/svg">
<rect width="300" height="300" rx="20" fill="#AAFF76"/>
<circle cx="150" cy="103" r="70" fill="#647DFF"/>
<path d="M180.548 94.3713C177.227 90.1375 166.764 89.0238 166.764 89.0238C166.764 89.0238 166.485 85.9675 166.483 82.7313C166.481 79.4931 163.583 72.205 161.903 69.655C160.223 67.105 158.554 66.2406 152.522 65.7419C152.516 65.7494 152.509 65.7531 152.503 65.7606C152.481 65.5431 152.436 65.3256 152.379 65.1175C152.094 64.1013 151.506 62.9294 150.452 62.875C150.186 62.8619 149.897 62.9219 149.668 62.7831C149.306 62.5656 149.349 62.0444 149.368 61.6225C149.4 60.925 149.321 59.74 148.984 59.1287L143.304 59.1475C143.618 59.8544 142.641 61.1219 142.684 61.8925C142.691 62.0463 142.693 62.2094 142.624 62.3463C142.463 62.6706 142.028 62.71 141.666 62.7419C140.783 62.8206 139.905 63.1356 139.249 63.73C138.636 64.285 138.146 65.4006 138.156 66.265C138.154 66.2631 138.135 66.2556 138.135 66.2556C136.474 66.4919 133.922 67.5944 132.523 68.5206C130.663 69.7525 128.777 71.0294 127.41 72.7938C125.638 75.0831 124.89 78.0138 124.648 80.8975C124.408 83.7812 124.631 86.6819 124.583 89.5769C124.493 94.9619 123.463 100.298 123.371 105.681C123.311 109.173 123.647 112.654 123.87 116.138C124.371 123.987 124.704 132.111 124.629 139.977C126.84 141.218 128.171 142.658 130.429 143.811C132.107 144.668 135.128 145.516 136.956 145.975C138.304 146.312 139.695 146.438 141.079 146.545C149.816 147.222 159.21 147.055 166.5 142.191C166.734 142.034 166.98 141.858 167.081 141.593C167.19 141.306 167.106 140.988 167.036 140.689C166.631 138.949 166.802 137.08 167.518 135.445C166.663 135.141 164.612 134.864 163.704 134.896C163.704 134.896 163.391 136.938 163.391 138.265C161.394 139.321 155.329 140.17 145.898 140.209C136.464 140.249 131.996 137.296 130.178 136.188C128.361 135.079 126.619 131.294 129.204 125.087C131.79 118.881 138.806 121.332 142.943 122.575C147.079 123.818 160.253 123.794 165.611 122.438C170.97 121.083 170.818 119.32 170.788 116.973C177.866 117.164 181.054 112.094 181.819 109.668C182.584 107.241 183.868 98.605 180.548 94.3713Z" fill="#BCBCBC"/>
<path d="M140.108 122.001C127.911 118.703 127.92 129.074 127.92 129.074C127.92 129.074 125.949 136.72 135.456 138.726C144.962 140.732 158.747 142 163.134 138.726L164.021 122.511C164.021 122.511 152.304 125.299 140.108 122.001Z" fill="#D4E2A9"/>
<path d="M148.71 96.6325L155.741 100.452L163.706 96.2406H167.52C167.52 96.2406 174.006 98.9613 173.047 106.047C172.089 113.133 169.063 112.744 169.063 112.744L144.844 112.126C144.844 112.126 139.082 113.123 139.316 108.449C139.553 103.774 140.297 99.235 140.297 99.235C140.297 99.235 141.036 95.4813 148.71 96.6325Z" fill="#D4E2A9"/>
<path d="M150.508 96.8481L156.564 100.851L161.953 96.6325L150.508 96.8481Z" fill="#373837"/>
<path d="M168.75 96.2425C168.75 96.2425 176.953 103.165 170.196 112.75C174.497 112.146 179.203 111.906 178.547 103.78C177.891 95.6538 172.579 95.8131 168.75 96.2425Z" fill="#373837"/>
<path d="M179.469 105.025C179.379 101.665 178.941 98.3106 176.338 96.52C174.821 95.4794 173.029 95.3125 171.169 95.2244C167.327 95.0369 163.468 95.1662 159.737 95.2862L159.116 95.3069C156.772 95.3706 154.447 95.4794 152.122 95.5862C149.786 95.695 147.45 95.8037 145.095 95.8656C143.786 95.9031 141.066 95.9781 139.832 97.9769C139.451 98.5956 139.299 99.2781 139.174 99.9231C138.667 102.559 138.397 105.269 138.371 107.972C138.364 109.045 138.414 110.275 139.146 111.284C140.344 112.943 142.627 113.005 143.856 113.041L162.546 113.56C164.807 113.622 167.068 113.684 169.329 113.684C169.432 113.682 169.532 113.68 169.633 113.678C169.641 113.678 169.648 113.684 169.656 113.684C169.667 113.684 169.678 113.678 169.691 113.678C171.334 113.657 172.929 113.614 174.502 113.129C176.464 112.529 178.026 111.295 178.787 109.748C179.55 108.211 179.503 106.444 179.469 105.025ZM159.169 97.18C159.171 97.18 159.172 97.18 159.174 97.18L159.799 97.1594C159.999 97.1519 160.194 97.1481 160.395 97.1406L158.391 98.4362C157.747 98.8487 157.132 99.2219 156.491 99.4637C156.219 99.2931 155.953 99.1394 155.709 99.0006L153.726 97.8719C153.651 97.8287 153.304 97.6581 152.846 97.435C152.844 97.435 152.842 97.4331 152.841 97.4313C154.942 97.3356 157.048 97.24 159.169 97.18ZM140.666 110.185C140.267 109.634 140.241 108.797 140.246 107.989C140.272 105.398 140.529 102.803 141.015 100.277C141.111 99.7825 141.212 99.3081 141.427 98.9613C142.044 97.96 143.653 97.7819 145.144 97.7425C146.467 97.7069 147.78 97.6412 149.094 97.585C149.327 97.7781 149.865 98.0706 152.019 99.1225C152.407 99.3119 152.707 99.4581 152.794 99.505L154.779 100.634C155.754 101.189 156.529 101.671 156.885 102.385C157.237 103.092 157.157 104.035 157.042 104.937C156.868 106.326 156.279 109.66 154.641 111.466L143.906 111.166C142.566 111.128 141.244 110.984 140.666 110.185ZM162.418 111.681L156.915 111.527C158.179 109.448 158.702 106.78 158.904 105.169C159.047 104.033 159.15 102.721 158.563 101.545C158.426 101.273 158.25 101.037 158.066 100.81C158.531 100.562 158.976 100.289 159.405 100.011L163.416 97.4181C163.562 97.3244 163.657 97.1894 163.729 97.045C164.811 97.0206 165.887 97 166.959 97C167.137 97 167.319 97.0112 167.497 97.0112C167.518 97.0262 167.531 97.0469 167.554 97.06C169.914 98.3575 171.891 101.397 172.149 104.125C172.41 106.827 171.182 110.056 169.279 111.805C167.051 111.807 164.82 111.747 162.418 111.681ZM177.109 108.921C176.574 110.005 175.425 110.886 173.953 111.338C173.28 111.546 172.558 111.668 171.827 111.739C173.389 109.555 174.274 106.585 174.019 103.949C173.784 101.496 172.457 98.9181 170.625 97.0844C170.777 97.09 170.927 97.0881 171.079 97.0937C172.657 97.1706 174.165 97.3019 175.275 98.065C177.186 99.3794 177.517 102.211 177.592 105.072C177.626 106.349 177.664 107.796 177.109 108.921Z" fill="#010101"/>
<path d="M183.718 99.6812C183.246 96.4169 181.671 93.6044 179.396 91.9694C177.6 90.6737 175.423 90.1131 173.503 89.6181L167.67 88.1144C167.666 88.1144 167.664 88.1144 167.661 88.1144C167.728 84.1488 167.25 80.2075 166.17 76.3787C165.126 72.6756 163.746 70.075 161.822 68.1869C159.688 66.0962 156.238 64.4519 153.287 64.8906C153.285 64.885 153.283 64.8737 153.281 64.8681C153.281 64.8681 153.281 64.8681 153.281 64.8662C152.771 63.0475 151.781 62.0087 150.497 61.9412C150.433 61.9375 150.375 61.9375 150.294 61.9506C150.296 61.8625 150.3 61.7612 150.304 61.6694C150.313 61.4725 150.375 59.7062 149.803 58.6769C149.636 58.3806 149.323 58.195 148.982 58.195H148.98L143.302 58.2119C142.986 58.2137 142.682 58.3431 142.509 58.6075C142.337 58.8737 142.301 59.1775 142.427 59.4662C142.44 59.62 142.256 60.0719 142.147 60.3437C141.954 60.8181 141.756 61.3075 141.772 61.7931C141.707 61.8025 141.637 61.8081 141.583 61.8137C140.43 61.9169 139.378 62.3519 138.619 63.04C137.976 63.6212 137.496 64.5606 137.301 65.4662C135.517 65.8806 133.271 66.9044 132.002 67.7462C130.296 68.8787 128.169 70.285 126.664 72.2294C125.001 74.3781 124.007 77.2712 123.712 80.8281C123.555 82.6975 123.591 84.5819 123.622 86.4044C123.641 87.46 123.662 88.5156 123.643 89.5694C123.6 92.2244 123.317 94.93 123.043 97.5494C122.767 100.202 122.479 102.946 122.434 105.676C122.389 108.424 122.586 111.194 122.775 113.875L122.934 116.207C123.51 125.207 123.757 132.981 123.692 139.977C123.688 140.32 123.872 140.637 124.17 140.802C125.147 141.351 125.936 141.934 126.771 142.555C127.732 143.267 128.728 144.004 130.003 144.655C131.839 145.594 135.006 146.461 136.731 146.894C138.15 147.248 139.624 147.381 141.007 147.486C143.242 147.661 145.562 147.786 147.907 147.786C154.513 147.786 161.323 146.781 167.021 142.981C167.274 142.812 167.745 142.499 167.961 141.932C168.163 141.394 168.047 140.894 167.951 140.485C167.589 138.94 167.741 137.286 168.379 135.829C168.484 135.591 168.484 135.321 168.381 135.081C168.276 134.843 168.079 134.657 167.833 134.571C167.025 134.286 165.437 134.039 164.338 133.981C164.357 130.501 164.554 127.006 164.929 123.548C165.63 123.391 166.335 123.239 167.016 123.048C168.322 122.68 169.661 122.191 170.586 121.122C171.495 120.072 171.853 118.943 171.673 117.85C172.864 117.741 174.071 117.561 175.26 117.218C177.977 116.434 180.555 114.451 181.828 112.167C182.529 110.911 182.865 109.502 183.124 108.284C183.666 105.739 184.163 102.73 183.718 99.6812ZM143.886 61.0487C144.009 60.7412 144.142 60.4169 144.225 60.085L148.322 60.0719C148.41 60.4975 148.455 61.0844 148.431 61.6431C148.421 61.8625 148.419 62.1681 148.474 62.4794C146.895 63.085 145.119 63.1487 143.497 62.6594C143.614 62.3687 143.634 62.0837 143.621 61.8475C143.617 61.7106 143.786 61.2962 143.886 61.0487ZM139.881 64.4312C140.286 64.0656 140.863 63.8406 141.506 63.7412C141.602 63.9025 141.733 64.045 141.919 64.1256C143.122 64.6544 144.422 64.9169 145.721 64.9169C147.219 64.9169 148.716 64.5681 150.058 63.8744C150.092 63.8575 150.112 63.8275 150.142 63.8069C150.229 63.8069 150.315 63.8162 150.403 63.8144C150.879 63.8406 151.281 64.6694 151.477 65.3744C151.641 65.9556 151.577 66.0906 151.558 66.1169C151.539 66.1431 151.474 66.2012 151.262 66.3194C149.473 67.3281 147.262 67.7725 144.919 67.6394C142.974 67.5212 141.15 66.7375 139.221 65.9031L139.117 65.86C139.232 65.3425 139.537 64.7425 139.881 64.4312ZM157.536 124.576C157.622 125.736 157.697 126.919 157.757 128.121C154.324 128.534 150.853 128.627 147.396 128.408C147.427 127.007 147.444 125.605 147.502 124.212C151.001 124.624 154.352 124.752 157.536 124.576ZM162.484 132.917C161.597 133.178 160.702 133.397 159.804 133.587C159.784 132.319 159.748 131.05 159.697 129.766C160.673 129.619 161.64 129.443 162.606 129.246C162.542 130.471 162.502 131.693 162.484 132.917ZM157.935 133.913C154.429 134.474 150.876 134.584 147.339 134.406C147.332 133.036 147.328 131.673 147.347 130.3C148.569 130.377 149.794 130.427 151.02 130.427C153.298 130.427 155.574 130.283 157.832 130.017C157.881 131.326 157.916 132.621 157.935 133.913ZM145.461 134.281C142.727 134.072 140.01 133.741 137.351 133.347C136.911 133.281 136.479 133.204 136.044 133.133C135.954 131.569 135.902 130.004 135.872 128.438C139.014 129.274 142.228 129.861 145.472 130.167C145.453 131.541 145.455 132.906 145.461 134.281ZM145.522 128.268C142.249 127.952 139.011 127.339 135.846 126.466C135.842 125.042 135.859 123.619 135.904 122.202C137.001 122.277 138.127 122.513 139.239 122.768L139.498 122.826C141.594 123.304 143.631 123.662 145.633 123.955C145.571 125.384 145.556 126.827 145.522 128.268ZM133.963 125.948C132.804 125.584 131.666 125.166 130.536 124.728C131.271 123.649 132.242 122.794 133.491 122.406C133.663 122.352 133.849 122.348 134.027 122.314C133.989 123.522 133.965 124.735 133.963 125.948ZM128.869 130.039C128.919 128.834 129.178 127.564 129.639 126.402C131.066 126.964 132.519 127.465 133.989 127.909C134.012 129.527 134.064 131.146 134.151 132.76C132.266 132.342 130.494 131.753 129.009 130.675C128.968 130.645 128.919 130.636 128.876 130.613C128.876 130.422 128.861 130.242 128.869 130.039ZM134.269 134.723C134.327 135.554 134.391 136.382 134.466 137.211C132.679 136.667 130.924 135.959 129.911 134.566C129.591 134.123 129.36 133.583 129.186 132.987C130.755 133.847 132.472 134.359 134.269 134.723ZM136.387 137.721C136.303 136.838 136.243 135.951 136.177 135.064C136.477 135.111 136.777 135.158 137.079 135.203C139.755 135.597 142.588 135.938 145.483 136.148C145.496 137.179 145.489 138.212 145.519 139.24C142.425 139.019 139.369 138.49 136.387 137.721ZM147.394 139.311C147.366 138.302 147.373 137.284 147.36 136.272C148.401 136.321 149.445 136.356 150.495 136.356C152.981 136.356 155.481 136.176 157.959 135.803C157.961 136.774 157.95 137.716 157.933 138.636C154.461 139.216 150.922 139.441 147.394 139.311ZM159.836 135.496C160.719 135.319 161.595 135.096 162.469 134.856C162.472 135.792 162.482 136.727 162.51 137.659C161.616 137.896 160.721 138.124 159.814 138.312C159.827 137.387 159.84 136.461 159.836 135.496ZM162.714 127.317C161.691 127.536 160.657 127.709 159.622 127.87C159.562 126.696 159.487 125.543 159.405 124.411C160.631 124.294 161.835 124.137 163.009 123.931C162.892 125.056 162.793 126.184 162.714 127.317ZM169.168 119.892C168.536 120.623 167.464 120.97 166.506 121.24C158.932 123.377 149.985 123.293 139.916 120.998L139.657 120.94C137.565 120.462 135.189 119.918 132.937 120.616C129.058 121.817 127.157 126.175 126.994 129.959C126.892 132.329 127.363 134.249 128.394 135.668C129.793 137.594 132.126 138.486 134.222 139.103C139.087 140.537 144.202 141.252 149.319 141.252C154.326 141.252 159.332 140.566 164.1 139.191C164.597 139.049 164.884 138.527 164.741 138.031C164.679 137.821 164.546 137.659 164.381 137.541C164.364 136.981 164.364 136.418 164.357 135.857C164.94 135.895 165.671 135.992 166.281 136.109C165.814 137.663 165.757 139.341 166.134 140.959C166.162 141.07 166.2 141.233 166.222 141.233H166.224C166.2 141.267 166.117 141.329 165.981 141.421C158.734 146.254 149.361 146.254 141.152 145.617C139.791 145.514 138.463 145.394 137.186 145.073C135.861 144.741 132.589 143.869 130.856 142.984C129.72 142.403 128.829 141.745 127.888 141.047C127.172 140.519 126.439 139.973 125.572 139.448C125.621 132.548 125.372 124.9 124.807 116.087L124.646 113.74C124.459 111.102 124.266 108.374 124.311 105.706C124.356 103.056 124.639 100.354 124.911 97.7406C125.186 95.0837 125.475 92.335 125.52 89.5975C125.539 88.5231 125.518 87.4469 125.499 86.3687C125.466 84.5931 125.434 82.7575 125.582 80.9819C125.848 77.7925 126.712 75.2331 128.149 73.375C129.465 71.6762 131.364 70.4181 133.039 69.3081C134.19 68.545 136.228 67.6469 137.756 67.3075C137.764 67.3112 137.767 67.3187 137.775 67.3225L138.474 67.6225C140.467 68.4831 142.53 69.3719 144.802 69.5087C145.125 69.5294 145.446 69.5387 145.762 69.5387C148.123 69.5387 150.324 68.9969 152.177 67.9525C152.512 67.7631 152.857 67.5381 153.109 67.165C153.186 67.0506 153.214 66.9325 153.262 66.8144C155.539 66.2987 158.661 67.7125 160.507 69.5237C162.187 71.1719 163.414 73.5119 164.364 76.8869C165.457 80.7644 165.917 84.7619 165.78 88.7819C156.405 92.0969 146.059 92.4944 136.477 89.8263C136.271 89.77 136.067 89.8 135.883 89.875C135.716 89.8506 135.542 89.8544 135.375 89.9256C132.126 91.3581 130.914 94.4031 130.033 97.1444C129.176 99.8106 129.015 102.874 129.54 106.512C129.615 107.024 129.637 107.547 129.66 108.062C129.731 109.534 129.802 111.061 130.864 112.358C132.442 114.291 134.805 115.184 136.907 115.799C137.501 115.973 138.084 116.164 138.666 116.357C140.076 116.821 141.534 117.302 143.109 117.501C145.772 117.839 148.481 117.91 151.254 117.959C154.556 118.017 157.892 118.047 161.231 118.047C163.384 118.047 165.538 118.034 167.681 118.009C168.36 118.002 169.069 117.987 169.791 117.961C169.912 118.375 169.914 119.027 169.168 119.892ZM181.29 107.888C181.048 109.022 180.765 110.221 180.191 111.25C179.162 113.095 176.97 114.769 174.741 115.412C172.427 116.08 169.896 116.112 167.664 116.138C162.216 116.198 156.703 116.183 151.292 116.087C148.468 116.039 145.924 115.969 143.349 115.645C141.956 115.469 140.646 115.037 139.256 114.58C138.658 114.383 138.054 114.184 137.439 114.004C135.613 113.468 133.577 112.714 132.322 111.175C131.655 110.356 131.601 109.253 131.541 107.976C131.514 107.401 131.486 106.821 131.404 106.247C130.92 102.897 131.057 100.109 131.824 97.7219C132.784 94.7331 133.837 92.6781 136.102 91.6637C140.469 92.8694 144.988 93.4731 149.509 93.4731C155.325 93.4731 161.13 92.4419 166.616 90.475C166.633 90.4769 166.646 90.4862 166.663 90.4881C166.68 90.49 166.697 90.49 166.712 90.49C166.961 90.49 167.19 90.3906 167.359 90.2294C167.466 90.19 167.576 90.1637 167.681 90.1225C167.709 90.1112 167.728 90.0887 167.754 90.0756L173.038 91.4369C174.883 91.9112 176.792 92.4044 178.305 93.4937C180.167 94.8344 181.466 97.1894 181.864 99.9531C182.263 102.707 181.798 105.511 181.29 107.888Z" fill="#010101"/>
<path d="M165 103H161.25V106.75H165V103Z" fill="#010101"/>
<path d="M146.25 103H142.5V106.75H146.25V103Z" fill="#010101"/>
<path d="M57.9707 238.406H66.4434C68.3652 238.406 69.9883 238.699 71.3125 239.285C72.6484 239.871 73.6621 240.738 74.3535 241.887C75.0566 243.023 75.4082 244.424 75.4082 246.088C75.4082 247.26 75.168 248.332 74.6875 249.305C74.2188 250.266 73.5391 251.086 72.6484 251.766C71.7695 252.434 70.7148 252.932 69.4844 253.26L68.5352 253.629H60.5723L60.5371 250.869H66.5488C67.7676 250.869 68.7812 250.658 69.5898 250.236C70.3984 249.803 71.0078 249.223 71.418 248.496C71.8281 247.77 72.0332 246.967 72.0332 246.088C72.0332 245.104 71.8398 244.242 71.4531 243.504C71.0664 242.766 70.457 242.197 69.625 241.799C68.8047 241.389 67.7441 241.184 66.4434 241.184H61.3633V264H57.9707V238.406ZM72.9297 264L66.707 252.398L70.2402 252.381L76.5508 263.789V264H72.9297ZM78.8008 254.701V254.297C78.8008 252.926 79 251.654 79.3984 250.482C79.7969 249.299 80.3711 248.273 81.1211 247.406C81.8711 246.527 82.7793 245.848 83.8457 245.367C84.9121 244.875 86.1074 244.629 87.4316 244.629C88.7676 244.629 89.9688 244.875 91.0352 245.367C92.1133 245.848 93.0273 246.527 93.7773 247.406C94.5391 248.273 95.1191 249.299 95.5176 250.482C95.916 251.654 96.1152 252.926 96.1152 254.297V254.701C96.1152 256.072 95.916 257.344 95.5176 258.516C95.1191 259.688 94.5391 260.713 93.7773 261.592C93.0273 262.459 92.1191 263.139 91.0527 263.631C89.998 264.111 88.8027 264.352 87.4668 264.352C86.1309 264.352 84.9297 264.111 83.8633 263.631C82.7969 263.139 81.8828 262.459 81.1211 261.592C80.3711 260.713 79.7969 259.688 79.3984 258.516C79 257.344 78.8008 256.072 78.8008 254.701ZM82.0527 254.297V254.701C82.0527 255.65 82.1641 256.547 82.3867 257.391C82.6094 258.223 82.9434 258.961 83.3887 259.605C83.8457 260.25 84.4141 260.76 85.0938 261.135C85.7734 261.498 86.5645 261.68 87.4668 261.68C88.3574 261.68 89.1367 261.498 89.8047 261.135C90.4844 260.76 91.0469 260.25 91.4922 259.605C91.9375 258.961 92.2715 258.223 92.4941 257.391C92.7285 256.547 92.8457 255.65 92.8457 254.701V254.297C92.8457 253.359 92.7285 252.475 92.4941 251.643C92.2715 250.799 91.9316 250.055 91.4746 249.41C91.0293 248.754 90.4668 248.238 89.7871 247.863C89.1191 247.488 88.334 247.301 87.4316 247.301C86.541 247.301 85.7559 247.488 85.0762 247.863C84.4082 248.238 83.8457 248.754 83.3887 249.41C82.9434 250.055 82.6094 250.799 82.3867 251.643C82.1641 252.475 82.0527 253.359 82.0527 254.297ZM100.176 237H103.445V260.309L103.164 264H100.176V237ZM116.295 254.332V254.701C116.295 256.084 116.131 257.367 115.803 258.551C115.475 259.723 114.994 260.742 114.361 261.609C113.729 262.477 112.955 263.15 112.041 263.631C111.127 264.111 110.078 264.352 108.895 264.352C107.688 264.352 106.627 264.146 105.713 263.736C104.811 263.314 104.049 262.711 103.428 261.926C102.807 261.141 102.309 260.191 101.934 259.078C101.57 257.965 101.318 256.711 101.178 255.316V253.699C101.318 252.293 101.57 251.033 101.934 249.92C102.309 248.807 102.807 247.857 103.428 247.072C104.049 246.275 104.811 245.672 105.713 245.262C106.615 244.84 107.664 244.629 108.859 244.629C110.055 244.629 111.115 244.863 112.041 245.332C112.967 245.789 113.74 246.445 114.361 247.301C114.994 248.156 115.475 249.182 115.803 250.377C116.131 251.561 116.295 252.879 116.295 254.332ZM113.025 254.701V254.332C113.025 253.383 112.938 252.492 112.762 251.66C112.586 250.816 112.305 250.078 111.918 249.445C111.531 248.801 111.021 248.297 110.389 247.934C109.756 247.559 108.977 247.371 108.051 247.371C107.23 247.371 106.516 247.512 105.906 247.793C105.309 248.074 104.799 248.455 104.377 248.936C103.955 249.404 103.609 249.943 103.34 250.553C103.082 251.15 102.889 251.771 102.76 252.416V256.652C102.947 257.473 103.252 258.264 103.674 259.025C104.107 259.775 104.682 260.391 105.396 260.871C106.123 261.352 107.02 261.592 108.086 261.592C108.965 261.592 109.715 261.416 110.336 261.064C110.969 260.701 111.479 260.203 111.865 259.57C112.264 258.938 112.557 258.205 112.744 257.373C112.932 256.541 113.025 255.65 113.025 254.701ZM119.547 254.701V254.297C119.547 252.926 119.746 251.654 120.145 250.482C120.543 249.299 121.117 248.273 121.867 247.406C122.617 246.527 123.525 245.848 124.592 245.367C125.658 244.875 126.854 244.629 128.178 244.629C129.514 244.629 130.715 244.875 131.781 245.367C132.859 245.848 133.773 246.527 134.523 247.406C135.285 248.273 135.865 249.299 136.264 250.482C136.662 251.654 136.861 252.926 136.861 254.297V254.701C136.861 256.072 136.662 257.344 136.264 258.516C135.865 259.688 135.285 260.713 134.523 261.592C133.773 262.459 132.865 263.139 131.799 263.631C130.744 264.111 129.549 264.352 128.213 264.352C126.877 264.352 125.676 264.111 124.609 263.631C123.543 263.139 122.629 262.459 121.867 261.592C121.117 260.713 120.543 259.688 120.145 258.516C119.746 257.344 119.547 256.072 119.547 254.701ZM122.799 254.297V254.701C122.799 255.65 122.91 256.547 123.133 257.391C123.355 258.223 123.689 258.961 124.135 259.605C124.592 260.25 125.16 260.76 125.84 261.135C126.52 261.498 127.311 261.68 128.213 261.68C129.104 261.68 129.883 261.498 130.551 261.135C131.23 260.76 131.793 260.25 132.238 259.605C132.684 258.961 133.018 258.223 133.24 257.391C133.475 256.547 133.592 255.65 133.592 254.701V254.297C133.592 253.359 133.475 252.475 133.24 251.643C133.018 250.799 132.678 250.055 132.221 249.41C131.775 248.754 131.213 248.238 130.533 247.863C129.865 247.488 129.08 247.301 128.178 247.301C127.287 247.301 126.502 247.488 125.822 247.863C125.154 248.238 124.592 248.754 124.135 249.41C123.689 250.055 123.355 250.799 123.133 251.643C122.91 252.475 122.799 253.359 122.799 254.297ZM148.551 261.68C149.324 261.68 150.039 261.521 150.695 261.205C151.352 260.889 151.891 260.455 152.312 259.904C152.734 259.342 152.975 258.703 153.033 257.988H156.127C156.068 259.113 155.688 260.162 154.984 261.135C154.293 262.096 153.385 262.875 152.26 263.473C151.135 264.059 149.898 264.352 148.551 264.352C147.121 264.352 145.873 264.1 144.807 263.596C143.752 263.092 142.873 262.4 142.17 261.521C141.479 260.643 140.957 259.635 140.605 258.498C140.266 257.35 140.096 256.137 140.096 254.859V254.121C140.096 252.844 140.266 251.637 140.605 250.5C140.957 249.352 141.479 248.338 142.17 247.459C142.873 246.58 143.752 245.889 144.807 245.385C145.873 244.881 147.121 244.629 148.551 244.629C150.039 244.629 151.34 244.934 152.453 245.543C153.566 246.141 154.439 246.961 155.072 248.004C155.717 249.035 156.068 250.207 156.127 251.52H153.033C152.975 250.734 152.752 250.025 152.365 249.393C151.99 248.76 151.475 248.256 150.818 247.881C150.174 247.494 149.418 247.301 148.551 247.301C147.555 247.301 146.717 247.5 146.037 247.898C145.369 248.285 144.836 248.812 144.438 249.48C144.051 250.137 143.77 250.869 143.594 251.678C143.43 252.475 143.348 253.289 143.348 254.121V254.859C143.348 255.691 143.43 256.512 143.594 257.32C143.758 258.129 144.033 258.861 144.42 259.518C144.818 260.174 145.352 260.701 146.02 261.1C146.699 261.486 147.543 261.68 148.551 261.68ZM158.922 254.701V254.297C158.922 252.926 159.121 251.654 159.52 250.482C159.918 249.299 160.492 248.273 161.242 247.406C161.992 246.527 162.9 245.848 163.967 245.367C165.033 244.875 166.229 244.629 167.553 244.629C168.889 244.629 170.09 244.875 171.156 245.367C172.234 245.848 173.148 246.527 173.898 247.406C174.66 248.273 175.24 249.299 175.639 250.482C176.037 251.654 176.236 252.926 176.236 254.297V254.701C176.236 256.072 176.037 257.344 175.639 258.516C175.24 259.688 174.66 260.713 173.898 261.592C173.148 262.459 172.24 263.139 171.174 263.631C170.119 264.111 168.924 264.352 167.588 264.352C166.252 264.352 165.051 264.111 163.984 263.631C162.918 263.139 162.004 262.459 161.242 261.592C160.492 260.713 159.918 259.688 159.52 258.516C159.121 257.344 158.922 256.072 158.922 254.701ZM162.174 254.297V254.701C162.174 255.65 162.285 256.547 162.508 257.391C162.73 258.223 163.064 258.961 163.51 259.605C163.967 260.25 164.535 260.76 165.215 261.135C165.895 261.498 166.686 261.68 167.588 261.68C168.479 261.68 169.258 261.498 169.926 261.135C170.605 260.76 171.168 260.25 171.613 259.605C172.059 258.961 172.393 258.223 172.615 257.391C172.85 256.547 172.967 255.65 172.967 254.701V254.297C172.967 253.359 172.85 252.475 172.615 251.643C172.393 250.799 172.053 250.055 171.596 249.41C171.15 248.754 170.588 248.238 169.908 247.863C169.24 247.488 168.455 247.301 167.553 247.301C166.662 247.301 165.877 247.488 165.197 247.863C164.529 248.238 163.967 248.754 163.51 249.41C163.064 250.055 162.73 250.799 162.508 251.643C162.285 252.475 162.174 253.359 162.174 254.297ZM183.566 248.637V271.312H180.297V244.98H183.285L183.566 248.637ZM196.381 254.332V254.701C196.381 256.084 196.217 257.367 195.889 258.551C195.561 259.723 195.08 260.742 194.447 261.609C193.826 262.477 193.059 263.15 192.145 263.631C191.23 264.111 190.182 264.352 188.998 264.352C187.791 264.352 186.725 264.152 185.799 263.754C184.873 263.355 184.088 262.775 183.443 262.014C182.799 261.252 182.283 260.338 181.896 259.271C181.521 258.205 181.264 257.004 181.123 255.668V253.699C181.264 252.293 181.527 251.033 181.914 249.92C182.301 248.807 182.811 247.857 183.443 247.072C184.088 246.275 184.867 245.672 185.781 245.262C186.695 244.84 187.75 244.629 188.945 244.629C190.141 244.629 191.201 244.863 192.127 245.332C193.053 245.789 193.832 246.445 194.465 247.301C195.098 248.156 195.572 249.182 195.889 250.377C196.217 251.561 196.381 252.879 196.381 254.332ZM193.111 254.701V254.332C193.111 253.383 193.012 252.492 192.812 251.66C192.613 250.816 192.303 250.078 191.881 249.445C191.471 248.801 190.943 248.297 190.299 247.934C189.654 247.559 188.887 247.371 187.996 247.371C187.176 247.371 186.461 247.512 185.852 247.793C185.254 248.074 184.744 248.455 184.322 248.936C183.9 249.404 183.555 249.943 183.285 250.553C183.027 251.15 182.834 251.771 182.705 252.416V256.969C182.939 257.789 183.268 258.562 183.689 259.289C184.111 260.004 184.674 260.584 185.377 261.029C186.08 261.463 186.965 261.68 188.031 261.68C188.91 261.68 189.666 261.498 190.299 261.135C190.943 260.76 191.471 260.25 191.881 259.605C192.303 258.961 192.613 258.223 192.812 257.391C193.012 256.547 193.111 255.65 193.111 254.701Z" fill="black"/>
<path d="M231.896 261.328V264H215.145V261.662L223.529 252.328C224.561 251.18 225.357 250.207 225.92 249.41C226.494 248.602 226.893 247.881 227.115 247.248C227.35 246.604 227.467 245.947 227.467 245.279C227.467 244.436 227.291 243.674 226.939 242.994C226.6 242.303 226.096 241.752 225.428 241.342C224.76 240.932 223.951 240.727 223.002 240.727C221.865 240.727 220.916 240.949 220.154 241.395C219.404 241.828 218.842 242.438 218.467 243.223C218.092 244.008 217.904 244.91 217.904 245.93H214.652C214.652 244.488 214.969 243.17 215.602 241.975C216.234 240.779 217.172 239.83 218.414 239.127C219.656 238.412 221.186 238.055 223.002 238.055C224.619 238.055 226.002 238.342 227.15 238.916C228.299 239.479 229.178 240.275 229.787 241.307C230.408 242.326 230.719 243.521 230.719 244.893C230.719 245.643 230.59 246.404 230.332 247.178C230.086 247.939 229.74 248.701 229.295 249.463C228.861 250.225 228.352 250.975 227.766 251.713C227.191 252.451 226.576 253.178 225.92 253.893L219.064 261.328H231.896ZM239.49 251.818L236.889 251.15L238.172 238.406H251.303V241.412H240.932L240.158 248.373C240.627 248.104 241.219 247.852 241.934 247.617C242.66 247.383 243.492 247.266 244.43 247.266C245.613 247.266 246.674 247.471 247.611 247.881C248.549 248.279 249.346 248.854 250.002 249.604C250.67 250.354 251.18 251.256 251.531 252.311C251.883 253.365 252.059 254.543 252.059 255.844C252.059 257.074 251.889 258.205 251.549 259.236C251.221 260.268 250.723 261.17 250.055 261.943C249.387 262.705 248.543 263.297 247.523 263.719C246.516 264.141 245.326 264.352 243.955 264.352C242.924 264.352 241.945 264.211 241.02 263.93C240.105 263.637 239.285 263.197 238.559 262.611C237.844 262.014 237.258 261.275 236.801 260.396C236.355 259.506 236.074 258.463 235.957 257.268H239.051C239.191 258.229 239.473 259.037 239.895 259.693C240.316 260.35 240.867 260.848 241.547 261.188C242.238 261.516 243.041 261.68 243.955 261.68C244.729 261.68 245.414 261.545 246.012 261.275C246.609 261.006 247.113 260.619 247.523 260.115C247.934 259.611 248.244 259.002 248.455 258.287C248.678 257.572 248.789 256.77 248.789 255.879C248.789 255.07 248.678 254.32 248.455 253.629C248.232 252.938 247.898 252.334 247.453 251.818C247.02 251.303 246.486 250.904 245.854 250.623C245.221 250.33 244.494 250.184 243.674 250.184C242.584 250.184 241.758 250.33 241.195 250.623C240.645 250.916 240.076 251.314 239.49 251.818Z" fill="black"/>
</svg>
