<svg width="182" height="180" viewBox="0 0 182 180" fill="none" xmlns="http://www.w3.org/2000/svg">
<mask id="mask0_861_28" style="mask-type:alpha" maskUnits="userSpaceOnUse" x="33" y="79" width="110" height="101">
<rect x="33.6795" y="79.8534" width="108.834" height="100.147" fill="url(#paint0_linear_861_28)"/>
</mask>
<g mask="url(#mask0_861_28)">
<g opacity="0.8">
<path d="M91.0004 85.8099L117.891 97.5033L130.746 114.618L111.425 170.813L91.0003 161.337L91.0004 85.8099Z" fill="url(#paint1_linear_861_28)"/>
<path opacity="0.8" d="M90.9999 85.8101L91.0003 124.62L114.75 113.4L117.891 97.5036L90.9999 85.8101Z" fill="url(#paint2_linear_861_28)" fill-opacity="0.7"/>
<g opacity="0.8">
<path d="M90.9999 85.8106L64.1046 97.506L51.2538 114.618L70.5749 170.813L91 161.337L90.9999 85.8106Z" fill="url(#paint3_linear_861_28)" fill-opacity="0.7"/>
<path d="M90.9999 85.8106L64.1046 97.506L51.2538 114.618L70.5749 170.813L91 161.337L90.9999 85.8106Z" fill="url(#paint4_linear_861_28)" fill-opacity="0.5"/>
</g>
<path d="M111.426 170.813L91.0003 161.337L91.0003 180.288L111.426 170.813Z" fill="url(#paint5_linear_861_28)"/>
<path d="M91.0005 115.651L77.4756 109.377L91.0005 103.103L104.525 109.377L91.0005 115.651Z" fill="url(#paint6_linear_861_28)" fill-opacity="0.5"/>
<path d="M70.5742 170.813L91.0003 180.288L91.0003 161.337L70.5742 170.813Z" fill="url(#paint7_linear_861_28)" fill-opacity="0.8"/>
<path d="M91.0005 176.295L80.0448 171.212L91.0005 166.13L101.956 171.212L91.0005 176.295Z" fill="url(#paint8_linear_861_28)" fill-opacity="0.6"/>
<path opacity="0.8" d="M91 85.8101L90.9997 124.62L67.25 113.4L64.1092 97.5035L91 85.8101Z" fill="url(#paint9_linear_861_28)"/>
<path d="M51.254 114.618L64.1092 97.5034L67.25 113.4L51.254 114.618Z" fill="url(#paint10_linear_861_28)" fill-opacity="0.7"/>
<path d="M91.0005 130.437L68.9888 120.226L91.0005 110.014L113.012 120.226L91.0005 130.437Z" fill="url(#paint11_linear_861_28)" fill-opacity="0.7"/>
<path d="M91.0005 130.437L68.9888 120.226L91.0005 110.014L113.012 120.226L91.0005 130.437Z" fill="url(#paint12_linear_861_28)" fill-opacity="0.7"/>
<path d="M91.0007 110.015L68.9895 120.225L77.4762 109.377L91.0007 103.103L91.0007 110.015Z" fill="url(#paint13_linear_861_28)" fill-opacity="0.9"/>
<path d="M91.0005 110.012L113.012 120.223L101.956 171.212L91.0005 166.13L91.0005 110.012Z" fill="url(#paint14_linear_861_28)" fill-opacity="0.6"/>
<path d="M91.0002 110.012L68.989 120.223L80.0451 171.212L91.0003 166.13L91.0002 110.012Z" fill="url(#paint15_linear_861_28)" fill-opacity="0.9"/>
<path d="M91.0007 110.015L113.012 120.225L104.525 109.377L91.0007 103.103L91.0007 110.015Z" fill="url(#paint16_linear_861_28)" fill-opacity="0.9"/>
<path d="M130.746 114.618L117.891 97.5035L114.75 113.4L130.746 114.618Z" fill="url(#paint17_linear_861_28)" fill-opacity="0.7"/>
</g>
</g>
<g filter="url(#filter0_f_861_28)">
<ellipse cx="90.9999" cy="95.3968" rx="75" ry="26.2726" fill="url(#paint18_radial_861_28)" fill-opacity="0.6"/>
</g>
<g filter="url(#filter1_f_861_28)">
<ellipse cx="91.0001" cy="95.3967" rx="53.2732" ry="18.6617" fill="url(#paint19_radial_861_28)" fill-opacity="0.6"/>
</g>
<path d="M90.9994 73.755L130.036 91.8639L90.9994 109.973L51.9629 91.8639L90.9994 73.755Z" fill="url(#paint20_linear_861_28)" fill-opacity="0.5"/>
<path d="M90.9996 97.9327L64.1088 86.2393L51.2535 69.1246L70.5746 12.9299L90.9997 22.4058L90.9996 97.9327Z" fill="url(#paint21_linear_861_28)"/>
<path opacity="0.8" d="M90.9999 97.9326L90.9996 59.1223L67.2499 70.3428L64.1091 86.2391L90.9999 97.9326Z" fill="url(#paint22_linear_861_28)" fill-opacity="0.7"/>
<g opacity="0.8">
<path d="M91 97.9322L117.895 86.2367L130.746 69.1246L111.425 12.9299L90.9999 22.4058L91 97.9322Z" fill="url(#paint23_linear_861_28)" fill-opacity="0.7"/>
<path d="M91 97.9322L117.895 86.2367L130.746 69.1246L111.425 12.9299L90.9999 22.4058L91 97.9322Z" fill="url(#paint24_linear_861_28)" fill-opacity="0.5"/>
</g>
<path d="M70.5737 12.9299L90.9997 22.4055L90.9997 3.4543L70.5737 12.9299Z" fill="url(#paint25_linear_861_28)"/>
<path d="M90.9995 68.0913L104.524 74.3654L90.9995 80.6396L77.4747 74.3654L90.9995 68.0913Z" fill="url(#paint26_linear_861_28)" fill-opacity="0.5"/>
<path d="M111.426 12.9299L90.9997 3.4543L90.9997 22.4055L111.426 12.9299Z" fill="url(#paint27_linear_861_28)" fill-opacity="0.8"/>
<path d="M90.9995 7.44797L101.955 12.5303L90.9995 17.6126L80.0438 12.5303L90.9995 7.44797Z" fill="url(#paint28_linear_861_28)" fill-opacity="0.6"/>
<path opacity="0.8" d="M91.0001 97.9325L91.0004 59.1223L114.75 70.3427L117.891 86.239L91.0001 97.9325Z" fill="url(#paint29_linear_861_28)"/>
<path d="M130.746 69.1244L117.891 86.2391L114.75 70.3428L130.746 69.1244Z" fill="url(#paint30_linear_861_28)" fill-opacity="0.7"/>
<path d="M90.9995 53.3058L113.011 63.517L90.9995 73.7281L68.9879 63.517L90.9995 53.3058Z" fill="url(#paint31_linear_861_28)" fill-opacity="0.7"/>
<path d="M90.9995 53.3058L113.011 63.517L90.9995 73.7281L68.9879 63.517L90.9995 53.3058Z" fill="url(#paint32_linear_861_28)" fill-opacity="0.7"/>
<path d="M90.9992 73.7277L113.01 63.5171L104.524 74.3659L90.9992 80.6396V73.7277Z" fill="url(#paint33_linear_861_28)" fill-opacity="0.9"/>
<path d="M90.9995 73.7306L68.9882 63.5196L80.0444 12.5303L90.9995 17.6127L90.9995 73.7306Z" fill="url(#paint34_linear_861_28)" fill-opacity="0.6"/>
<path d="M90.9997 73.7306L113.011 63.5196L101.955 12.5303L90.9997 17.6127L90.9997 73.7306Z" fill="url(#paint35_linear_861_28)" fill-opacity="0.9"/>
<path d="M90.9992 73.7277L68.988 63.5171L77.4746 74.3659L90.9992 80.6396V73.7277Z" fill="url(#paint36_linear_861_28)" fill-opacity="0.9"/>
<path d="M51.254 69.1243L64.1092 86.2391L67.25 70.3427L51.254 69.1243Z" fill="url(#paint37_linear_861_28)" fill-opacity="0.7"/>
<defs>
<filter id="filter0_f_861_28" x="0.472621" y="53.5969" width="181.055" height="83.5999" filterUnits="userSpaceOnUse" color-interpolation-filters="sRGB">
<feFlood flood-opacity="0" result="BackgroundImageFix"/>
<feBlend mode="normal" in="SourceGraphic" in2="BackgroundImageFix" result="shape"/>
<feGaussianBlur stdDeviation="7.76366" result="effect1_foregroundBlur_861_28"/>
</filter>
<filter id="filter1_f_861_28" x="22.1995" y="61.2077" width="137.601" height="68.378" filterUnits="userSpaceOnUse" color-interpolation-filters="sRGB">
<feFlood flood-opacity="0" result="BackgroundImageFix"/>
<feBlend mode="normal" in="SourceGraphic" in2="BackgroundImageFix" result="shape"/>
<feGaussianBlur stdDeviation="7.76366" result="effect1_foregroundBlur_861_28"/>
</filter>
<linearGradient id="paint0_linear_861_28" x1="88.0967" y1="40.2952" x2="88.0967" y2="148.545" gradientUnits="userSpaceOnUse">
<stop/>
<stop offset="1" stop-opacity="0"/>
</linearGradient>
<linearGradient id="paint1_linear_861_28" x1="12.7666" y1="176.76" x2="9.07133" y2="113.098" gradientUnits="userSpaceOnUse">
<stop stop-color="#3D79ED"/>
<stop offset="0.265625" stop-color="#3458C1" stop-opacity="0.7"/>
<stop offset="0.618879" stop-color="#3753B8" stop-opacity="0.7"/>
<stop offset="0.895833" stop-color="#5BB0FF" stop-opacity="0.9"/>
<stop offset="1" stop-color="#5BB0FF" stop-opacity="0.6"/>
</linearGradient>
<linearGradient id="paint2_linear_861_28" x1="94.1804" y1="90.9318" x2="103.652" y2="117.119" gradientUnits="userSpaceOnUse">
<stop offset="0.046875" stop-color="white"/>
<stop offset="0.427083" stop-color="#DFF4FF"/>
<stop offset="0.994792" stop-color="#0E42C8"/>
</linearGradient>
<linearGradient id="paint3_linear_861_28" x1="51.2539" y1="83.4686" x2="89.4941" y2="119.842" gradientUnits="userSpaceOnUse">
<stop offset="0.280479" stop-color="white"/>
<stop offset="0.469567" stop-color="#FF79DA"/>
<stop offset="0.692708" stop-color="#3D3AE3" stop-opacity="0.9"/>
</linearGradient>
<linearGradient id="paint4_linear_861_28" x1="51.2539" y1="87.4076" x2="87.21" y2="130.429" gradientUnits="userSpaceOnUse">
<stop offset="0.161458" stop-color="white"/>
<stop offset="1" stop-color="white" stop-opacity="0"/>
</linearGradient>
<linearGradient id="paint5_linear_861_28" x1="90.9498" y1="179.973" x2="98.5903" y2="164.366" gradientUnits="userSpaceOnUse">
<stop stop-color="#1AD6FF"/>
<stop offset="1" stop-color="#496BE4" stop-opacity="0.6"/>
<stop offset="1" stop-color="#1F3CA3"/>
</linearGradient>
<linearGradient id="paint6_linear_861_28" x1="83.2377" y1="105.838" x2="101.316" y2="111.181" gradientUnits="userSpaceOnUse">
<stop stop-color="#81FF6C"/>
<stop offset="1" stop-color="#31F3FF"/>
</linearGradient>
<linearGradient id="paint7_linear_861_28" x1="70.5741" y1="171.784" x2="89.9532" y2="174.029" gradientUnits="userSpaceOnUse">
<stop stop-color="#FF79C9"/>
<stop offset="1" stop-color="#1F3CA3"/>
</linearGradient>
<linearGradient id="paint8_linear_861_28" x1="82.1622" y1="170.022" x2="94.9925" y2="171.859" gradientUnits="userSpaceOnUse">
<stop stop-color="#52FF6E"/>
<stop offset="1" stop-color="#31FFFF"/>
</linearGradient>
<linearGradient id="paint9_linear_861_28" x1="69.3687" y1="91.9683" x2="76.0146" y2="121.374" gradientUnits="userSpaceOnUse">
<stop offset="0.103809" stop-color="white"/>
<stop offset="0.436548" stop-color="#FFAACE" stop-opacity="0.8"/>
<stop offset="0.71875" stop-color="#6F97FF" stop-opacity="0.8"/>
</linearGradient>
<linearGradient id="paint10_linear_861_28" x1="59.252" y1="101.919" x2="64.8002" y2="115.611" gradientUnits="userSpaceOnUse">
<stop stop-color="white"/>
<stop offset="0.591466" stop-color="#FF94D4"/>
<stop offset="1" stop-color="#C994FF"/>
</linearGradient>
<linearGradient id="paint11_linear_861_28" x1="78.3666" y1="114.465" x2="107.79" y2="123.162" gradientUnits="userSpaceOnUse">
<stop stop-color="#81FF6C"/>
<stop offset="1" stop-color="#31F3FF"/>
</linearGradient>
<linearGradient id="paint12_linear_861_28" x1="91.0005" y1="110.748" x2="91.0005" y2="130.903" gradientUnits="userSpaceOnUse">
<stop stop-color="white"/>
<stop offset="1" stop-color="white" stop-opacity="0"/>
</linearGradient>
<linearGradient id="paint13_linear_861_28" x1="67.9158" y1="120.225" x2="85.9533" y2="99.9212" gradientUnits="userSpaceOnUse">
<stop offset="0.149863" stop-color="white"/>
<stop offset="0.300261" stop-color="#8CFF31"/>
<stop offset="0.449118" stop-color="#45C3EB"/>
<stop offset="1" stop-color="#72E6FF"/>
</linearGradient>
<linearGradient id="paint14_linear_861_28" x1="100.828" y1="110.012" x2="130.355" y2="135.806" gradientUnits="userSpaceOnUse">
<stop stop-color="#6CFFED"/>
<stop offset="1" stop-color="#197F9F"/>
</linearGradient>
<linearGradient id="paint15_linear_861_28" x1="14.0756" y1="132.957" x2="42.3505" y2="169.866" gradientUnits="userSpaceOnUse">
<stop offset="0.464598" stop-color="white"/>
<stop offset="0.790313" stop-color="#6DF390"/>
<stop offset="1" stop-color="#21CAFF" stop-opacity="0.9"/>
</linearGradient>
<linearGradient id="paint16_linear_861_28" x1="113.012" y1="120.225" x2="96.011" y2="100.16" gradientUnits="userSpaceOnUse">
<stop offset="0.125" stop-color="white"/>
<stop offset="0.297772" stop-color="#8CFF31"/>
<stop offset="0.447917" stop-color="#5BF5FF"/>
</linearGradient>
<linearGradient id="paint17_linear_861_28" x1="117.054" y1="96.1146" x2="119.062" y2="114.736" gradientUnits="userSpaceOnUse">
<stop stop-color="#DFF4FF"/>
<stop offset="0.994792" stop-color="#0E42C8"/>
</linearGradient>
<radialGradient id="paint18_radial_861_28" cx="0" cy="0" r="1" gradientUnits="userSpaceOnUse" gradientTransform="translate(90.9999 95.3968) rotate(90) scale(26.2726 75)">
<stop stop-color="#739AFF"/>
<stop offset="1" stop-color="#6978FF" stop-opacity="0"/>
</radialGradient>
<radialGradient id="paint19_radial_861_28" cx="0" cy="0" r="1" gradientUnits="userSpaceOnUse" gradientTransform="translate(91.0001 95.3967) rotate(90) scale(18.6617 53.2732)">
<stop stop-color="#739AFF"/>
<stop offset="1" stop-color="#6978FF" stop-opacity="0"/>
</radialGradient>
<linearGradient id="paint20_linear_861_28" x1="110.518" y1="76.2079" x2="79.9516" y2="114.314" gradientUnits="userSpaceOnUse">
<stop stop-color="#6C7BFF"/>
<stop offset="1" stop-color="#31B5FF"/>
</linearGradient>
<linearGradient id="paint21_linear_861_28" x1="169.233" y1="6.98271" x2="172.929" y2="70.6445" gradientUnits="userSpaceOnUse">
<stop stop-color="#3D79ED"/>
<stop offset="0.265625" stop-color="#3458C1" stop-opacity="0.7"/>
<stop offset="0.618879" stop-color="#3753B8" stop-opacity="0.7"/>
<stop offset="0.895833" stop-color="#5BB0FF" stop-opacity="0.9"/>
<stop offset="1" stop-color="#5BB0FF" stop-opacity="0.6"/>
</linearGradient>
<linearGradient id="paint22_linear_861_28" x1="87.8195" y1="92.8109" x2="78.3482" y2="66.6238" gradientUnits="userSpaceOnUse">
<stop offset="0.046875" stop-color="white"/>
<stop offset="0.427083" stop-color="#DFF4FF"/>
<stop offset="0.994792" stop-color="#0E42C8"/>
</linearGradient>
<linearGradient id="paint23_linear_861_28" x1="130.746" y1="100.274" x2="92.5058" y2="63.9005" gradientUnits="userSpaceOnUse">
<stop offset="0.280479" stop-color="white"/>
<stop offset="0.469567" stop-color="#FF79DA"/>
<stop offset="0.692708" stop-color="#3D3AE3" stop-opacity="0.9"/>
</linearGradient>
<linearGradient id="paint24_linear_861_28" x1="130.746" y1="96.3352" x2="94.7899" y2="53.3134" gradientUnits="userSpaceOnUse">
<stop offset="0.161458" stop-color="white"/>
<stop offset="1" stop-color="white" stop-opacity="0"/>
</linearGradient>
<linearGradient id="paint25_linear_861_28" x1="91.0502" y1="3.76931" x2="83.4097" y2="19.3771" gradientUnits="userSpaceOnUse">
<stop stop-color="#1AD6FF"/>
<stop offset="1" stop-color="#496BE4" stop-opacity="0.6"/>
<stop offset="1" stop-color="#1F3CA3"/>
</linearGradient>
<linearGradient id="paint26_linear_861_28" x1="98.7622" y1="77.9047" x2="80.6836" y2="72.5613" gradientUnits="userSpaceOnUse">
<stop stop-color="#81FF6C"/>
<stop offset="1" stop-color="#31F3FF"/>
</linearGradient>
<linearGradient id="paint27_linear_861_28" x1="111.426" y1="11.9582" x2="92.0467" y2="9.71336" gradientUnits="userSpaceOnUse">
<stop stop-color="#FF79C9"/>
<stop offset="1" stop-color="#1F3CA3"/>
</linearGradient>
<linearGradient id="paint28_linear_861_28" x1="99.8378" y1="13.7205" x2="87.0075" y2="11.8838" gradientUnits="userSpaceOnUse">
<stop stop-color="#52FF6E"/>
<stop offset="1" stop-color="#31FFFF"/>
</linearGradient>
<linearGradient id="paint29_linear_861_28" x1="112.631" y1="91.7742" x2="105.985" y2="62.3682" gradientUnits="userSpaceOnUse">
<stop offset="0.103809" stop-color="white"/>
<stop offset="0.436548" stop-color="#FFAACE" stop-opacity="0.8"/>
<stop offset="0.71875" stop-color="#6F97FF" stop-opacity="0.8"/>
</linearGradient>
<linearGradient id="paint30_linear_861_28" x1="122.748" y1="81.8233" x2="117.2" y2="68.1316" gradientUnits="userSpaceOnUse">
<stop stop-color="white"/>
<stop offset="0.591466" stop-color="#FF94D4"/>
<stop offset="1" stop-color="#C994FF"/>
</linearGradient>
<linearGradient id="paint31_linear_861_28" x1="103.633" y1="69.2772" x2="74.2104" y2="60.5808" gradientUnits="userSpaceOnUse">
<stop stop-color="#81FF6C"/>
<stop offset="1" stop-color="#31F3FF"/>
</linearGradient>
<linearGradient id="paint32_linear_861_28" x1="90.9995" y1="72.9949" x2="90.9995" y2="52.8397" gradientUnits="userSpaceOnUse">
<stop stop-color="white"/>
<stop offset="1" stop-color="white" stop-opacity="0"/>
</linearGradient>
<linearGradient id="paint33_linear_861_28" x1="114.084" y1="63.5171" x2="96.0466" y2="83.8213" gradientUnits="userSpaceOnUse">
<stop offset="0.149863" stop-color="white"/>
<stop offset="0.300261" stop-color="#8CFF31"/>
<stop offset="0.449118" stop-color="#45C3EB"/>
<stop offset="1" stop-color="#72E6FF"/>
</linearGradient>
<linearGradient id="paint34_linear_861_28" x1="81.1718" y1="73.7306" x2="51.6455" y2="47.9371" gradientUnits="userSpaceOnUse">
<stop stop-color="#6CFFED"/>
<stop offset="1" stop-color="#197F9F"/>
</linearGradient>
<linearGradient id="paint35_linear_861_28" x1="167.924" y1="50.7856" x2="139.649" y2="13.8768" gradientUnits="userSpaceOnUse">
<stop offset="0.464598" stop-color="white"/>
<stop offset="0.790313" stop-color="#6DF390"/>
<stop offset="1" stop-color="#21CAFF" stop-opacity="0.9"/>
</linearGradient>
<linearGradient id="paint36_linear_861_28" x1="68.988" y1="63.5171" x2="85.989" y2="83.5825" gradientUnits="userSpaceOnUse">
<stop offset="0.125" stop-color="white"/>
<stop offset="0.297772" stop-color="#8CFF31"/>
<stop offset="0.447917" stop-color="#5BF5FF"/>
</linearGradient>
<linearGradient id="paint37_linear_861_28" x1="64.9461" y1="87.628" x2="62.9379" y2="69.0064" gradientUnits="userSpaceOnUse">
<stop stop-color="#DFF4FF"/>
<stop offset="0.994792" stop-color="#0E42C8"/>
</linearGradient>
</defs>
</svg>
