<svg width="643" height="566" viewBox="0 0 643 566" fill="none" xmlns="http://www.w3.org/2000/svg">
<rect width="300" height="300" rx="20" transform="matrix(0.866025 0.5 -0.866025 0.5 321.295 266)" fill="#3290FF"/>
<rect width="300" height="300" rx="20" transform="matrix(0.866025 0.5 -0.866025 0.5 321.295 195)" fill="#37F3FF"/>
<rect width="300" height="300" rx="20" transform="matrix(0.866025 0.5 -0.866025 0.5 321.295 130)" fill="#FFF964"/>
<rect width="300" height="300" rx="20" transform="matrix(0.866025 0.5 -0.866025 0.5 321.295 64)" fill="#FF3333"/>
<rect width="300" height="300" rx="20" transform="matrix(0.866025 0.5 -0.866025 0.5 315.295 0)" fill="#00FFB3"/>
<path d="M166.557 156.532L144.392 169.329L141.439 167.624L147.376 151.312L130.281 161.182L127.343 159.485L149.507 146.688L152.445 148.385L146.508 164.75L163.65 154.854L166.557 156.532ZM178.279 165.567L150.74 172.994L147.742 171.263L178.355 163.344L180.289 164.46L178.279 165.567ZM164.228 180.781L177.076 164.873L178.995 163.713L180.928 164.829L167.242 182.522L164.228 180.781ZM172.053 175.824L169.648 177.213L157.195 170.023L159.6 168.635L172.053 175.824ZM193.304 171.975L196.151 173.618L185.343 188.243L210.659 181.994L213.521 183.647L182.344 191.24L180.121 189.957L193.304 171.975ZM192.376 171.438L194.887 172.889L181.78 180.931L173.134 185.923L170.211 184.235L192.376 171.438ZM211.922 182.724L214.434 184.174L192.269 196.971L189.346 195.283L197.993 190.291L211.922 182.724ZM213.901 206.7L211.511 208.08L199.774 201.304L202.164 199.924L213.901 206.7ZM222.533 188.85L200.368 201.647L197.43 199.95L219.595 187.153L222.533 188.85ZM222.594 199.889L220.204 201.269L210.019 195.389L212.409 194.009L222.594 199.889ZM233.524 195.195L231.118 196.584L219.534 189.896L221.939 188.507L233.524 195.195Z" fill="black"/>
<path d="M274.394 221.06L246.856 228.486L243.857 226.755L274.47 218.836L276.404 219.952L274.394 221.06ZM260.343 236.273L273.192 220.365L275.11 219.205L277.043 220.321L263.358 238.014L260.343 236.273ZM268.168 231.316L265.763 232.705L253.31 225.516L255.716 224.127L268.168 231.316ZM293.56 242.707L285.446 247.392C284.766 247.468 283.873 247.48 282.767 247.427C281.671 247.368 280.407 247.143 278.977 246.75C277.566 246.357 276.033 245.684 274.379 244.729C273.029 243.949 272.02 243.097 271.35 242.171C270.7 241.245 270.411 240.281 270.482 239.279C270.573 238.277 271.04 237.27 271.883 236.256C272.745 235.242 274.004 234.258 275.658 233.303L277.378 232.31C279.032 231.355 280.702 230.613 282.386 230.086C284.081 229.564 285.761 229.263 287.425 229.181C289.1 229.093 290.724 229.233 292.297 229.603C293.88 229.966 295.387 230.561 296.818 231.387C298.513 232.365 299.634 233.353 300.182 234.349C300.751 235.345 300.842 236.323 300.456 237.284C300.081 238.251 299.33 239.165 298.203 240.026L295.265 238.33C295.935 237.791 296.402 237.217 296.666 236.607C296.94 236.004 296.914 235.38 296.59 234.735C296.275 234.085 295.549 233.432 294.413 232.775C293.388 232.184 292.312 231.779 291.185 231.563C290.059 231.346 288.902 231.299 287.715 231.422C286.527 231.545 285.314 231.823 284.076 232.257C282.848 232.696 281.61 233.276 280.362 233.997L278.611 235.008C277.332 235.746 276.338 236.49 275.627 237.24C274.927 237.996 274.501 238.74 274.349 239.473C274.207 240.199 274.339 240.891 274.744 241.547C275.161 242.209 275.841 242.813 276.784 243.357C277.83 243.961 278.763 244.4 279.585 244.676C280.418 244.945 281.138 245.115 281.747 245.186C282.366 245.25 282.884 245.273 283.3 245.256L288.263 242.391L283.132 239.429L285.507 238.058L293.56 242.707ZM303.866 258.642L301.476 260.022L289.739 253.245L292.129 251.865L303.866 258.642ZM312.498 240.791L290.333 253.588L287.395 251.892L309.56 239.095L312.498 240.791ZM312.559 251.83L310.169 253.21L299.984 247.33L302.374 245.95L312.559 251.83ZM323.489 247.137L321.084 248.525L309.499 241.837L311.904 240.448L323.489 247.137Z" fill="black"/>
<circle r="75" transform="matrix(0.866025 0.5 -0.866025 0.5 362.927 122.5)" fill="#FFCCCC"/>
<g clip-path="url(#clip0_821_222)">
<path opacity="0.35" d="M312.38 162.745C294.353 152.337 289.686 142.422 288.725 136.439C286.585 135.802 284.618 134.98 282.918 133.999C273.803 128.736 273.803 120.172 282.92 114.908C285.83 113.228 289.429 112.038 293.316 111.428C296.127 106.122 302.592 101.816 306.102 99.4031C304.697 94.7306 304.417 89.4029 312.82 84.5512C324.151 78.009 339.178 79.4552 349.196 83.7L352.338 84.1046C373.872 81.8135 392.81 84.9761 407.2 93.2837C414.947 97.7567 418.791 102.758 418.627 108.148C418.503 112.156 416.107 115.543 413.544 118.036C416.526 121.089 415.847 124.315 414.976 127.223C416.773 126.993 420.46 126.819 422.455 126.81C426.006 126.792 432.626 127.142 437.021 129.68C438.987 130.815 440.211 132.223 440.574 133.767C440.656 134.048 440.699 134.333 440.699 134.606L440.8 141.764C440.877 147.464 432.908 152.14 423.039 152.186L422.56 152.188C420.818 152.196 419.109 152.061 417.477 151.79C416.065 154.896 413.091 157.861 408.687 160.403C394.95 168.334 380.944 168.212 373.231 167.274C358.505 172.561 332.466 174.342 312.38 162.745Z" fill="black"/>
<path d="M312.38 159.945C294.353 149.537 289.686 139.622 288.725 133.639C286.585 133.002 284.618 132.18 282.918 131.199C273.803 125.936 273.803 117.372 282.92 112.108C285.83 110.428 289.429 109.238 293.316 108.628C296.127 103.322 300.596 99.4766 304.105 97.063C302.7 92.3919 304.417 86.6029 312.82 81.7512C324.151 75.209 339.178 76.6552 349.196 80.9L352.338 81.3046C373.872 79.0135 392.81 82.1761 407.2 90.4837C414.947 94.9567 418.791 99.9575 418.627 105.348C418.503 109.356 416.107 112.743 413.544 115.236C416.526 118.289 417.599 121.462 416.728 124.37C418.525 124.14 420.461 124.018 422.455 124.01C426.006 123.992 432.626 124.342 437.021 126.88C438.987 128.015 440.211 129.423 440.574 130.967C440.656 131.248 440.699 131.533 440.699 131.806L440.8 138.964C440.877 144.664 432.908 149.34 423.039 149.386L422.56 149.388C420.818 149.396 419.109 149.261 417.477 148.99C416.065 152.096 413.091 155.061 408.687 157.603C394.95 165.534 380.944 165.412 373.231 164.474C358.505 169.761 332.466 171.542 312.38 159.945Z" fill="#F2F2F2"/>
<path d="M422.946 142.951L422.486 142.953C418.752 142.97 415.699 141.237 415.67 139.081L415.569 131.884L429.552 131.819L429.653 139.015C429.684 141.171 426.681 142.933 422.946 142.951Z" fill="#F9B84F"/>
<path d="M388.446 134.498C388.446 134.498 385.974 131.644 381.029 130.216C381.029 130.216 381.029 125.935 383.967 123.669C383.967 123.669 397.099 129.502 403.279 125.935C408.223 123.08 405.751 118.798 399.571 115.23C399.571 115.23 417.549 105.556 399.321 95.0323C392.447 91.0633 377.727 84.6968 352.214 87.8804L344.244 86.8542C344.244 86.8542 331.376 80.1391 320.704 86.3005C310.365 92.2701 316.76 98.8172 316.76 98.8172C316.76 98.8172 305.538 103.756 302.497 114.132L302.381 114.801C298.362 114.232 293.944 114.845 290.803 116.658C286.025 119.417 286.025 123.89 290.803 126.649C293.319 128.101 296.657 128.781 299.952 128.704C299.952 128.704 295.746 140.921 320.467 155.193C340.243 166.611 364.963 160.902 371.143 157.334C371.143 157.334 385.356 161.973 400.806 153.053C416.257 144.133 400.805 133.072 388.446 134.498Z" fill="#FFC7A3"/>
<path d="M316.757 99.5319C316.757 99.5319 347.109 93.1773 376.881 110.367C386.877 116.137 383.967 123.671 383.967 123.671L397.857 127.088L405.819 123.9L401.665 118.36L399.57 114.518L407.298 106.579L402.991 97.5194L393.003 91.7528L375.121 87.5339L359.814 87.1888L352.212 87.8818L344.242 86.8556L331.528 83.371L319.317 87.1013L314.854 93.283L316.757 99.5319Z" fill="#D9EEFF"/>
<path d="M388.446 134.498C388.446 134.498 385.974 131.644 381.029 130.216C381.029 130.216 381.029 125.935 383.967 123.669C383.967 123.669 397.099 129.502 403.279 125.935C408.223 123.08 405.751 118.798 399.571 115.23C399.571 115.23 417.549 105.556 399.321 95.0323C392.447 91.0633 377.727 84.6968 352.214 87.8804L344.244 86.8542C344.244 86.8542 331.376 80.1391 320.704 86.3005C310.365 92.2701 316.76 98.8172 316.76 98.8172C316.76 98.8172 305.538 103.756 302.497 114.132L302.381 114.801C298.362 114.232 293.944 114.845 290.803 116.658C286.025 119.417 286.025 123.89 290.803 126.649C293.319 128.101 296.657 128.781 299.952 128.704C299.952 128.704 295.545 141.122 320.264 155.394C340.04 166.812 364.963 160.901 371.143 157.333C371.143 157.333 385.356 161.972 400.806 153.052C416.257 144.132 400.805 133.072 388.446 134.498Z" stroke="#40396E" stroke-width="6" stroke-miterlimit="10" stroke-linecap="round" stroke-linejoin="round"/>
<path d="M405.359 139.978L415.124 139.404" stroke="#40396E" stroke-width="6" stroke-miterlimit="10" stroke-linecap="round" stroke-linejoin="round"/>
<path d="M422.946 142.951L422.486 142.953C418.752 142.97 415.699 141.237 415.67 139.081L415.569 131.884L429.552 131.819L429.653 139.015C429.684 141.171 426.681 142.933 422.946 142.951Z" stroke="#40396E" stroke-width="6" stroke-miterlimit="10" stroke-linecap="round" stroke-linejoin="round"/>
<path d="M422.589 133.483C426.451 133.465 429.572 132.769 429.56 131.93C429.548 131.09 426.409 130.424 422.547 130.442C418.685 130.459 415.564 131.155 415.576 131.995C415.588 132.834 418.728 133.501 422.589 133.483Z" stroke="#40396E" stroke-width="6" stroke-miterlimit="10" stroke-linecap="round" stroke-linejoin="round"/>
<path d="M319.252 99.1273C319.252 99.1273 317.833 95.4985 329.118 95.25C344.285 94.9154 375.818 99.3772 402.042 114.518C411.929 120.94 404.646 125.586 404.646 125.586L394.635 127.324L381.028 123.794C381.028 123.794 387.208 117.371 369.904 107.381C352.6 97.3906 319.252 99.1273 319.252 99.1273Z" fill="#40396E"/>
<path d="M367.433 108.809C370.846 110.779 376.38 110.779 379.793 108.809C383.206 106.839 383.206 103.644 379.793 101.673C376.38 99.7027 370.846 99.7027 367.433 101.673C364.02 103.644 364.02 106.839 367.433 108.809Z" fill="#F9B84F"/>
<path d="M368.582 129.177C370.733 129.809 373.897 128.711 375.649 126.724C377.402 124.738 377.078 122.614 374.927 121.982C372.776 121.35 369.612 122.448 367.86 124.435C366.108 126.421 366.431 128.545 368.582 129.177Z" fill="#40396E"/>
<path d="M383.501 114.518C383.501 114.518 373.614 113.09 369.905 118.086" stroke="#40396E" stroke-width="6" stroke-miterlimit="10" stroke-linecap="round" stroke-linejoin="round"/>
<path d="M351.757 124.871C351.757 124.871 348.892 120.226 341.477 120.226" stroke="#40396E" stroke-width="6" stroke-miterlimit="10" stroke-linecap="round" stroke-linejoin="round"/>
<path d="M342.713 108.094C342.713 108.094 348.892 104.526 353.837 107.381C358.781 110.236 352.6 118.085 358.78 121.653C362.141 123.594 363.724 121.653 363.724 121.653" stroke="#40396E" stroke-width="6" stroke-miterlimit="10" stroke-linecap="round" stroke-linejoin="round"/>
<path d="M350.781 135.42C350.781 135.42 330.352 119.512 321.701 125.935" stroke="#40396E" stroke-width="6" stroke-miterlimit="10" stroke-linecap="round" stroke-linejoin="round"/>
<path d="M365.157 146.253C376.012 147.598 386.208 144.935 387.931 140.303C389.653 135.671 382.25 130.825 371.395 129.479C360.541 128.134 350.344 130.798 348.622 135.429C346.899 140.061 354.302 144.907 365.157 146.253Z" fill="#EB976E"/>
<path d="M297.432 123.743C299.365 124.859 302.499 124.859 304.432 123.743C306.366 122.627 306.366 120.817 304.432 119.701C302.499 118.585 299.365 118.585 297.432 119.701C295.499 120.817 295.499 122.627 297.432 123.743Z" fill="#EB976E"/>
<path d="M302.973 118.137L300.931 125.763L309.409 125.607L309.348 119.509L302.973 118.137Z" fill="#FFC7A3"/>
</g>
<defs>
<clipPath id="clip0_821_222">
<rect width="140" height="140" fill="white" transform="matrix(0.866025 0.5 -0.866025 0.5 358.597 55)"/>
</clipPath>
</defs>
</svg>
